<svg preserveAspectRatio="none" width="100%" height="100%" overflow="visible" style="display: block;" viewBox="0 0 55.678 22.2917" fill="none" xmlns="http://www.w3.org/2000/svg">
<g id="Group">
<path id="Path" d="M53.526 8.46906L51.2192 14.1713L48.8774 8.46906H46.5606L50.1756 16.5349L48.2732 20.9733H50.2705L55.678 8.46906H53.526V8.46906Z" fill="var(--fill-0, #222222)"/>
<path id="Shape" fill-rule="evenodd" clip-rule="evenodd" d="M26.6831 4.20975H31.5863C34.2876 4.20975 35.9004 5.98612 35.9004 8.28993C35.9004 10.5937 34.2876 12.2706 31.5863 12.2706H28.7403V17.3857H26.6831V4.20975ZM28.7702 10.335H31.9558C33.3189 10.335 33.8382 9.11094 33.8382 8.26505C33.8382 7.41916 33.3439 6.14037 31.9558 6.14037H28.7702V10.335Z" fill="var(--fill-0, #222222)"/>
<path id="Shape_2" fill-rule="evenodd" clip-rule="evenodd" d="M37.7636 9.62475C38.6387 8.76305 39.8341 8.30291 41.0632 8.35461C43.8344 8.35461 45.582 10.136 45.567 12.9075V17.3857H43.4849V16.0273C42.9048 16.9105 41.9177 17.4435 40.8585 17.4454C38.2621 17.4454 36.4496 15.5745 36.4496 12.8975C36.4124 11.6721 36.8885 10.4865 37.7636 9.62475ZM41.0528 15.6193C41.0562 15.6193 41.0597 15.6193 41.0632 15.6193H41.0432C41.0464 15.6193 41.0496 15.6193 41.0528 15.6193ZM38.5667 12.8975C38.5667 14.5755 39.5309 15.6146 41.0528 15.6193C42.6593 15.6138 43.4849 14.2135 43.5048 12.8975C43.5048 11.2456 42.5611 10.1758 41.0632 10.1758C39.6352 10.1758 38.5667 11.3451 38.5667 12.8975Z" fill="var(--fill-0, #222222)"/>
<path id="Path_2" d="M11.3094 22.098L19.9724 17.7866C20.5832 17.4803 20.9692 16.859 20.971 16.1791V6.11253C20.9692 5.43264 20.5832 4.81137 19.9724 4.50505L11.3094 0.193626C10.7961 -0.0645419 10.1899 -0.0645419 9.67662 0.193626L0.998619 4.50505C0.387759 4.81137 0.00180869 5.43264 0 6.11253V16.1791C0.00180869 16.859 0.387759 17.4803 0.998619 17.7866L9.67662 22.098C10.1899 22.3562 10.7961 22.3562 11.3094 22.098Z" fill="var(--fill-0, #FF0211)"/>
<ellipse id="Oval" cx="17.7305" cy="6.24984" rx="4.7035" ry="4.68722" fill="var(--fill-0, #4DC9FF)"/>
<path id="Path_3" d="M2.88601 14.8132L1.96728 14.3554V11.6436C1.96728 10.8475 2.41666 10.0563 3.34537 10.1509C4.11587 10.2895 4.76698 10.8004 5.08297 11.5143C5.364 11.2529 5.75645 11.1467 6.13152 11.2306C6.63083 11.2953 8.3884 11.972 8.3884 14.3803V17.5698L7.38978 17.0722V14.0868C7.45292 13.2872 6.91315 12.5644 6.12653 12.395C5.82694 12.3601 5.5673 12.599 5.55732 13.1115C5.54733 13.624 5.55732 16.1567 5.55732 16.1567L4.63359 15.6939V12.8528C4.63359 11.5988 3.82471 11.2058 3.4702 11.166C3.27048 11.166 2.896 11.2655 2.896 11.9024L2.88601 14.8132Z" fill="var(--fill-0, white)"/>
</g>
</svg>
