<svg width="24" height="24" viewBox="0 0 24 24" fill="none" xmlns="http://www.w3.org/2000/svg">
<g clip-path="url(#clip0_34928_109172)">
<path d="M12.0075 24C14.3806 23.9985 16.6999 23.2935 18.6723 21.974C20.6447 20.6545 22.1816 18.7799 23.0887 16.587C23.9958 14.3942 24.2324 11.9816 23.7685 9.65433C23.3046 7.32705 22.1612 5.18956 20.4826 3.51207C18.8041 1.83459 16.6659 0.692449 14.3383 0.230034C12.0108 -0.232381 9.59835 0.00569642 7.40607 0.914168C5.2138 1.82264 3.3401 3.36071 2.02185 5.33394C0.703604 7.30717 5.75613e-06 9.62695 5.29265e-06 12C-0.00147638 13.5769 0.30815 15.1386 0.911151 16.5957C1.51415 18.0528 2.39868 19.3766 3.51407 20.4912C4.62946 21.6059 5.95381 22.4896 7.41125 23.0917C8.86869 23.6938 10.4306 24.0025 12.0075 24V24Z" fill="#FFCE00"/>
<path d="M11.9999 22.2716C9.96819 22.2718 7.98198 21.6696 6.29251 20.541C4.60305 19.4123 3.2862 17.8081 2.50851 15.9311C1.73081 14.054 1.52721 11.9885 1.92343 9.99577C2.31966 8.00302 3.29792 6.17252 4.7345 4.73576C6.17109 3.299 8.00147 2.32051 9.99417 1.92404C11.9869 1.52757 14.0524 1.73093 15.9295 2.5084C17.8067 3.28586 19.4111 4.60251 20.5399 6.29184C21.6687 7.98117 22.2712 9.96731 22.2712 11.9991C22.2666 14.7219 21.183 17.3318 19.2578 19.2573C17.3326 21.1827 14.7227 22.2666 11.9999 22.2716V22.2716ZM11.9874 2.94782C10.1974 2.94979 8.44813 3.48243 6.96075 4.47838C5.47336 5.47434 4.31464 6.88891 3.63105 8.54329C2.94745 10.1977 2.76968 12.0176 3.1202 13.773C3.47073 15.5283 4.33381 17.1404 5.60034 18.4054C6.86688 19.6703 8.48001 20.5314 10.2358 20.8798C11.9917 21.2281 13.8113 21.0481 15.4649 20.3624C17.1184 19.6768 18.5315 18.5163 19.5256 17.0277C20.5197 15.539 21.0502 13.7891 21.0499 11.9991C21.0508 10.8097 20.817 9.63181 20.362 8.53289C19.9071 7.43396 19.2398 6.43555 18.3985 5.59482C17.5572 4.75409 16.5583 4.08754 15.4591 3.63333C14.3599 3.17912 13.1818 2.94617 11.9924 2.94782H11.9874Z" fill="#FF7F2C"/>
<path d="M12.0001 11.4747C11.8357 11.4734 11.6786 11.4074 11.5626 11.291L7.71631 7.44348C7.6579 7.38624 7.61142 7.31799 7.57955 7.24267C7.54768 7.16736 7.53106 7.08647 7.53065 7.00469C7.53023 6.92291 7.54604 6.84186 7.57714 6.76622C7.60825 6.69059 7.65404 6.62187 7.71187 6.56404C7.7697 6.50621 7.83841 6.46042 7.91405 6.42932C7.98968 6.39821 8.07073 6.38241 8.15251 6.38282C8.23429 6.38323 8.31518 6.39985 8.3905 6.43172C8.46582 6.46359 8.53407 6.51007 8.59131 6.56848L12.0001 9.97723L15.4076 6.56848C15.5279 6.47821 15.6768 6.43439 15.8269 6.44505C15.9769 6.45572 16.1181 6.52016 16.2245 6.62654C16.3309 6.73292 16.3953 6.87411 16.406 7.02418C16.4166 7.17425 16.3728 7.32312 16.2826 7.44348L12.4176 11.291C12.3065 11.4026 12.1574 11.4683 12.0001 11.4747V11.4747Z" fill="#FF7F2C"/>
<path d="M12 18.7509C11.8342 18.7509 11.6752 18.685 11.558 18.5678C11.4408 18.4506 11.375 18.2916 11.375 18.1259V10.8496C11.3654 10.7623 11.3743 10.6739 11.4011 10.5903C11.4279 10.5066 11.4721 10.4296 11.5307 10.3642C11.5894 10.2988 11.6611 10.2464 11.7413 10.2106C11.8215 10.1748 11.9084 10.1562 11.9962 10.1562C12.0841 10.1562 12.1709 10.1748 12.2511 10.2106C12.3313 10.2464 12.4031 10.2988 12.4617 10.3642C12.5203 10.4296 12.5645 10.5066 12.5913 10.5903C12.6182 10.6739 12.6271 10.7623 12.6175 10.8496L12.625 18.1259C12.6191 18.2897 12.5513 18.4453 12.4354 18.5613C12.3194 18.6772 12.1638 18.745 12 18.7509Z" fill="#FF7F2C"/>
<path d="M15.8287 11.9766H8.15747C7.99171 11.9766 7.83274 11.9107 7.71553 11.7935C7.59832 11.6763 7.53247 11.5173 7.53247 11.3516C7.53247 11.1858 7.59832 11.0268 7.71553 10.9096C7.83274 10.7924 7.99171 10.7266 8.15747 10.7266H15.8287C15.9945 10.7266 16.1535 10.7924 16.2707 10.9096C16.3879 11.0268 16.4537 11.1858 16.4537 11.3516C16.4537 11.5173 16.3879 11.6763 16.2707 11.7935C16.1535 11.9107 15.9945 11.9766 15.8287 11.9766V11.9766Z" fill="#FF7F2C"/>
<path d="M15.8287 15.3594H8.15747C7.99171 15.3594 7.83274 15.2935 7.71553 15.1763C7.59832 15.0591 7.53247 14.9001 7.53247 14.7344C7.53247 14.5686 7.59832 14.4096 7.71553 14.2924C7.83274 14.1752 7.99171 14.1094 8.15747 14.1094H15.8287C15.9945 14.1094 16.1535 14.1752 16.2707 14.2924C16.3879 14.4096 16.4537 14.5686 16.4537 14.7344C16.4537 14.9001 16.3879 15.0591 16.2707 15.1763C16.1535 15.2935 15.9945 15.3594 15.8287 15.3594V15.3594Z" fill="#FF7F2C"/>
</g>
<defs>
<clipPath id="clip0_34928_109172">
<rect width="24" height="24" fill="white"/>
</clipPath>
</defs>
</svg>
