<svg preserveAspectRatio="none" width="100%" height="100%" overflow="visible" style="display: block;" viewBox="0 0 34.7246 34.7257" fill="none" xmlns="http://www.w3.org/2000/svg">
<g id="mercari">
<path id="Fill" fill-rule="evenodd" clip-rule="evenodd" d="M17.5053 34.4262L30.9362 27.7058C31.8868 27.2305 32.4846 26.2628 32.4846 25.2044V9.52192C32.4846 8.46352 31.8868 7.49577 30.9362 7.02047L17.5053 0.297675C16.7115 -0.099225 15.7756 -0.099225 14.9818 0.297675L1.5484 7.02047C0.60025 7.49577 0 8.46352 0 9.52192V25.2044C0 26.2628 0.60025 27.2305 1.5484 27.7058L14.9818 34.4262C15.7756 34.8255 16.7115 34.8255 17.5053 34.4262Z" fill="var(--fill-0, #FF0211)"/>
<path id="Fill_2" fill-rule="evenodd" clip-rule="evenodd" d="M34.7246 9.70858C34.7246 13.7315 31.4661 16.99 27.4432 16.99C23.4252 16.99 20.1643 13.7315 20.1643 9.70858C20.1643 5.68813 23.4252 2.42718 27.4432 2.42718C31.4661 2.42718 34.7246 5.68813 34.7246 9.70858Z" fill="var(--fill-0, #4DC9FF)"/>
<path id="Fill_3" fill-rule="evenodd" clip-rule="evenodd" d="M4.47027 23.0137L3.04927 22.2983V18.0843C3.04927 16.8519 3.74262 15.622 5.17587 15.7788C6.51602 15.9234 7.54992 17.1141 7.87087 17.8932C8.37312 17.4522 8.83127 17.3615 9.49277 17.4497C10.2253 17.5526 12.9865 18.6037 12.9865 22.3424V27.3036L11.4258 26.5196V21.8671C11.4258 20.5073 10.5904 19.3656 9.46582 19.2358C9.00522 19.1819 8.60342 19.5543 8.59117 20.3554C8.57647 21.1541 8.59117 25.0839 8.59117 25.0839L7.16037 24.3661V19.9634C7.16037 18.0181 5.90352 17.4056 5.35472 17.3468C5.04602 17.3125 4.47027 17.4963 4.47027 18.491V23.0137Z" fill="var(--fill-0, white)"/>
</g>
</svg>
