<svg preserveAspectRatio="none" width="100%" height="100%" overflow="visible" style="display: block;" viewBox="0 0 67.3699 12.6502" fill="none" xmlns="http://www.w3.org/2000/svg">
<g id="Mask" clip-path="url(#clip0_0_30209)">
<path id="Union" d="M36.8682 3.37988C38.4497 3.37988 39.6692 3.95939 39.6807 3.96484V5.97266C39.6606 5.96148 38.4598 5.2969 36.9102 5.29688C35.045 5.29688 34.249 6.58328 34.249 8.11816C34.2491 9.68595 35.284 10.8036 37.0518 10.8037C38.5143 10.8037 39.8818 10.1074 39.8818 10.1074V12.0654C39.8818 12.0654 38.6227 12.6454 37.0215 12.6455C34.1736 12.6455 32.1865 10.84 32.1865 8.11621C32.1866 5.39263 34.0051 3.37999 36.8682 3.37988ZM67.3711 0V12.5781H65.3027V11.0771C64.9803 11.9059 63.9309 12.6348 62.6875 12.6348C60.1081 12.6347 58.3048 10.6908 58.3047 8.0127C58.3047 5.3345 60.2304 3.39062 62.8809 3.39062C63.814 3.39069 64.6302 3.60011 65.3027 3.98535V0H67.3711ZM19.9834 3.375C22.0799 3.37517 23.9697 5.19969 23.9697 7.75195C23.9697 8.35253 23.9082 8.76953 23.9082 8.76953H17.6025C17.8032 10.1799 18.911 10.8877 20.4443 10.8877C21.9778 10.8877 23.627 10.1904 23.627 10.1904V12.0449C23.6133 12.0504 22.1514 12.6318 20.3457 12.6318C17.5456 12.6318 15.5137 10.9157 15.5137 8.02832C15.5137 5.66634 17.186 3.37808 19.9844 3.37793L19.9834 3.375ZM46.1016 3.3877C48.8554 3.3877 50.5928 5.20105 50.5928 8.00977V12.5752H48.5234V11.0742C48.201 11.9029 47.1525 12.6317 45.9092 12.6318C43.3298 12.6318 41.5265 10.6878 41.5264 8.00977C41.5264 5.33162 43.4512 3.38776 46.1016 3.3877ZM9.61328 3.38574C11.9193 3.38598 13.5819 5.15049 13.582 7.49023V12.5762H11.5068V7.2832C11.5068 6.1605 10.7469 5.31273 9.61328 5.3125C8.47937 5.3125 7.78906 6.16034 7.78906 7.2832V12.5762H5.75098V7.2832C5.75098 6.16036 5.01084 5.31252 3.87695 5.3125C2.74304 5.3125 2.07324 6.16034 2.07324 7.2832V12.5762H0V7.49023C0.00015391 5.15033 1.58147 3.38574 3.87695 3.38574C5.09415 3.38576 6.00475 3.87837 6.77148 4.8125C7.58293 3.8407 8.37914 3.38574 9.61328 3.38574ZM30.8135 3.38574V5.30469L30.0645 5.3125C28.9309 5.31276 28.2618 6.27346 28.2617 7.55176V12.5762H26.1885V7.49023C26.1886 5.15049 27.7692 3.38598 30.0645 3.38574H30.8135ZM57.4775 3.38574V5.30469L56.7295 5.3125C55.5957 5.31258 54.9258 6.27334 54.9258 7.55176V12.5762H52.8525V7.49023C52.8527 5.15038 54.4341 3.38582 56.7295 3.38574H57.4775ZM46.082 5.24023C44.6766 5.24023 43.6133 6.43084 43.6133 8.00977C43.6134 9.71751 44.561 10.7793 46.082 10.7793C47.6846 10.7791 48.5048 9.35105 48.5049 8.00977C48.5049 6.32719 47.5798 5.24042 46.082 5.24023ZM62.8604 5.20117C61.455 5.2012 60.3918 6.39101 60.3916 7.96973C60.3916 9.67759 61.3392 10.7392 62.8604 10.7393C64.4633 10.7393 65.2842 9.31118 65.2842 7.96973C65.284 6.28722 64.3582 5.20117 62.8604 5.20117ZM19.9277 5.14453C19.0546 5.14453 17.9189 5.54515 17.6211 7.09863H22.1641C22.0004 5.75754 20.8718 5.1446 19.9277 5.14453Z" fill="var(--fill-0, #333333)"/>
</g>
<defs>
<clipPath id="clip0_0_30209">
<rect width="67.3699" height="12.6502" fill="white"/>
</clipPath>
</defs>
</svg>
