<svg xmlns="http://www.w3.org/2000/svg" width="24" height="24" viewBox="0 0 24 24" fill="currentColor"><path fill-rule="evenodd" d="M20 2.63V2.5a.5.5 0 0 0-.05-.13l-.07-.1-.1-.1h-.06L19.5 2H4.31l-.1.1-.07.1a.5.5 0 0 0-.14.3v18.8a.7.7 0 0 0 .7.7h14.6a.7.7 0 0 0 .7-.7V2.63m-2 .77L16.92 5H7.08L6 3.4zM5.4 20.6V5l.72 1.08a.71.71 0 0 0 .58.31h10.6a.71.71 0 0 0 .58-.31L18.6 5v15.6zm4.18-10.21-1.77 4.52h.94l.4-1H11l.4 1h1l-1.8-4.52zm-.2 2.79.37-1c.06-.165.142-.414.215-.631l.125-.37c.05.23.21.75.31 1l.37 1zm5.09-2.79h1.1v2.91h.62v.7h-.62v.92h-.86V14h-2.09v-.74zm.26 2.91v-.77c0-.176.002-.397.005-.635.002-.275.005-.571.005-.845-.16.33-.48.87-.64 1.12l-.7 1.13z" clip-rule="evenodd"/></svg>