<svg xmlns="http://www.w3.org/2000/svg" width="24" height="24" viewBox="0 0 24 24" fill="currentColor"><path fill-rule="evenodd" d="M17.498 6.843a.7.7 0 0 0 .49-.2l1.96-1.97a.72.72 0 0 0 0-1 .68.68 0 0 0-1 0l-2 2a.71.71 0 0 0 0 1 .7.7 0 0 0 .55.17m-2.64-2.87a.86.86 0 0 1 .41-.1.92.92 0 0 1 .91.93v11.92a.92.92 0 0 1-.558.856.9.9 0 0 1-.352.074.86.86 0 0 1-.41-.1l-7.06-3.58a3.5 3.5 0 0 0-1.48-.42v6.22a.69.69 0 1 1-1.37 0v-6.27a2.78 2.78 0 0 1 .21-5.53h1a3.6 3.6 0 0 0 1.64-.42zm-6.44 8.7 6.38 3.2V5.563l-6.38 3.25a5.1 5.1 0 0 1-2.26.54h-1a1.39 1.39 0 1 0 0 2.78h1a5 5 0 0 1 2.26.54m9.59-2.63h2.75a.7.7 0 1 1 0 1.4h-2.75a.7.7 0 0 1 0-1.4m-.288 4.692a.7.7 0 0 1 .228.158l2 2a.71.71 0 0 1 0 1 .668.668 0 0 1-1 0l-2-2a.71.71 0 0 1 0-1 .69.69 0 0 1 .772-.159" clip-rule="evenodd"/></svg>