<svg xmlns="http://www.w3.org/2000/svg" width="24" height="24" viewBox="0 0 24 24" fill="currentColor"><path d="M16.931 3.002a5.85 5.85 0 0 1 4.33 1.781 6.13 6.13 0 0 1 1.736 4.09c.053 1.618-.51 3.378-1.89 5.083a.7.7 0 0 1-.091.117c-.301.304-1.19 1.229-1.606 1.606a1 1 0 0 1-.059.062l-4.733 4.276c-1.45 1.31-3.786 1.31-5.235 0l-4.734-4.276-.048-.05a16 16 0 0 1-1.003-.935C1.822 12.932 1.04 11.009 1 9.228a6.16 6.16 0 0 1 1.738-4.44 5.85 5.85 0 0 1 4.33-1.784c1.587.036 3.29.709 4.93 2.217 1.64-1.509 3.344-2.184 4.932-2.22m-9.89 1.332a4.57 4.57 0 0 0-3.385 1.394 4.8 4.8 0 0 0-1.358 3.471c.03 1.38.634 2.99 2.218 4.616.326.335.654.633.985.916q.039.033.072.072l4.667 4.216c.96.868 2.561.868 3.52 0l.128-.116-1.927-1.77a.677.677 0 0 1-.051-.939.64.64 0 0 1 .916-.052l2.042 1.876 1.913-1.728-2.108-1.933a.677.677 0 0 1-.052-.938.64.64 0 0 1 .916-.053l2.224 2.038.666-.601a1 1 0 0 1 .072-.072c.213-.182.705-.683 1.116-1.105l-2.239-2.049-.03-.03a2.86 2.86 0 0 0-3.975.141l-1.046 1.073a2.676 2.676 0 0 1-4.027-.2 2.7 2.7 0 0 1-.432-.768c-.384-1.042-.102-2.254.673-3.048l2.528-2.594C9.644 4.865 8.252 4.361 7.04 4.334m9.919-.003c-1.337.03-2.895.642-4.47 2.242q-.015.019-.031.036L9.456 9.69a1.6 1.6 0 0 0-.39 1.59q.076.234.231.429h.001a1.4 1.4 0 0 0 2.109.11l1.046-1.074a4.137 4.137 0 0 1 5.787-.168l2.235 2.047c.927-1.318 1.262-2.59 1.225-3.705a4.8 4.8 0 0 0-1.355-3.193v-.001A4.57 4.57 0 0 0 16.96 4.33"/></svg>