<svg xmlns="http://www.w3.org/2000/svg" width="24" height="24" viewBox="0 0 24 24" fill="currentColor"><path fill-rule="evenodd" d="M19.501 10.41a.53.53 0 0 0 .468-.328l1.887-4.388a.56.56 0 0 0-.274-.732L15.17 2.048c-.3-.136-.644.042-.795.344-.43.862-1.253 1.443-2.198 1.443S9.978 3.254 9.548 2.39c-.15-.301-.493-.48-.793-.344L2.32 4.952a.56.56 0 0 0-.275.733l1.886 4.387c.086.2.272.32.468.327q.136.006.266-.062l1.278-.691v7.347c0 .611.478 1.107 1.067 1.107h9.88c.589 0 1.066-.496 1.066-1.107V9.657l1.279.69a.5.5 0 0 0 .265.063M6.831 7.672a.49.49 0 0 1 .658.467v8.358h8.924V8.141c0-.347.34-.587.659-.465l1.925.736 1.034-2.406-4.739-2.152c-.729.947-1.836 1.584-3.116 1.584-.748 0-1.534-.22-2.202-.57A4.5 4.5 0 0 1 8.653 3.84l-4.78 2.159L4.904 8.4z" clip-rule="evenodd"/><path d="M21.207 12.648a.794.794 0 0 0-.792.795v6.966H10.11a.794.794 0 0 0-.793.796c0 .439.355.795.793.795h10.305C21.29 22 22 21.288 22 20.41v-6.967a.794.794 0 0 0-.793-.795"/></svg>