<svg xmlns="http://www.w3.org/2000/svg" width="24" height="24" viewBox="0 0 24 24" fill="currentColor"><path fill-rule="evenodd" d="M7.017 5c.283.018.55.139.75.34l2.85 2.76a.71.71 0 0 1-.771 1.155.7.7 0 0 1-.23-.155l-2-1.94V18.3a.7.7 0 1 1-1.4 0V7.14l-2 2a.67.67 0 0 1-.49.2.7.7 0 0 1-.5-.21.7.7 0 0 1 0-1l2.85-2.81a1.24 1.24 0 0 1 .74-.32h.2m13.57 9.725a.7.7 0 0 1 .23.155.7.7 0 0 1-.03.94l-2.85 2.79a1.2 1.2 0 0 1-.61.29.6.6 0 0 1-.24.05.9.9 0 0 1-.22 0 1.3 1.3 0 0 1-.62-.3l-2.83-2.76a.707.707 0 0 1 1-1l2 1.95V5.7a.7.7 0 1 1 1.4 0v11.18l2-2a.7.7 0 0 1 .77-.155" clip-rule="evenodd"/></svg>