<svg xmlns="http://www.w3.org/2000/svg" width="24" height="24" viewBox="0 0 24 24" fill="currentColor"><path fill-rule="evenodd" d="M19.3 2H4.7a.7.7 0 0 0-.7.7v18.6a.7.7 0 0 0 .7.7h14.6a.7.7 0 0 0 .7-.7V2.7a.7.7 0 0 0-.7-.7m-.7 18.6H5.4V3.4h13.2zM11.59 9h4.47a.7.7 0 1 0 0-1.4h-4.47a.7.7 0 0 0 0 1.4M8.85 9h-.91a.7.7 0 1 1 0-1.4h.91a.7.7 0 1 1 0 1.4m2.74 3.7h4.47a.7.7 0 1 0 0-1.4h-4.47a.7.7 0 0 0 0 1.4m-2.74 0h-.91a.7.7 0 1 1 0-1.4h.91a.7.7 0 0 1 0 1.4m2.74 3.72h4.47a.7.7 0 1 0 0-1.4h-4.47a.7.7 0 0 0 0 1.4m-2.74 0h-.91a.7.7 0 1 1 0-1.4h.91a.7.7 0 0 1 0 1.4" clip-rule="evenodd"/></svg>