<svg xmlns="http://www.w3.org/2000/svg" width="24" height="24" viewBox="0 0 24 24" fill="currentColor"><path fill-rule="evenodd" d="m13.485 3.88 8.3 14.64a1.64 1.64 0 0 1-.02 1.67 1.67 1.67 0 0 1-1.46.83h-16.6a1.67 1.67 0 0 1-1.48-.83 1.64 1.64 0 0 1 0-1.67l8.26-14.64a1.7 1.7 0 0 1 3 0m6.969 15.747a.3.3 0 0 0 .11-.107v-.03a.31.31 0 0 0 0-.27l-8.3-14.63a.29.29 0 0 0-.52 0l-8.3 14.63a.31.31 0 0 0 0 .3.32.32 0 0 0 .26.15h16.6a.3.3 0 0 0 .15-.043M12.935 8.67h-1.86v6.43h1.86zm-.93 7.46a1.11 1.11 0 1 0 .02 2.22 1.11 1.11 0 0 0-.02-2.22" clip-rule="evenodd"/></svg>