<svg xmlns="http://www.w3.org/2000/svg" width="24" height="24" viewBox="0 0 24 24" fill="currentColor"><g fill-rule="evenodd" clip-path="url(#a)" clip-rule="evenodd"><path d="M11.238.714c.526-.13 1.06-.073 1.592.12 1.02.372 2.145 1.288 3.484 2.627l.017.02q.005.009.012.016c1.32 1.324 2.224 2.44 2.593 3.45.194.533.25 1.066.12 1.592-.128.521-.423.965-.812 1.354-.474.475-1.014.853-1.678.94a12 12 0 0 1-.899 1.57l6.65 5.71.202.19c.45.464.736 1.064.815 1.71q.006.046.005.091a2.98 2.98 0 0 1-3.147 3.247l-.18-.017a2.97 2.97 0 0 1-1.9-1.018l-5.708-6.648c-.514.348-1.042.647-1.572.9-.089.659-.462 1.2-.938 1.676-.39.389-.834.685-1.355.814-.526.13-1.06.072-1.592-.122-1.02-.37-2.144-1.287-3.483-2.626-1.339-1.34-2.254-2.465-2.625-3.485-.194-.533-.25-1.066-.12-1.593.13-.52.425-.966.814-1.355.475-.474 1.014-.853 1.677-.94A12.2 12.2 0 0 1 5.587 5.58a12.1 12.1 0 0 1 3.357-2.378c.09-.66.463-1.2.94-1.677.389-.389.833-.684 1.354-.812m.799 13.435q.563-.425 1.09-.945l.037-.038q.276-.274.527-.566.228-.263.433-.533.019-.022.038-.045c.533-.707.952-1.45 1.267-2.187a.725.725 0 0 1 .744-.436c.292.032.583-.068 1.046-.53.26-.26.382-.482.43-.678.047-.19.041-.425-.076-.747-.25-.69-.95-1.618-2.288-2.955l-.014-.016-.01-.013c-1.323-1.32-2.242-2.013-2.927-2.263-.322-.117-.557-.122-.748-.075-.196.048-.417.17-.677.43-.46.46-.56.756-.53 1.05a.73.73 0 0 1-.438.74 10.6 10.6 0 0 0-3.328 2.263 10.7 10.7 0 0 0-2.264 3.33.725.725 0 0 1-.745.437c-.292-.031-.583.068-1.045.53-.261.261-.384.484-.433.68-.047.19-.042.426.075.747.25.69.951 1.617 2.288 2.956l.483.472c1.082 1.033 1.868 1.596 2.471 1.816.322.117.558.123.748.076.196-.048.417-.17.677-.43.46-.46.56-.756.53-1.05a.725.725 0 0 1 .438-.74c.743-.317 1.49-.742 2.2-1.28m2.746-.594 6.591 5.659c.28.24.461.573.515.938v.01l.003.03q0-.002 0 0a1.535 1.535 0 0 1-1.703 1.703 1.53 1.53 0 0 1-.976-.522l-5.66-6.593.027-.02.02-.02.243-.215.017-.016.062-.058a13 13 0 0 0 .744-.764l.025-.028.047-.055.032-.037z"/><path d="m13.58 14.76-.02.015q.002 0 0 0z"/><path d="m13.6 14.74-.046.04.01-.008.016-.012z"/></g><defs><clipPath id="a"><path d="M0 0h24v24H0z"/></clipPath></defs></svg>