<svg xmlns="http://www.w3.org/2000/svg" width="24" height="24" viewBox="0 0 24 24" fill="currentColor"><path d="M14.345 9.804c-.19.32-.78.98-1.4 1.53-.32.28-.65.53-.94.68-.29-.15-.62-.4-.94-.68-.62-.55-1.21-1.21-1.4-1.53-.39-.64-.16-1.45.51-1.81.63-.34 1.41-.17 1.83.36.42-.54 1.2-.71 1.83-.36.67.37.9 1.18.51 1.81m8.34-3.95-1.11 5.25c-.04.18-.15.34-.31.44s-.35.14-.53.09l-2.1-.47.62 5.98a.7.7 0 0 1-.42.71c-1.4.61-2.42 1.81-2.72 3.21-.07.32-.35.55-.68.55h-6.89c-.33 0-.62-.23-.68-.55-.3-1.4-1.32-2.6-2.72-3.21a.7.7 0 0 1-.42-.71l.62-5.98-2.1.47c-.18.04-.37 0-.53-.09a.7.7 0 0 1-.31-.44l-1.08-5.25c-.07-.35.12-.69.46-.81l7.54-2.62c.18-.06.38-.05.55.04s.3.25.35.43c.22.8.95 1.36 1.77 1.36s1.55-.56 1.77-1.36c.05-.19.18-.34.35-.43s.37-.1.55-.04l7.55 2.62c.33.12.53.46.46.81zm-1.49.31-6.35-2.21a3.25 3.25 0 0 1-2.84 1.7c-1.19 0-2.28-.67-2.84-1.7l-6.35 2.21.84 3.95 2.36-.53c.22-.05.45.01.62.16s.25.37.23.6l-.67 6.46c1.39.75 2.44 1.98 2.91 3.42h5.82c.47-1.44 1.51-2.67 2.91-3.42l-.67-6.46c-.02-.22.06-.45.23-.6s.4-.21.62-.16l2.36.53.84-3.95z"/></svg>