<svg xmlns="http://www.w3.org/2000/svg" width="24" height="24" viewBox="0 0 24 24" fill="currentColor"><path d="m21.71 8.85-9.3-6.73a.72.72 0 0 0-.82 0l-9.3 6.73a.69.69 0 0 0-.29.78.71.71 0 0 0 .67.48H5.2v7.65h-.92a.7.7 0 0 0-.63.39l-1.42 2.84a.71.71 0 0 0 0 .69.7.7 0 0 0 .59.33h18.3a.7.7 0 0 0 .59-.33.71.71 0 0 0 0-.69l-1.42-2.82a.7.7 0 0 0-.63-.39h-.86v-7.67h2.5a.71.71 0 0 0 .7-.48.69.69 0 0 0-.29-.78M6.6 10.11h2.67v7.65H6.6zm4.07 7.65v-7.65h2.66v7.65zM20 20.59H4l.72-1.43h14.57zm-2.6-2.83h-2.67v-7.65h2.67zm-12.54-9L12 3.55l7.14 5.16z"/></svg>