<svg xmlns="http://www.w3.org/2000/svg" width="24" height="24" viewBox="0 0 24 24" fill="currentColor"><path d="M15.24 11.32V8.78c0-.71-.44-1.32-1.06-1.57V4.49c0-.21-.09-.4-.25-.54l-2.96-2.48a.73.73 0 0 0-.75-.1c-.25.11-.4.36-.4.63v5.2c-.62.25-1.06.86-1.06 1.57v2.54c-.38.31-.62.78-.62 1.3v8.38c0 .94.76 1.7 1.7 1.7h4.32c.94 0 1.7-.76 1.7-1.7v-8.38c0-.53-.25-.99-.62-1.3zm-4.02-7.81 1.55 1.3v2.27h-1.55zm-.76 4.97h3.07c.17 0 .3.13.3.3v2.14h-3.67V8.78c0-.17.13-.3.3-.3m4 12.53c0 .17-.13.3-.3.3H9.84c-.17 0-.3-.13-.3-.3v-8.38c0-.17.13-.3.3-.3h4.32c.17 0 .3.13.3.3z"/></svg>