<svg xmlns="http://www.w3.org/2000/svg" width="24" height="24" viewBox="0 0 24 24" fill="currentColor"><path d="M11.21 11.365c0-.39-.31-.7-.7-.7H3.92c-.39 0-.7.31-.7.7 0 .27.16.5.39.62l-.34.82c-.03.08-.05.17-.05.27v6.95q0 .21.12.39l.85 1.28c.13.2.35.31.58.31h4.89c.23 0 .45-.12.58-.31l.85-1.28a.7.7 0 0 0 .12-.39v-6.95c0-.1-.02-.2-.06-.29l-.35-.77c.24-.11.42-.35.42-.64zm-1.4 8.43-.52.79H5.14l-.52-.79v-6.6l.47-1.14h4.19l.52 1.15v6.58zm10.76-11.57-1.96-3.48v-2.05c0-.39-.31-.7-.7-.7h-2.48c-.39 0-.7.31-.7.7v2.03l-1.97 3.5c-.14.25-.21.53-.22.82v5.76s.01.05.02.08c.01.45.05.91.17 1.37.01.04.02.08.04.22 0 0 .03.13.03.14.02.15.04.3.04.45 0 .32-.05.64-.15.95-.1.3-.15.57-.15.83v.58c0 1.41 1.15 2.57 2.56 2.57.25 0 .52-.07.78-.2.5-.25 1.07-.25 1.57 0 .26.13.52.2.77.2 1.41 0 2.56-1.15 2.56-2.57v-.58c0-.26-.05-.53-.15-.83a3 3 0 0 1-.1-1.47l.03-.16s.02-.08.03-.13c.13-.46.16-.92.17-1.37 0-.03.01-.05.01-.07v-5.76c0-.29-.08-.57-.22-.82zm-4.43-4.83h1.08v.8h-1.08zm3.25 16.02c0 .64-.52 1.17-1.16 1.17-.02 0-.06 0-.14-.05a3.15 3.15 0 0 0-1.41-.34c-.49 0-.97.11-1.41.34-.08.04-.13.05-.15.05-.64 0-1.16-.52-1.16-1.17v-.58c0-.11.02-.23.08-.39.15-.44.22-.91.22-1.38 0-.22-.02-.44-.05-.66 0-.06-.02-.11-.03-.17l-.02-.11c-.02-.08-.03-.17-.05-.25-.03-.12-.04-.25-.06-.38h5.3c-.02.13-.03.26-.06.37-.02.08-.04.17-.05.25l-.02.11-.03.16c-.03.22-.05.44-.05.66 0 .47.07.94.22 1.38.05.16.08.28.08.39v.58zm0-7.65v2.34h-5.44v-2.56h5.44v.22m0-1.62h-5.44v-1.1s.01-.09.03-.13l1.87-3.31h1.64l1.87 3.31s.04.09.04.13v1.11z"/></svg>