<svg xmlns="http://www.w3.org/2000/svg" width="24" height="24" viewBox="0 0 24 24" fill="currentColor"><path d="M21.821 10.05a10.03 10.03 0 0 0-2.74-5.12 10.03 10.03 0 0 0-5.12-2.74c-1.94-.38-3.95-.19-5.78.57a10.04 10.04 0 0 0-4.49 3.68A10 10 0 0 0 2.001 12c0 1.31.26 2.61.76 3.83s1.24 2.32 2.17 3.24a9.98 9.98 0 0 0 7.07 2.93c1.98 0 3.91-.59 5.56-1.69a9.9 9.9 0 0 0 3.68-4.49c.75-1.83.95-3.84.57-5.78zm-1.37 3.63a8.57 8.57 0 0 1-2.35 4.4 8.6 8.6 0 0 1-4.4 2.35 8.598 8.598 0 0 1-8.83-3.66 8.56 8.56 0 0 1-1.45-4.78c0-2.28.91-4.47 2.52-6.08a8.57 8.57 0 0 1 6.07-2.51 8.61 8.61 0 0 1 7.95 5.31c.65 1.57.82 3.3.49 4.97"/><path d="M16.59 10c0-1.48-1.2-2.68-2.68-2.68h-1.22V6c0-.38-.3-.68-.68-.68s-.68.3-.68.68v1.32H8.36c-.38 0-.68.3-.68.68s.3.68.68.68h.82v2.64h-.82c-.38 0-.68.3-.68.68s.3.68.68.68h.82v2.64h-.82c-.38 0-.68.3-.68.68s.3.68.68.68h2.97V18c0 .38.3.68.68.68s.68-.3.68-.68v-1.32h1.22c1.48 0 2.68-1.2 2.68-2.68 0-.8-.36-1.51-.91-2 .56-.49.91-1.2.91-2m-1.36 4c0 .73-.59 1.32-1.32 1.32h-3.37v-2.64h3.37c.73 0 1.32.59 1.32 1.32m-4.69-2.68V8.68h3.37c.73 0 1.32.59 1.32 1.32s-.59 1.32-1.32 1.32z"/></svg>