<svg xmlns="http://www.w3.org/2000/svg" width="24" height="24" viewBox="0 0 24 24" fill="currentColor"><path d="M20.004 5.745s-.02-.07-.02-.11c0-.05-.01-.09-.03-.14s-.05-.09-.08-.14c-.02-.03-.03-.06-.05-.08-.18-.2-.4-.55-.4-1.03 0-.38.14-.74.4-1.03.13-.14.19-.33.18-.51v-.01c0-.39-.31-.7-.7-.7H6.194c-1.21.01-2.2 1.01-2.2 2.23v15.58c0 1.21.99 2.2 2.2 2.2h13.1c.39 0 .7-.31.7-.7V5.755zm-13.81-2.34h11.96c-.08.27-.14.56-.14.85 0 .27.05.54.13.8H6.194c-.44 0-.8-.37-.8-.82s.36-.82.8-.82zm6.8 3.04h2.6v4.16l-.99-.49c-.19-.1-.41-.1-.6-.01l-1.01.46v-4.12m-6.8 14.16a.8.8 0 0 1-.8-.79V6.295c.25.1.52.16.8.16h5.4v5.19a.7.7 0 0 0 .99.64l1.7-.76 1.7.85c.1.05.21.07.31.07.13 0 .26-.04.37-.1.21-.13.33-.35.33-.6v-5.29h1.6v14.16h-12.4z"/></svg>