<svg xmlns="http://www.w3.org/2000/svg" width="24" height="24" viewBox="0 0 24 24" fill="currentColor"><path fill-rule="evenodd" d="M21.292 1.992a.71.71 0 0 1 .656.977.7.7 0 0 1-.156.229l-1.5 1.51v7.8a.7.7 0 0 1-.21.49l-8.88 8.81a.72.72 0 0 1-.765.15.7.7 0 0 1-.225-.15l-8-8.05a.69.69 0 0 1 0-1l8.84-8.84a.7.7 0 0 1 .49-.2h7.75l1.5-1.52a.7.7 0 0 1 .5-.206m-10.55 18.346 8.14-8.14v-7h-7l-8.14 8.14zm6.194-11.226a1.73 1.73 0 0 1-.464.886 1.74 1.74 0 0 1-2.47 0 1.73 1.73 0 1 1 2.934-.886" clip-rule="evenodd"/></svg>