<svg xmlns="http://www.w3.org/2000/svg" width="24" height="24" viewBox="0 0 24 24" fill="currentColor"><path d="M7.037 3.51a10.3 10.3 0 0 1 5.297-1.48l.042-.03c1.856.004 3.675.509 5.26 1.46a10.06 10.06 0 0 1 3.727 3.94 9.88 9.88 0 0 1-.709 10.352 10.1 10.1 0 0 1-4.23 3.409c-1.7.733-3.572.993-5.411.75a10.2 10.2 0 0 1-5.021-2.124 10 10 0 0 1-3.174-4.385.72.72 0 0 1 .024-.553.73.73 0 0 1 .415-.375.74.74 0 0 1 .562.025.73.73 0 0 1 .38.408 8.56 8.56 0 0 0 3.668 4.442 8.76 8.76 0 0 0 5.691 1.155 8.7 8.7 0 0 0 5.15-2.651A8.48 8.48 0 0 0 21 12.588a8.45 8.45 0 0 0-1.601-5.506 8.66 8.66 0 0 0-4.772-3.27 8.77 8.77 0 0 0-5.793.442 8.6 8.6 0 0 0-4.206 3.952l1.192-.422a.73.73 0 0 1 .795.188.7.7 0 0 1 .146.244.71.71 0 0 1-.229.773.7.7 0 0 1-.252.135l-2.489.886a1 1 0 0 1-.355.062 1.046 1.046 0 0 1-1.004-.69l-.889-2.423a.72.72 0 0 1 .028-.552.74.74 0 0 1 .973-.353.73.73 0 0 1 .38.41l.376 1.03A10.1 10.1 0 0 1 7.037 3.51"/><path d="m13.034 12.33-4.622 4.587.02-.03a.75.75 0 0 1-1.045 0 .727.727 0 0 1 0-1.032l4.183-4.123V5.845c0-.191.077-.375.215-.51a.737.737 0 0 1 1.035 0 .72.72 0 0 1 .214.51z"/></svg>