<svg xmlns="http://www.w3.org/2000/svg" width="24" height="24" viewBox="0 0 24 24" fill="currentColor"><path d="M21.99 13.095a.8.8 0 0 0-.04-.213c0-.01 0-.02-.01-.04a1 1 0 0 0-.11-.183l-1.912-2.24a.7.7 0 0 0-.53-.243h-2.043V5.919c0-.071-.02-.142-.04-.213 0-.01 0-.02-.01-.04a1 1 0 0 0-.11-.183l-1.922-2.24a.7.7 0 0 0-.53-.243H9.257c-.2 0-.4.091-.53.243l-1.912 2.24a.6.6 0 0 0-.11.183c0 .01 0 .02-.01.03a.5.5 0 0 0-.04.213v4.257H4.613c-.2 0-.4.09-.53.243l-1.923 2.24a.6.6 0 0 0-.11.182c0 .01 0 .02-.01.03a.5.5 0 0 0-.04.213v7.217a.7.7 0 0 0 .7.709h18.6a.7.7 0 0 0 .7-.71v-7.215zm-2.222-.68h-2.423v-.82h1.712l.7.82zm-11.732-2.24V6.66h7.908v5.767H8.036v-2.25m7.077-4.935h-2.422v-.821h1.711l.701.82zm-5.535-.821h1.711v.82H8.867l.7-.82zm-4.655 7.186h1.712v.82H4.212l.7-.82zm-1.542 2.24h7.908v5.766H3.381zM20.6 19.61H12.69v-5.766h7.908z"/></svg>