<svg xmlns="http://www.w3.org/2000/svg" width="24" height="24" viewBox="0 0 24 24" fill="currentColor"><path fill-rule="evenodd" d="M17.284 4.23v1.54a3.67 3.67 0 0 1 3.72 3.6 3.66 3.66 0 0 1-3.71 3.6h-.11a5 5 0 0 1-4.88 4.06h-4.3a5 5 0 0 1-5-4.71.6.6 0 0 1 0-.2V4.23a.7.7 0 0 1 .7-.7h12.88a.7.7 0 0 1 .7.7m-9.28 11.4h4.29a3.66 3.66 0 0 0 3.59-3.71v-7H4.404v7a3.66 3.66 0 0 0 3.6 3.71m9.28-8.46v4.36a2.27 2.27 0 0 0 2.32-2.16 2.27 2.27 0 0 0-2.32-2.2m-13.58 11.9h13.3a.7.7 0 1 1 0 1.4h-13.3a.7.7 0 0 1 0-1.4" clip-rule="evenodd"/></svg>