<svg xmlns="http://www.w3.org/2000/svg" width="24" height="24" viewBox="0 0 24 24" fill="currentColor"><path fill-rule="evenodd" d="M18.3 2H5.7A1.7 1.7 0 0 0 4 3.7v16.6A1.7 1.7 0 0 0 5.7 22h12.6a1.7 1.7 0 0 0 1.7-1.7V3.7A1.7 1.7 0 0 0 18.3 2M5.7 3.4h12.6a.31.31 0 0 1 .3.3v3.79H5.4V3.7a.31.31 0 0 1 .3-.3m12.6 17.2H5.7a.31.31 0 0 1-.3-.3V8.89h13.2V20.3a.31.31 0 0 1-.3.3M9 11.06a.7.7 0 1 0 0 1.4.7.7 0 0 0 0-1.4m2.611.118a.7.7 0 1 1 .778 1.164.7.7 0 0 1-.778-1.164M15 11.06a.7.7 0 1 0 0 1.4.7.7 0 0 0 0-1.4m-5.34 3.68a.7.7 0 1 1-1.4 0 .7.7 0 0 1 1.4 0m2.37.7a.7.7 0 1 0 0-1.4.7.7 0 0 0 0 1.4m3.71-.7a.7.7 0 1 1-1.4 0 .7.7 0 0 1 1.4 0m-6.78 3.69a.7.7 0 1 0 0-1.4.7.7 0 0 0 0 1.4m3.77-.7a.7.7 0 1 1-1.4 0 .7.7 0 0 1 1.4 0m2.31.7a.7.7 0 1 0 0-1.4.7.7 0 0 0 0 1.4m.65-12.29h-1.61a.7.7 0 1 1 0-1.4h1.61a.7.7 0 0 1 0 1.4" clip-rule="evenodd"/></svg>