<svg xmlns="http://www.w3.org/2000/svg" width="24" height="24" viewBox="0 0 24 24" fill="currentColor"><path fill-rule="evenodd" d="M20.3 4.7h-3.44V3.2a.7.7 0 0 0-1.4 0v1.5H12.7V3.2a.7.7 0 1 0-1.4 0v1.5H8.54V3.2a.7.7 0 1 0-1.4 0v1.5H3.7a.7.7 0 0 0-.7.7v15.4a.7.7 0 0 0 .7.7h16.6a.7.7 0 0 0 .7-.7V5.4a.7.7 0 0 0-.7-.7M4.4 20.1v-14h2.74v2.2a.7.7 0 1 0 1.4 0V6.1h2.76v2.2a.7.7 0 1 0 1.4 0V6.1h2.76v2.2a.7.7 0 0 0 1.4 0V6.1h2.74v14zM12 11a.91.91 0 1 0 0 1.82.91.91 0 0 0 0-1.82m-.505 4.703a.91.91 0 1 1 1.01 1.514.91.91 0 0 1-1.01-1.514m4.665-2.883a.91.91 0 1 0 0-1.82.91.91 0 0 0 0 1.82m-1.364 4.551a1.64 1.64 0 1 1 2.728-1.822 1.64 1.64 0 0 1-2.728 1.822M7.84 11a.91.91 0 1 0 0 1.82.91.91 0 0 0 0-1.82m-.506 4.703a.91.91 0 1 1 1.012 1.514.91.91 0 0 1-1.012-1.514" clip-rule="evenodd"/></svg>