<svg xmlns="http://www.w3.org/2000/svg" width="24" height="24" viewBox="0 0 24 24" fill="currentColor"><path fill-rule="evenodd" d="M19.3 5h-2.57l-.8-1.61A.7.7 0 0 0 15.3 3H8.7a.7.7 0 0 0-.63.39L7.27 5H4.7A2.7 2.7 0 0 0 2 7.7v10.6A2.7 2.7 0 0 0 4.7 21h14.6a2.7 2.7 0 0 0 2.7-2.7V7.7A2.7 2.7 0 0 0 19.3 5m1.3 13.3a1.3 1.3 0 0 1-1.3 1.3H4.7a1.3 1.3 0 0 1-1.3-1.3V7.7a1.3 1.3 0 0 1 1.3-1.3h3a.7.7 0 0 0 .63-.4l.8-1.61h5.74l.8 1.61a.7.7 0 0 0 .63.39h3a1.3 1.3 0 0 1 1.3 1.3zM7.64 12.25q.1.015.2 0a.8.8 0 0 0 .26-.05l1.59-.6a.599.599 0 0 0-.18-1.177.6.6 0 0 0-.24.057 3.69 3.69 0 0 1 6.12 1.36.6.6 0 0 0 .76.37.61.61 0 0 0 .37-.77A4.89 4.89 0 0 0 8 10.26l-.15-.49a.6.6 0 0 0-.75-.4.59.59 0 0 0-.4.75l.52 1.7a.7.7 0 0 0 .42.43m8.878 1.68a.7.7 0 0 1 .152.25l.47 1.76a.59.59 0 0 1-.4.75.5.5 0 0 1-.17 0 .59.59 0 0 1-.57-.43l-.15-.49a4.89 4.89 0 0 1-8.57-1.25.6.6 0 1 1 1.13-.4 3.69 3.69 0 0 0 6.12 1.36.6.6 0 0 1-.42-1.12l1.59-.6a.7.7 0 0 1 .2 0h.38q.136.061.238.17" clip-rule="evenodd"/></svg>