<svg xmlns="http://www.w3.org/2000/svg" width="24" height="24" viewBox="0 0 24 24" fill="currentColor"><path d="M22.294 6.521c0-.552-.454-1.007-1.007-1.007H18.76a.67.67 0 0 1-.551-.288l-1.996-2.87H7.783l-1.97 2.832a.67.67 0 0 1-.438.312l-.135.014H2.713c-.553 0-1.008.455-1.008 1.007v12.125c0 .553.455 1.008 1.008 1.008h18.574c.553 0 1.007-.455 1.007-1.008zm-6.37 5.37a3.925 3.925 0 1 0-7.85-.001 3.925 3.925 0 0 0 7.85 0m1.345 0a5.269 5.269 0 1 1-10.538 0 5.269 5.269 0 0 1 10.538 0m6.369 6.756a2.356 2.356 0 0 1-2.35 2.35H2.712a2.356 2.356 0 0 1-2.352-2.35V6.52A2.357 2.357 0 0 1 2.713 4.17h2.172L6.88 1.3l.05-.064a.67.67 0 0 1 .502-.223h9.132l.081.005c.189.023.36.125.47.283L19.11 4.17h2.177a2.356 2.356 0 0 1 2.35 2.351z"/></svg>