<svg xmlns="http://www.w3.org/2000/svg" width="24" height="24" viewBox="0 0 24 24" fill="currentColor"><path fill-rule="evenodd" d="m19.14 4.92 1.39 4.38A1.76 1.76 0 0 1 22 11v5.27A1.78 1.78 0 0 1 20.7 18v1.3A1.7 1.7 0 0 1 19 21h-1a1.7 1.7 0 0 1-1.7-1.7V18H7.7v1.3A1.7 1.7 0 0 1 6 21H5a1.7 1.7 0 0 1-1.7-1.7V18A1.76 1.76 0 0 1 2 16.23V11a1.77 1.77 0 0 1 1.47-1.7l1.39-4.38A2.73 2.73 0 0 1 7.44 3h9.12a2.73 2.73 0 0 1 2.58 1.92M3.532 16.49a.3.3 0 0 0 .22.09l16.52-.04a.31.31 0 0 0 .31-.31V11a.31.31 0 0 0-.31-.31H3.75a.31.31 0 0 0-.31.31v5.27a.3.3 0 0 0 .09.22m3.15-11.8a1.3 1.3 0 0 0-.45.67L5 9.27h14l-1.23-3.91a1.29 1.29 0 0 0-1.21-.94H7.44a1.3 1.3 0 0 0-.76.27m-.468 14.822A.3.3 0 0 0 6.3 19.3V18H4.7v1.3a.3.3 0 0 0 .3.3h1a.3.3 0 0 0 .212-.088M18 19.6h1a.3.3 0 0 0 .3-.3V18h-1.6v1.3a.3.3 0 0 0 .3.3M7.5 15a1.5 1.5 0 1 0 0-3 1.5 1.5 0 0 0 0 3m9 0a1.5 1.5 0 1 0 0-3 1.5 1.5 0 0 0 0 3" clip-rule="evenodd"/></svg>