<svg xmlns="http://www.w3.org/2000/svg" width="24" height="24" viewBox="0 0 24 24" fill="currentColor"><path fill-rule="evenodd" d="M2.722 2.5a.722.722 0 0 0 0 1.446h2.513l1.861 10.633.001.005.45 2.57a2.271 2.271 0 0 0 .921 4.346 2.27 2.27 0 0 0 2.113-3.095h5.666A2.269 2.269 0 0 0 18.36 21.5a2.27 2.27 0 0 0 2.268-2.27 2.27 2.27 0 0 0-2.344-2.27H8.978l-.312-1.783h10.565c.327 0 .613-.22.697-.538l2.047-7.728a.723.723 0 0 0-.697-.908H7.061l-.493-2.814a.72.72 0 0 0-.72-.689zm4.592 4.948 1.1 6.283h10.262l1.664-6.283z" clip-rule="evenodd"/></svg>