<svg xmlns="http://www.w3.org/2000/svg" width="24" height="24" viewBox="0 0 24 24" fill="currentColor"><path d="M11.655 8.565c.09.13.13.29.12.45a.77.77 0 0 1-.23.55.803.803 0 0 1-.56.23c-.16 0-.31-.05-.45-.14a.85.85 0 0 1-.29-.36.84.84 0 0 1-.04-.47c.03-.16.11-.3.22-.41s.26-.19.42-.21c.16-.03.32 0 .46.05.15.06.27.17.35.3zm-3.44-.3a.8.8 0 0 0-.46-.05q-.24.045-.42.21c-.11.11-.19.25-.22.41s-.02.32.04.47.16.27.29.36a.8.8 0 0 0 .75.08.9.9 0 0 0 .26-.17c.07-.07.13-.16.17-.25q.06-.15.06-.3c0-.16-.04-.32-.12-.45a.84.84 0 0 0-.35-.3zm6.64.75c0-.16-.04-.32-.12-.45a.84.84 0 0 0-.35-.3.8.8 0 0 0-.46-.05q-.24.045-.42.21c-.11.11-.19.25-.22.41s-.02.32.04.47.16.27.29.36a.8.8 0 0 0 .75.08.9.9 0 0 0 .26-.17c.07-.07.13-.16.17-.25q.06-.15.06-.3zm6.92 12.59c.03.14.02.29-.03.43s-.15.25-.27.34c-.12.08-.26.13-.41.13s-.3-.04-.42-.13c-.01 0-1-.68-1.63-1.05-.44-.25-.86-.54-1.27-.85-.55.12-1.11.19-1.67.19-3.02 0-5.47-1.73-5.93-4.07-.69-.05-1.37-.17-2.03-.35-.32.41-.68.8-1.05 1.16-.62.68-1.37 1.23-2.2 1.63-.09.01-.18.01-.26 0q-.15 0-.3-.06a.9.9 0 0 1-.25-.17.74.74 0 0 1-.11-.82c.3-.66.56-1.34.79-2.03.14-.41.21-.84.22-1.27a7.08 7.08 0 0 1-2.94-5.6c-.02-4.19 4.03-7.59 8.99-7.59s9.01 3.38 9.01 7.58c0 .96-.22 1.91-.63 2.77a4.58 4.58 0 0 1 2.6 3.99c0 1.01-.38 1.99-1.05 2.74.07.28.17.71.27 1.05.28.77.56 1.96.56 1.96zm-6.99-7.26a7.77 7.77 0 0 0 2.96-2.55c.52-.81.8-1.76.8-2.72 0-3.38-3.38-6.11-7.54-6.11s-7.53 2.73-7.53 6.11a5.69 5.69 0 0 0 2.61 4.63c.16.12.27.29.31.48.07.68 0 1.36-.21 2.01.35-.38.67-.78.96-1.21.09-.14.22-.26.38-.31a.7.7 0 0 1 .49 0c.9.3 1.84.46 2.79.47h.15c1.32.06 2.64-.22 3.83-.81zm5.81 1.53c-.03-.59-.23-1.15-.57-1.63s-.81-.86-1.35-1.09c-.05.07-.12.14-.17.2l-.27.33c-.14.16-.29.31-.44.45-.09.1-.2.2-.31.28-.17.15-.36.29-.54.43l-.31.22c-.24.16-.49.29-.74.43-.06.04-.13.08-.2.12-.34.17-.69.32-1.05.44l-.31.09c-.25.08-.51.17-.77.23l-.42.09-.71.12-.46.05h-.36c.62 1.84 3.35 3.1 6.05 2.3a.75.75 0 0 1 .78.23c.37.34.78.64 1.22.87l.13.07v-.06c-.14-.5-.25-1.01-.34-1.52a.672.672 0 0 1 .2-.66c.28-.26.5-.56.66-.91.16-.34.25-.71.26-1.09z"/></svg>