<svg xmlns="http://www.w3.org/2000/svg" width="24" height="24" viewBox="0 0 24 24" fill="currentColor"><path fill-rule="evenodd" d="M20.555 18.556c.056.232.12.497.19.719.27.73.53 1.87.53 1.87a.7.7 0 0 1-1.08.73c-.003 0-.07-.045-.178-.117-.303-.204-.93-.625-1.372-.883q-.63-.362-1.2-.81a7.2 7.2 0 0 1-1.58.18c-2.86 0-5.19-1.65-5.62-3.87-.652-.05-1.298-.16-1.93-.33q-.462.585-1 1.1a6.8 6.8 0 0 1-2.09 1.55.8.8 0 0 1-.25 0 .73.73 0 0 1-.52-.22.7.7 0 0 1-.11-.78q.423-.945.75-1.93a4 4 0 0 0 .21-1.21 6.73 6.73 0 0 1-2.79-5.33c0-3.98 3.84-7.22 8.55-7.22s8.55 3.22 8.55 7.22a6.25 6.25 0 0 1-.6 2.64 4.37 4.37 0 0 1 2.47 3.8 3.92 3.92 0 0 1-1 2.61zM7.757 14.558a.7.7 0 0 1 .468-.003 8.6 8.6 0 0 0 2.65.45h.14a7.45 7.45 0 0 0 6.44-3.19 4.9 4.9 0 0 0 .76-2.59c0-3.22-3.21-5.82-7.15-5.82s-7.15 2.6-7.15 5.82a5.42 5.42 0 0 0 2.48 4.41.74.74 0 0 1 .29.46 4.65 4.65 0 0 1-.2 1.91 9.6 9.6 0 0 0 .91-1.15.7.7 0 0 1 .362-.297m11.648 5.177v-.06a14 14 0 0 1-.32-1.45.67.67 0 0 1 .19-.63 2.73 2.73 0 0 0 .88-1.9 3 3 0 0 0-1.82-2.59q-.051.068-.105.127-.03.032-.055.063l-.26.31q-.199.226-.42.43-.134.147-.29.27c-.16.14-.34.28-.51.41l-.29.21c-.23.15-.46.28-.7.41q-.09.064-.19.11a8 8 0 0 1-1 .42l-.29.09c-.24.08-.48.16-.73.22l-.4.09-.67.11-.44.05h-.34c.59 1.75 3.18 2.95 5.74 2.19a.71.71 0 0 1 .74.22c.348.327.738.606 1.16.83zm-8.33-13.25a.93.93 0 0 1 .67.24.82.82 0 0 1 .24.61q0 .228-.09.44a3 3 0 0 1-.31.48l-.91 1.23a1.5 1.5 0 0 0-.24.42 1.9 1.9 0 0 0-.07.54v.46a.11.11 0 0 0 .072.114.1.1 0 0 0 .048.006h1.08a.11.11 0 0 0 .114-.072.1.1 0 0 0 .006-.048v-.32a1.4 1.4 0 0 1 .05-.41q.065-.17.18-.31l.92-1.22a2.1 2.1 0 0 0 .48-1.33 1.9 1.9 0 0 0-.62-1.41 2.3 2.3 0 0 0-.68-.41 2.5 2.5 0 0 0-.88-.15 2.37 2.37 0 0 0-1.56.5 2.1 2.1 0 0 0-.74 1.34c0 .08 0 .13.09.13l1 .16q.11 0 .12-.09a1.26 1.26 0 0 1 .34-.67.92.92 0 0 1 .69-.23m.74 5.78a.75.75 0 1 0-.75.73.74.74 0 0 0 .75-.73" clip-rule="evenodd"/></svg>