<svg xmlns="http://www.w3.org/2000/svg" width="24" height="24" viewBox="0 0 24 24" fill="currentColor"><path fill-rule="evenodd" d="M14.516 6.43c1.64-.04 3.23.55 4.47 1.68a6.37 6.37 0 0 1 2.08 4.31c.11 1.58-.36 3.12-1.33 4.37l2.939 2.94c.08.07.14.16.18.26l.01.01c.04.1.06.21.06.31 0 .11-.03.21-.07.31-.05.1-.11.19-.19.26-.06.07-.15.13-.25.17a.82.82 0 0 1-.62 0 .55.55 0 0 1-.203-.114l-2.996-2.996a6.44 6.44 0 0 1-4.37 1.33 6.42 6.42 0 0 1-4.311-2.08 6.4 6.4 0 0 1-1.68-4.48c.04-1.66.71-3.23 1.88-4.4a6.45 6.45 0 0 1 4.4-1.88m.17 1.62c-.95 0-1.88.28-2.67.81s-1.41 1.28-1.77 2.16c-.37.88-.471 1.84-.281 2.78s.65 1.79 1.32 2.46l.03.03q.66.66 1.53 1.02c1.18.49 2.52.48 3.69 0h-.02q.885-.375 1.56-1.05c.68-.67 1.14-1.53 1.32-2.46.19-.93.1-1.9-.27-2.78-.36-.88-.98-1.63-1.77-2.16s-1.72-.81-2.67-.81" clip-rule="evenodd"/><path d="M3.785 13.79c.33 0 .6.27.6.6v1c0 .33-.27.6-.6.6s-.6-.27-.6-.6v-1c0-.33.27-.6.6-.6M2.675 12.68c.33 0 .6.27.6.6s-.27.6-.6.6h-1c-.33 0-.6-.27-.6-.6s.27-.6.6-.6zM5.896 12.68c.33 0 .6.27.6.6-.001.33-.27.6-.6.6h-1a.601.601 0 0 1 0-1.2zM3.785 10.57c.33 0 .6.27.6.6v1c0 .33-.27.6-.6.6s-.6-.27-.6-.6v-1c0-.33.27-.6.6-.6M6.065 6.8c.44 0 .8.36.8.8v1.6c0 .44-.36.8-.8.8s-.8-.36-.8-.8V7.6c0-.44.36-.8.8-.8M4.466 5.2c.44 0 .8.36.8.8s-.36.8-.8.8h-1.6c-.44 0-.8-.36-.8-.8s.36-.8.8-.8zM9.266 5.2c.44 0 .8.36.8.8s-.36.8-.8.8H7.665c-.44 0-.8-.36-.8-.8s.36-.8.8-.8zM6.065 2c.44 0 .8.36.8.8v1.6c0 .44-.36.8-.8.8s-.8-.36-.8-.8V2.8c0-.44.36-.8.8-.8"/></svg>