<svg xmlns="http://www.w3.org/2000/svg" width="24" height="24" viewBox="0 0 24 24" fill="currentColor"><path fill-rule="evenodd" d="M19.8 7.885a.7.7 0 0 0 1.195-.495v-3.7a.7.7 0 0 0-.7-.7h-3.7a.7.7 0 0 0 0 1.4h3v3a.7.7 0 0 0 .205.495M3.695 8.09a.7.7 0 0 1-.7-.7V3.7a.7.7 0 0 1 .7-.7h3.69a.7.7 0 1 1 0 1.4h-3v3a.7.7 0 0 1-.69.69m2.72-.24h1.4v8.3h-1.4zm3.25 0h1.4v8.3h-1.4zm4.66 0h-1.4v8.3h1.4zm1.85 0h1.4v8.3h-1.4zm.43 13.15h3.69a.7.7 0 0 0 .71-.7v-3.7a.7.7 0 1 0-1.4 0v3h-3a.7.7 0 1 0 0 1.4m-9.22 0h-3.69a.7.7 0 0 1-.7-.7v-3.69a.7.7 0 0 1 1.4 0v3h3a.7.7 0 0 1 0 1.4z" clip-rule="evenodd"/></svg>