<svg xmlns="http://www.w3.org/2000/svg" width="24" height="24" viewBox="0 0 24 24" fill="currentColor"><path fill-rule="evenodd" d="M3.4 11.97a8.6 8.6 0 1 1 17.2 0 8.5 8.5 0 0 1-.31 2.26l1.11 1.11c.394-1.08.597-2.22.6-3.37a10 10 0 1 0-5.58 9v-1.6a8.5 8.5 0 0 1-4.42 1.2 8.61 8.61 0 0 1-8.6-8.6m12.6.39a.68.68 0 0 0 .67-.68.67.67 0 0 0-.67-.71h-2.74l2.79-4.18a.66.66 0 0 0-.18-.93.68.68 0 0 0-.94.18L12 10.47 9.07 6.08a.68.68 0 0 0-.94-.18.66.66 0 0 0-.13.93l2.74 4.14H8a.67.67 0 0 0-.67.67.68.68 0 0 0 .67.68h3.33v1.36H8a.695.695 0 0 0 0 1.39h3.33v2.41a.67.67 0 0 0 1.34 0v-2.41H16a.68.68 0 0 0 0-1.35h-3.33v-1.36zm3.95 2.97 1.05 1 .76.8a.69.69 0 0 1 0 1 .71.71 0 0 1-1 0l-.54-.55-1-1-.43-.43v5.12a.7.7 0 1 1-1.4 0v-5.08l-2 2a.74.74 0 0 1-.5.2.7.7 0 0 1-.49-.2.69.69 0 0 1 0-1l2.85-2.86a1.3 1.3 0 0 1 .31-.2l.25-.08a.64.64 0 0 1 .58 0q.13.024.25.08.17.077.31.2z" clip-rule="evenodd"/></svg>