<svg xmlns="http://www.w3.org/2000/svg" width="24" height="24" viewBox="0 0 24 24" fill="currentColor"><path fill-rule="evenodd" d="M14.88 3.768a7.9 7.9 0 0 1 2.3 3.052A7.9 7.9 0 1 1 6.82 17.18a7.9 7.9 0 1 1 8.06-13.412M4.31 13.252a6.5 6.5 0 0 0 1.99 2.058 6.9 6.9 0 0 0 1.6.79 6.51 6.51 0 0 0 8.18-8.18 6.9 6.9 0 0 0-.78-1.61 6.5 6.5 0 0 0-10.99 6.942m6.72 6.577A6.5 6.5 0 0 0 17.7 8.69q.096.601.1 1.21a7.9 7.9 0 0 1-7.9 7.9 8 8 0 0 1-1.21-.1 6.5 6.5 0 0 0 2.341 2.129m-.45-7.38v1.72a.68.68 0 0 1-1.155.465.67.67 0 0 1-.196-.474v-1.72H6.8a.6.6 0 0 1-.39-.14.64.64 0 0 1-.28-.53.67.67 0 0 1 .66-.67h2.44v-.75H6.8A.68.68 0 0 1 6.8 9h1.84l-.24-.35L6.63 6a.68.68 0 1 1 1.13-.74l1.66 2.49.48.71L11 6.84l1-1.58a.692.692 0 0 1 1.17.74l-.17.29L11.82 8l-.66 1H13a.68.68 0 0 1 0 1.35h-2.42v.75H13a.68.68 0 0 1 .67.68.67.67 0 0 1-.67.67z" clip-rule="evenodd"/></svg>