<svg xmlns="http://www.w3.org/2000/svg" width="24" height="24" viewBox="0 0 24 24" fill="currentColor"><path fill-rule="evenodd" d="M6.444 3.685a10 10 0 1 1 11.112 16.63A10 10 0 0 1 6.444 3.685m.778 15.466A8.6 8.6 0 0 0 12 20.6a8.61 8.61 0 0 0 8.6-8.6 8.6 8.6 0 1 0-13.378 7.15m9.252-6.964a.68.68 0 0 1-.474.203h-3.33v1.36H16a.68.68 0 0 1 0 1.35h-3.33v2.41a.67.67 0 1 1-1.34 0V15.1H8a.695.695 0 1 1 0-1.39h3.33v-1.36H8a.68.68 0 0 1-.67-.68A.67.67 0 0 1 8 11h2.74L8 6.86a.66.66 0 0 1 .13-.93.68.68 0 0 1 .94.18L12 10.5l2.93-4.43a.68.68 0 0 1 1.227.247.66.66 0 0 1-.107.503L13.26 11H16a.67.67 0 0 1 .67.71.68.68 0 0 1-.196.477" clip-rule="evenodd"/></svg>