<svg xmlns="http://www.w3.org/2000/svg" width="24" height="24" viewBox="0 0 24 24" fill="currentColor"><path fill-rule="evenodd" d="M12 2a10 10 0 1 0 0 20 10 10 0 0 0 0-20m0 18.59a8.6 8.6 0 1 1 0-17.199 8.6 8.6 0 0 1 0 17.199m6-7.28h-.81v-1.8a.7.7 0 0 0-1.4 0v1.8h-1.96l2.3-5.4a.701.701 0 0 0-1.29-.55l-2.71 6.37a.13.13 0 0 0 0 .06.6.6 0 0 0 0 .22.7.7 0 0 0 .06.25c0 .05 0 .08.07.12q.031.057.07.11l.18.12h.05c.084.04.177.06.27.06h3V16a.7.7 0 1 0 1.4 0v-1.29H18a.7.7 0 0 0 0-1.4m-6-3.53a2.8 2.8 0 0 1-.62 1.75l.05-.12-3 3.79h2.81a.7.7 0 0 1 0 1.4H6.97a.5.5 0 0 1-.24 0h-.09l-.09-.05-.1-.12a1 1 0 0 1-.07-.1.6.6 0 0 1 0-.12v-.41a.5.5 0 0 1 .07-.13v-.07l3.85-4.94a1.44 1.44 0 1 0-2.58-.88.7.7 0 0 1-1.4 0 2.84 2.84 0 0 1 5.68 0" clip-rule="evenodd"/></svg>