<svg xmlns="http://www.w3.org/2000/svg" width="24" height="24" viewBox="0 0 24 24" fill="currentColor"><path fill-rule="evenodd" d="M8.884 2.3c-.769 0-1.392.623-1.392 1.392v2.07H5.423c-.769 0-1.392.623-1.392 1.392v13.154c0 .769.623 1.392 1.392 1.392h9.693c.769 0 1.392-.623 1.392-1.392v-2.07h2.069c.769 0 1.392-.623 1.392-1.392V8.54a.7.7 0 0 0-.205-.495l-5.538-5.539a.7.7 0 0 0-.496-.205zm1.386 3.461H8.892V3.7h4.139v4.533l-2.267-2.267a.7.7 0 0 0-.494-.205m6.033 5.744-2.266-2.266h4.532v7.6h-2.061v-4.84a.7.7 0 0 0-.205-.494m1.276-3.666L14.431 4.69V7.84zM5.431 7.16V20.3h9.677v-7.6H10.27a.7.7 0 0 1-.7-.7V7.161zm5.54.991V11.3h3.147z" clip-rule="evenodd"/></svg>