<svg xmlns="http://www.w3.org/2000/svg" width="24" height="24" viewBox="0 0 24 24" fill="currentColor"><path d="m21.799 9.245-2.06-2.06a.706.706 0 0 0-.99 0c-.52.52-1.39.51-1.92-.03-.54-.54-.55-1.4-.03-1.92.27-.27.27-.72 0-.99l-2.06-2.05a.7.7 0 0 0-.5-.21c-.19 0-.36.07-.5.21l-11.54 11.55c-.13.13-.21.31-.21.5s.07.36.21.5l2.06 2.06c.27.27.72.27.99 0 .25-.25.58-.38.94-.38h.01c.37 0 .71.15.97.41.54.54.55 1.4.03 1.92-.27.27-.27.72 0 .99l2.06 2.06c.14.14.32.21.5.21s.36-.07.5-.21l11.55-11.55c.27-.27.27-.72 0-.99zm-4.31 3.32-.12-.12a.6.6 0 0 0-.85 0 .61.61 0 0 0 0 .85l.12.12-6.89 6.89-1.13-1.13c.61-1.05.45-2.43-.46-3.34-.52-.52-1.22-.81-1.95-.82-.54 0-.98.12-1.39.36l-1.13-1.13 6.84-6.84.15.15c.12.12.27.17.42.17s.31-.06.43-.18a.61.61 0 0 0 0-.85l-.14-.14 2.87-2.87 1.13 1.13c-.61 1.05-.45 2.43.46 3.34s2.29 1.06 3.34.46l1.13 1.13-2.82 2.82zm-3.78-3.72c.24.23.24.61 0 .85a.607.607 0 0 1-.85.01l-.73-.72a.59.59 0 0 1 0-.85c.23-.24.61-.24.85 0l.73.72zm2.19 2.16c.24.23.24.61 0 .85a.607.607 0 0 1-.85.01l-.73-.72a.59.59 0 0 1 0-.85c.23-.24.61-.24.85 0l.73.72z"/></svg>