<svg xmlns="http://www.w3.org/2000/svg" width="24" height="24" viewBox="0 0 24 24" fill="currentColor"><path fill-rule="evenodd" d="M12 2a7.67 7.67 0 0 1 7.669 7.652A3.01 3.01 0 0 1 22 12.584v1.164a3.01 3.01 0 0 1-2.362 2.938 5.923 5.923 0 0 1-5.89 5.315H12a.68.68 0 0 1 0-1.36h1.748a4.56 4.56 0 0 0 4.524-3.973 3.01 3.01 0 0 1-2.291-2.92v-1.164a3.01 3.01 0 0 1 2.329-2.93 6.31 6.31 0 0 0-12.62 0 3.01 3.01 0 0 1 2.33 2.93v1.164a3.01 3.01 0 0 1-6.02 0v-1.164a3.01 3.01 0 0 1 2.33-2.93A7.67 7.67 0 0 1 12 2m-6.99 8.933c-.912 0-1.65.74-1.65 1.651v1.164a1.65 1.65 0 0 0 3.3 0v-1.164c0-.911-.739-1.651-1.65-1.651m13.981 0c-.911 0-1.651.74-1.651 1.651v1.164a1.651 1.651 0 0 0 3.3 0v-1.164c0-.911-.738-1.651-1.649-1.651" clip-rule="evenodd"/></svg>