<svg xmlns="http://www.w3.org/2000/svg" width="24" height="24" viewBox="0 0 24 24" fill="currentColor"><path fill-rule="evenodd" d="M17.404 1.932a4.56 4.56 0 0 1 2.463.97 4.56 4.56 0 0 1 .76 6.48 4.5 4.5 0 0 1-3.05 1.71q-.27.022-.54 0a5 5 0 0 1-.87-.09l-1.47 1.8 3.37 4.13a3.65 3.65 0 0 1 .78 2.63 3.43 3.43 0 0 1-1.3 2.37.69.69 0 0 1-1-.11l-4.56-5.66-4.53 5.66a.69.69 0 0 1-1 .11 3.43 3.43 0 0 1-1.3-2.37 3.65 3.65 0 0 1 .77-2.62l3.35-4.14-1.48-1.8a5 5 0 0 1-.86 0q-.27.023-.54 0a4.5 4.5 0 0 1-3.05-1.69 4.57 4.57 0 1 1 8.12-2.31 4.7 4.7 0 0 1-.38 1.35l.9 1.11.9-1.15a4.5 4.5 0 0 1-.38-1.31 4.56 4.56 0 0 1 4.897-5.07m-9.107 7.41.89 1.12 1.01 1.21.91-1.12-.81-1-.89-1.1a2.7 2.7 0 0 0 .37-.58c.163-.312.271-.65.32-1a3.17 3.17 0 1 0-3.52 2.77q.204.015.41 0a3.1 3.1 0 0 0 1.31-.3m9.17 10.08a2.24 2.24 0 0 0-.48-1.61l-3.19-3.89-.91 1.13 4.28 5.26c.16-.273.262-.576.3-.89M18.63 9.253a3.1 3.1 0 0 0 .937-.8h-.04a3.16 3.16 0 0 0-.54-4.45 3.1 3.1 0 0 0-1.9-.68 3.16 3.16 0 0 0-3.15 3.54c.05.09.05.17.05.26.095.487.297.948.59 1.35l-.89 1.1-.8 1-.9 1.11-.94 1.12-.9 1.12-3.16 3.89a2.19 2.19 0 0 0-.14 2.5l4.24-5.26.9-1.12.94-1.15.9-1.11 1-1.24.89-1.11c.37.176.77.282 1.18.31q.28.028.56 0a3.1 3.1 0 0 0 1.173-.38m-.293-4.41a2.1 2.1 0 1 0-2.59 3.299c.353.282.788.44 1.24.45h.26a2 2 0 0 0 1.4-.79 2 2 0 0 0 .44-1.54 2.08 2.08 0 0 0-.75-1.42m-.75 2.079a.66.66 0 0 1-.46.26.69.69 0 0 1-.78-.61.7.7 0 0 1 .14-.52.68.68 0 0 1 .5-.26h.09a.68.68 0 0 1 .43.15.66.66 0 0 1 .26.46.7.7 0 0 1-.18.52m-10.41-2.52a2.06 2.06 0 0 0-1.54.44 2.09 2.09 0 0 0-.36 2.94 2 2 0 0 0 1.41.79h.26a2.11 2.11 0 0 0 2.04-1.84 2 2 0 0 0-.4-1.54 2.07 2.07 0 0 0-1.41-.79m.19 2.6a.7.7 0 0 1-.52.14.7.7 0 0 1-.47-.26.74.74 0 0 1-.14-.52.66.66 0 0 1 .26-.46.68.68 0 0 1 .43-.15h.06a.68.68 0 0 1 .592.506.7.7 0 0 1 .018.274.68.68 0 0 1-.23.47" clip-rule="evenodd"/></svg>