<svg xmlns="http://www.w3.org/2000/svg" width="24" height="24" viewBox="0 0 24 24" fill="currentColor"><path fill-rule="evenodd" d="M16.217 12.96c-1.429 0-2.587 1.138-2.587 2.54s1.158 2.54 2.587 2.54 2.587-1.137 2.587-2.54c0-1.402-1.158-2.54-2.587-2.54m-4.083 2.54c0-2.214 1.828-4.009 4.083-4.009s4.083 1.795 4.083 4.01-1.828 4.009-4.083 4.009-4.083-1.795-4.083-4.01" clip-rule="evenodd"/><path fill-rule="evenodd" d="M18.04 17.3a.76.76 0 0 1 1.058 0l2.49 2.446a.725.725 0 0 1 0 1.039.76.76 0 0 1-1.058 0l-2.49-2.446a.725.725 0 0 1 0-1.039M12.941 6.61a.75.75 0 0 1 .613.293l1.989 2.593a.726.726 0 0 1-.148 1.029c-.33.244-.8.179-1.048-.145L12.983 8.6 9.66 13.326a.75.75 0 0 1-.657.317.75.75 0 0 1-.617-.385l-1.189-2.162-3.851 5.016a.757.757 0 0 1-1.048.144.726.726 0 0 1-.147-1.03l4.554-5.93a.754.754 0 0 1 1.255.094l1.163 2.115 3.218-4.576a.75.75 0 0 1 .6-.317M21.651 3.113c.35.217.454.67.233 1.014l-3.912 6.087a.756.756 0 0 1-1.032.23.727.727 0 0 1-.234-1.014l3.913-6.087a.757.757 0 0 1 1.032-.23" clip-rule="evenodd"/></svg>