<svg xmlns="http://www.w3.org/2000/svg" width="24" height="24" viewBox="0 0 24 24" fill="currentColor"><path d="M16.392 7.61a.69.69 0 0 0-1 0L12.002 11l-3.5-3.49a.707.707 0 0 0-1 1l3.5 3.49-3.5 3.5a.71.71 0 0 0 0 1 .74.74 0 0 0 .5.2.7.7 0 0 0 .49-.2l3.51-3.5 3.4 3.4a.7.7 0 0 0 .767.156.7.7 0 0 0 .223-.156.69.69 0 0 0 0-1l-3.39-3.4 3.4-3.4a.69.69 0 0 0-.01-.99"/><path d="M19.072 4.93A10 10 0 1 0 4.928 19.07 10 10 0 0 0 19.072 4.93m-1 13.15a8.6 8.6 0 1 1 2.519-6.082 8.6 8.6 0 0 1-2.509 6.082z"/></svg>