<svg xmlns="http://www.w3.org/2000/svg" width="24" height="24" viewBox="0 0 24 24" fill="currentColor"><path d="M21.62 12.1a.7.7 0 0 0-.7-.67H15V7a.7.7 0 0 0-.7-.7h-2.41V4.14A1.85 1.85 0 0 0 10 2.3H6.92a1.85 1.85 0 0 0-1.86 1.84v2.17H2.7A.7.7 0 0 0 2 7v14a.7.7 0 0 0 .7.7h18.6a.72.72 0 0 0 .51-.22A.68.68 0 0 0 22 21zm-15.16-8a.45.45 0 0 1 .46-.44H10a.45.45 0 0 1 .45.44v2.21h-4zm3 8-.35 8.2H3.4V7.71h10.15v3.72h-3.42a.69.69 0 0 0-.7.67zm1.02 8.2.32-7.47h9.45l.32 7.47z"/><path d="M18.08 14.2a.7.7 0 0 0-.7.7v.64a1.84 1.84 0 0 1-2.43 1.72 1.82 1.82 0 0 1-1.28-1.72v-.64a.7.7 0 0 0-.12-.37.67.67 0 0 0-.55-.33.7.7 0 0 0-.7.7v.64A3.27 3.27 0 0 0 15 18.7q.281.06.57.06a3.25 3.25 0 0 0 3.26-3.22v-.64a.7.7 0 0 0-.75-.7"/><path d="M21.62 12.1a.7.7 0 0 0-.7-.67H15V7a.7.7 0 0 0-.7-.7h-2.41V4.14A1.85 1.85 0 0 0 10 2.3H6.92a1.85 1.85 0 0 0-1.86 1.84v2.17H2.7A.7.7 0 0 0 2 7v14a.7.7 0 0 0 .7.7h18.6a.72.72 0 0 0 .51-.22A.68.68 0 0 0 22 21zm-15.16-8a.45.45 0 0 1 .46-.44H10a.45.45 0 0 1 .45.44v2.21h-4zm3 8-.35 8.2H3.4V7.71h10.15v3.72h-3.42a.69.69 0 0 0-.7.67zm1.02 8.2.32-7.47h9.45l.32 7.47z"/><path d="M18.08 14.2a.7.7 0 0 0-.7.7v.64a1.84 1.84 0 0 1-2.43 1.72 1.82 1.82 0 0 1-1.28-1.72v-.64a.7.7 0 0 0-.12-.37.67.67 0 0 0-.55-.33.7.7 0 0 0-.7.7v.64A3.27 3.27 0 0 0 15 18.7q.281.06.57.06a3.25 3.25 0 0 0 3.26-3.22v-.64a.7.7 0 0 0-.75-.7"/></svg>