<svg xmlns="http://www.w3.org/2000/svg" width="24" height="24" viewBox="0 0 24 24" fill="currentColor"><path fill-rule="evenodd" d="M8.7 21H2.2c-.4 0-.7-.3-.7-.7v-18c0-.5.3-.8.7-.8h14c.4 0 .7.3.7.7v5.6c0 .4-.3.7-.7.7s-.7-.3-.7-.7V3H3v16.5h5.8c.4 0 .7.3.7.7s-.4.8-.8.8m-.9-5.8H6c-.4 0-.7-.3-.7-.7s.3-.7.7-.7h1.8c.4 0 .7.3.7.7s-.3.7-.7.7M6 11.9h3.8c.3 0 .7-.3.7-.7s-.3-.7-.7-.7H6c-.4 0-.7.3-.7.7s.3.7.7.7m6.5-3.2H6c-.4 0-.7-.3-.7-.7s.3-.7.7-.7h6.5c.4 0 .7.3.7.7s-.4.7-.7.7m10 7.8a6 6 0 1 1-12 0 6 6 0 0 1 12 0m-3.948-.274-1.549 1.438V14.03a.523.523 0 0 0-.542-.53.523.523 0 0 0-.542.53v3.634l-1.548-1.438s-.155-.152-.31-.152a.6.6 0 0 0-.387.152c-.232.227-.232.53 0 .757l2.478 2.347a.525.525 0 0 0 .774 0l2.4-2.347c.232-.227.232-.53 0-.757a.525.525 0 0 0-.774 0" clip-rule="evenodd"/></svg>