<svg xmlns="http://www.w3.org/2000/svg" width="24" height="24" viewBox="0 0 24 24" fill="currentColor"><path d="M12 2C6.49 2 2 6.49 2 12s4.49 10 10 10 10-4.49 10-10S17.51 2 12 2m0 18.6c-4.74 0-8.6-3.86-8.6-8.6S7.26 3.4 12 3.4s8.6 3.86 8.6 8.6-3.86 8.6-8.6 8.6M8.1 9.98c0-.5.4-.9.9-.9s.9.4.9.9-.4.9-.9.9-.9-.4-.9-.9m7.53 6.33c-.12.25-.37.39-.63.39-.1 0-.21-.02-.31-.07L12 15.29l-2.69 1.34c-.35.17-.77.03-.94-.31a.705.705 0 0 1 .31-.94l3-1.5c.2-.1.43-.1.63 0l3 1.5c.35.17.49.59.31.94zm.27-6.33c0 .5-.4.9-.9.9s-.9-.4-.9-.9.4-.9.9-.9.9.4.9.9"/></svg>