<svg xmlns="http://www.w3.org/2000/svg" width="24" height="24" viewBox="0 0 24 24" fill="currentColor"><path fill-rule="evenodd" d="M7 4.2h10A2.8 2.8 0 0 1 19.8 7v10a2.8 2.8 0 0 1-2.8 2.8H7A2.8 2.8 0 0 1 4.2 17V7A2.8 2.8 0 0 1 7 4.2M3 7a4 4 0 0 1 4-4h10a4 4 0 0 1 4 4v10a4 4 0 0 1-4 4H7a4 4 0 0 1-4-4zm3.88 7h-.899v-3.626h.9zm-.45-4.054c-.278 0-.51-.191-.51-.471S6.152 9 6.43 9c.28 0 .508.194.508.475s-.229.471-.509.471m2.846 4.119c-1.001 0-1.61-.69-1.61-1.747v-.3c0-1.005.602-1.71 1.614-1.71.916 0 1.473.582 1.493 1.279h-.83c-.048-.3-.287-.56-.622-.56-.468 0-.752.382-.752 1v.288c0 .64.29 1.029.755 1.029.4 0 .595-.243.636-.52h.83c-.075.81-.656 1.24-1.514 1.24M13 10.309c-1.07 0-1.662.735-1.662 1.736v.267c0 1.052.592 1.753 1.662 1.753s1.657-.7 1.657-1.757v-.267c0-1.001-.591-1.732-1.658-1.732m0 .697c.52 0 .748.444.748 1.035v.28c0 .575-.226 1.043-.748 1.043-.527 0-.752-.471-.752-1.042v-.28c0-.588.232-1.036.752-1.036M16.304 14h-.896v-3.626h.875v.53h.038c.116-.25.448-.589 1.052-.589.739 0 1.255.462 1.255 1.35V14h-.899v-2.14c0-.557-.321-.779-.707-.779-.465 0-.718.335-.718.793z" clip-rule="evenodd"/></svg>