<svg xmlns="http://www.w3.org/2000/svg" width="24" height="24" viewBox="0 0 24 24" fill="currentColor"><path fill-rule="evenodd" d="M11.949 9.05C13.029 5.542 16.363 3 20.29 3a9 9 0 0 1 1.954.212.7.7 0 0 1 .338.184l.01.01c.089.089.152.2.182.323A8 8 0 0 1 23 5.65c0 4.714-3.915 8.507-8.717 8.507h-.011l.635 5.544c.071.703-.49 1.3-1.184 1.3h-2.896a1.18 1.18 0 0 1-1.185-1.3l.001-.009.571-5.044c-4.35.267-8.322-2.697-9.105-7.007a8 8 0 0 1-.107-.864.68.68 0 0 1 .42-.682 9 9 0 0 1 1.873-.541l.004-.001c3.437-.588 6.766.875 8.65 3.498M20.29 4.37c-3.927 0-7.11 2.993-7.325 6.736a.688.688 0 0 1-1.324.216C10.399 8.23 7.045 6.3 3.533 6.9a8 8 0 0 0-1.107.278q.015.108.035.213v.003c.698 3.845 4.45 6.448 8.422 5.802a.69.69 0 0 1 .585.18c.155.147.233.36.209.572l-.644 5.682h2.483l-.702-6.121a.683.683 0 0 1 .736-.76c.257.02.497.037.732.037 4.073 0 7.344-3.208 7.344-7.137q0-.609-.1-1.182a8 8 0 0 0-1.235-.1" clip-rule="evenodd"/></svg>