<svg xmlns="http://www.w3.org/2000/svg" width="24" height="24" viewBox="0 0 24 24" fill="currentColor"><path fill-rule="evenodd" d="M8.542 20.235h-4.5v-17.2h13.2v6.59a.7.7 0 0 0 1.4 0v-7.29a.7.7 0 0 0-.7-.7h-14.6a.7.7 0 0 0-.7.7v18.65a.7.7 0 0 0 .7.7h5.2a.7.7 0 1 0 0-1.4zm5.66-13.02h-7.12a.7.7 0 1 0 0 1.4h7.12a.7.7 0 1 0 0-1.4m-7.12 3.77h7.12a.7.7 0 0 1 0 1.4h-7.12a.7.7 0 1 1 0-1.4m3.1 3.67h-3.1a.7.7 0 0 0 0 1.4h3.1a.7.7 0 1 0 0-1.4m9.37-2.34 1.44 1.43a1.3 1.3 0 0 1 0 1.81l-5.08 5.09a.6.6 0 0 1-.18.13l-2.94 1.45a1.2 1.2 0 0 1-.57.14 1.27 1.27 0 0 1-.9-.38 1.25 1.25 0 0 1-.24-1.5l1.47-2.99a.8.8 0 0 1 .13-.18l5.06-5a1.28 1.28 0 0 1 1.81 0m-7.06 8.47 2.5-1.24 4.9-4.89-1.27-1.27-4.89 4.89z" clip-rule="evenodd"/></svg>