<svg xmlns="http://www.w3.org/2000/svg" width="24" height="24" viewBox="0 0 24 24" fill="currentColor"><path fill-rule="evenodd" d="M11.188 4.8h.7v.7c0 .4.3.7.7.7s.7-.3.7-.7v-.7h.7c.4 0 .7-.3.7-.7s-.3-.7-.7-.7h-.7v-.7c0-.4-.3-.7-.7-.7s-.7.3-.7.7v.7h-.7c-.4 0-.7.3-.7.7s.3.7.7.7m-3.9-1.5 14.5 14.5c.3.3.3.7 0 1l-3 3c-.1.1-.3.2-.5.2s-.4-.1-.5-.2L3.288 7.3c-.1-.1-.2-.4-.2-.5s.1-.3.2-.5l3-3c.3-.3.7-.3 1 0m1.9 3.9-2.4-2.4-2 2 2.4 2.4zm-1 3 10.1 10.1 2-2-10.1-10.1zm-.3 6.6h.7c.4 0 .7.3.7.7s-.3.7-.7.7h-.7v.7c0 .4-.3.7-.7.7s-.7-.3-.7-.7v-.7h-.7c-.4 0-.7-.3-.7-.7s.3-.7.7-.7h.7v-.7c0-.4.3-.7.7-.7s.7.3.7.7zm-2.4-4.9c.4 0 .7.3.7.7s-.4.7-.7.7h-.7v.7c0 .4-.3.7-.7.7s-.7-.3-.7-.7v-.7h-.7c-.4 0-.7-.3-.7-.7s.3-.7.7-.7h.7v-.7c0-.4.3-.7.7-.7s.7.3.7.7v.7z" clip-rule="evenodd"/></svg>