<svg xmlns="http://www.w3.org/2000/svg" width="24" height="24" viewBox="0 0 24 24" fill="currentColor"><path fill-rule="evenodd" d="M16.463 19.79h4.44a.7.7 0 1 1 0 1.4h-9.3a9.19 9.19 0 1 1 4.86-1.4M5.117 7.657a7.8 7.8 0 0 0-1.314 4.333 7.81 7.81 0 0 0 7.8 7.8A7.8 7.8 0 1 0 5.117 7.657m7.653 1.78a2.1 2.1 0 1 1-2.334-3.492 2.1 2.1 0 0 1 2.334 3.491m-.778-2.329a.7.7 0 1 0-.778 1.164.7.7 0 0 0 .778-1.164M10.9 11.99a.72.72 0 0 1 .202-.5h-.01a.707.707 0 1 1 .775 1.15.72.72 0 0 1-.765-.15.72.72 0 0 1-.202-.5m5.002 2.1a2.1 2.1 0 1 0 0-4.2 2.1 2.1 0 0 0 0 4.2m0-2.8a.7.7 0 1 1 0 1.4.7.7 0 0 1 0-1.4m-9.767-1.046a2.1 2.1 0 1 1 2.334 3.492 2.1 2.1 0 0 1-2.334-3.492m.778 2.328a.7.7 0 1 0 .778-1.164.7.7 0 0 0-.778 1.164m6.789 3.718a2.1 2.1 0 1 0-4.2 0 2.1 2.1 0 0 0 4.2 0m-2.8 0a.7.7 0 1 1 1.4 0 .7.7 0 0 1-1.4 0" clip-rule="evenodd"/></svg>