<svg xmlns="http://www.w3.org/2000/svg" width="24" height="24" viewBox="0 0 24 24" fill="currentColor"><path d="M22.648 6.104a.74.74 0 0 0-.37-.39l-7.55-3.29a.69.69 0 0 0-.95.46c-.23.87-.96 1.47-1.77 1.47s-1.54-.6-1.77-1.47a.696.696 0 0 0-.95-.46l-7.57 3.29c-.17.07-.3.21-.37.39a.72.72 0 0 0 .01.54l2.36 5.29c.08.18.23.31.41.38.18.06.38.05.55-.04l.78-.4v9.06c0 .39.31.7.7.7h11.68c.39 0 .7-.31.7-.7v-9.06l.78.4a.697.697 0 0 0 .96-.34l2.36-5.29c.08-.17.08-.36.01-.54m-3.35 4.58-1.14-.59a.73.73 0 0 0-.69.02.7.7 0 0 0-.34.6v9.51H6.858v-9.51c0-.24-.13-.47-.34-.6a.68.68 0 0 0-.69-.02l-1.14.59-1.77-3.96 6.25-2.73c.56 1.07 1.64 1.76 2.83 1.76s2.27-.7 2.83-1.76l6.24 2.72-1.77 3.96z"/></svg>