<svg xmlns="http://www.w3.org/2000/svg" width="24" height="24" viewBox="0 0 24 24" fill="currentColor"><path fill-rule="evenodd" d="M4.46 11.632h15.08a1.87 1.87 0 0 0 1.91-1.83 8.1 8.1 0 0 0-8.36-7.8h-2.18a8.1 8.1 0 0 0-8.36 7.8 1.87 1.87 0 0 0 1.91 1.83m6.45-8.23h2.18a6.7 6.7 0 0 1 7 6.4.47.47 0 0 1-.51.43H4.46a.47.47 0 0 1-.46-.43 6.7 6.7 0 0 1 6.91-6.4m8.84 13.09H4.25a1.7 1.7 0 0 0-1.7 1.7v1.11a2.7 2.7 0 0 0 2.7 2.7h13.5a2.71 2.71 0 0 0 2.7-2.7v-1.11a1.7 1.7 0 0 0-1.7-1.7m.25 2.81a1.3 1.3 0 0 1-1.29 1.3H5.25a1.3 1.3 0 0 1-1.25-1.3v-1.11a.3.3 0 0 1 .3-.3h15.5a.29.29 0 0 1 .29.3zM12.425 5.856a.8.8 0 0 1-.425.146.79.79 0 0 1-.81-.78.78.78 0 1 1 1.235.634M12 8.602a.78.78 0 1 0-.81-.78.79.79 0 0 0 .81.78m-2.27-2.24c0 .431-.363.78-.81.78s-.81-.349-.81-.78c0-.43.363-.78.81-.78s.81.35.81.78m5.36.78a.79.79 0 1 0-.02-1.58.79.79 0 0 0 .02 1.58m2.355 5.472c.315 0 .625.086.895.248l2.22 1.32a.709.709 0 0 1-.019 1.24.71.71 0 0 1-.711-.01l-2.17-1.32a.3.3 0 0 0-.34 0l-1.65 1a1.76 1.76 0 0 1-1.8 0l-1.64-1a.34.34 0 0 0-.35 0l-1.65 1a1.74 1.74 0 0 1-1.79 0l-1.65-1a.3.3 0 0 0-.34 0l-2.19 1.32a.7.7 0 0 1-1-.23.71.71 0 0 1 .24-1l2.18-1.32a1.74 1.74 0 0 1 1.79 0l1.66 1a.34.34 0 0 0 .34 0l1.65-1a1.74 1.74 0 0 1 1.79 0l1.65 1a.32.32 0 0 0 .34 0l1.65-1c.27-.162.58-.248.895-.248" clip-rule="evenodd"/></svg>