<svg xmlns="http://www.w3.org/2000/svg" width="24" height="24" viewBox="0 0 24 24" fill="currentColor"><path d="M11.156 19.424a.956.956 0 0 1-.956-.953.956.956 0 0 1 1.913 0 .955.955 0 0 1-.957.953m9.056-1.74H13.55a2.53 2.53 0 0 0-2.393-1.74 2.53 2.53 0 0 0-2.393 1.74H3.788a.787.787 0 1 0 0 1.576h4.975A2.53 2.53 0 0 0 11.156 21a2.53 2.53 0 0 0 2.393-1.74h6.663a.787.787 0 1 0 0-1.575zm-5.118-4.76a.955.955 0 0 1-.957-.953.955.955 0 0 1 1.913 0 .955.955 0 0 1-.956.953m5.118-1.74h-2.725a2.53 2.53 0 0 0-2.393-1.74 2.53 2.53 0 0 0-2.393 1.74H3.788a.788.788 0 0 0 0 1.576H12.7a2.53 2.53 0 0 0 2.393 1.74 2.53 2.53 0 0 0 2.393-1.74h2.726a.788.788 0 0 0 0-1.575zM8.907 4.575c.528 0 .957.428.957.953a.955.955 0 0 1-1.913 0c0-.525.429-.953.956-.953M3.788 6.316h2.726a2.53 2.53 0 0 0 2.392 1.742A2.53 2.53 0 0 0 11.3 6.316h8.914a.787.787 0 1 0 0-1.574h-8.914A2.53 2.53 0 0 0 8.906 3a2.53 2.53 0 0 0-2.392 1.742H3.788a.787.787 0 1 0 0 1.574"/></svg>