<svg xmlns="http://www.w3.org/2000/svg" width="24" height="24" viewBox="0 0 24 24" fill="currentColor"><path d="M19.37 2.617c-2.58-1.09-5.09-.51-7.53.05-2.32.54-4.51 1.04-6.67.13-.03-.01-.06 0-.09-.02a.7.7 0 0 0-.38-.13c-.39 0-.7.31-.7.7v17.95c0 .39.31.7.7.7s.7-.31.7-.7v-6.74c.8.24 1.59.34 2.38.34 1.48 0 2.94-.34 4.38-.67 2.32-.53 4.51-1.04 6.67-.13.27.11.57.09.81-.07.23-.15.36-.41.36-.69v-9.79c0-.4-.26-.78-.63-.93m-.77 9.92c-2.3-.69-4.57-.18-6.76.33-2.24.52-4.36 1-6.44.22v-8.73c2.31.7 4.56.17 6.76-.33 2.24-.52 4.35-1 6.44-.22v8.73"/></svg>