<svg xmlns="http://www.w3.org/2000/svg" width="24" height="24" viewBox="0 0 24 24" fill="currentColor"><path d="M7.895 22c-.37 0-.72-.11-1.03-.32-.7-.49-.92-1.43-.53-2.17l2.38-4.46h-2.47c-.71 0-1.34-.41-1.61-1.04a1.66 1.66 0 0 1 .39-1.88l10.07-9.65c.6-.57 1.58-.64 2.25-.17.7.49.93 1.42.54 2.17l-2.64 4.94h2.51c.71 0 1.35.41 1.62 1.05.27.65.11 1.4-.41 1.89l-9.85 9.16c-.33.3-.76.47-1.21.47zm8.43-18.61a.4.4 0 0 0-.26.1l-10.08 9.64c-.09.08-.12.2-.07.31.05.12.18.2.33.2h3.65a.7.7 0 0 1 .62 1.03l-2.93 5.49c-.07.13-.03.28.1.36.14.1.35.08.48-.03l9.85-9.16c.09-.08.12-.2.07-.31-.05-.12-.18-.2-.33-.2h-3.67a.7.7 0 0 1-.62-1.03l3.19-5.97c.07-.13.03-.28-.1-.37a.35.35 0 0 0-.22-.07z"/></svg>