<svg xmlns="http://www.w3.org/2000/svg" width="24" height="24" viewBox="0 0 24 24" fill="currentColor"><path d="m15.71 15.38-.99-1-4.91-4.91-.99-1-2.9-2.88a.706.706 0 0 0-.99 0c-.27.27-.27.72 0 .99l2.88 2.88-2.78 2.66A1.66 1.66 0 0 0 4.64 14c.27.63.91 1.04 1.61 1.04h2.48L6.35 19.5c-.4.74-.17 1.68.53 2.17a1.799 1.799 0 0 0 2.24-.15l5.58-5.19 1.95 1.95c.14.14.32.21.5.21a.705.705 0 0 0 .5-1.2l-1.92-1.92zM8.16 20.5c-.12.11-.34.13-.48.03-.12-.09-.17-.24-.1-.36l2.93-5.49c.12-.22.11-.48-.02-.69a.7.7 0 0 0-.6-.34H6.25c-.15 0-.28-.08-.33-.2a.26.26 0 0 1 .07-.31l2.81-2.69 4.9 4.9zm11.21-10.02c-.27-.64-.91-1.05-1.62-1.05h-2.51l2.64-4.94c.4-.75.17-1.69-.54-2.17-.67-.47-1.65-.4-2.25.17L9.83 7.53l.99.99 5.25-5.03a.4.4 0 0 1 .26-.1c.06 0 .14.01.22.07.13.09.17.24.1.37L13.46 9.8c-.12.22-.11.48.02.69a.7.7 0 0 0 .6.34h3.67c.15 0 .28.08.33.2.05.11.02.23-.07.31l-2.25 2.1.99.99 2.21-2.06c.52-.48.68-1.24.41-1.89"/></svg>