<svg xmlns="http://www.w3.org/2000/svg" width="24" height="24" viewBox="0 0 24 24" fill="currentColor"><path d="M13.711 11.59h-1.7l1.91-3.79c.33-.67.14-1.49-.45-1.93-.56-.41-1.38-.35-1.87.15l-7.67 7.78c-.43.43-.56 1.1-.32 1.67.23.56.76.92 1.35.92h1.67l-1.71 3.4c-.33.66-.14 1.49.44 1.92a1.423 1.423 0 0 0 1.87-.13l7.5-7.39c.43-.43.57-1.1.34-1.67s-.76-.93-1.35-.93zm.11 1.58-7.5 7.39s-.11.08-.2 0c-.04-.03-.06-.08-.03-.12l2.23-4.43c.11-.22.1-.48-.02-.69a.65.65 0 0 0-.57-.34h-2.78c-.06 0-.12-.03-.13-.08l.02-.1 7.67-7.77s.09-.04.11-.04.06 0 .09.03.06.07.04.12l-2.43 4.82c-.11.22-.1.48.02.69s.33.34.57.34h2.8c.06 0 .12.03.13.08.01.03 0 .07-.03.1zm6.63-4.26-2.22-6.46s-.01-.02-.02-.03c-.02-.05-.05-.08-.07-.12a.4.4 0 0 0-.07-.1c-.03-.03-.06-.05-.09-.07-.04-.03-.08-.06-.12-.08 0 0-.02-.01-.02-.02-.03-.01-.06 0-.09-.01-.05-.01-.09-.02-.14-.02s-.09.01-.13.02c-.03 0-.06 0-.09.01 0 0-.02.01-.03.02-.04.02-.08.05-.12.08a.6.6 0 0 0-.09.07c-.03.03-.05.07-.07.11-.03.04-.05.08-.07.12 0 .01-.01.02-.02.03l-2.22 6.46c-.12.36.05.76.4.9.07.03.15.04.23.04.27 0 .52-.18.62-.46l.41-1.18h2.38l.41 1.18c.1.28.35.46.62.46.07 0 .15-.01.23-.04.34-.13.52-.53.4-.9zm-3.55-2.1.71-2.07.71 2.07z"/></svg>