<svg xmlns="http://www.w3.org/2000/svg" width="24" height="24" viewBox="0 0 24 24" fill="currentColor"><path d="M11.996 5.982a.7.7 0 0 1 .7.7V9.31l2.624.003a.7.7 0 0 1-.002 1.4l-2.622-.003v2.626a.7.7 0 1 1-1.4 0v-2.627l-2.63-.003a.7.7 0 1 1 .002-1.4l2.628.003V6.682a.7.7 0 0 1 .7-.7"/><path fill-rule="evenodd" d="M3.969 3.675c0-.931.752-1.698 1.697-1.698h12.668c.93 0 1.697.753 1.697 1.698v16.65c0 1.36-1.51 2.152-2.634 1.419l-.003-.002-5.403-3.556-5.383 3.547h-.001c-1.135.752-2.638-.066-2.638-1.416zm8.53 13.17a.7.7 0 0 0-.808-.131l-.015.007a.7.7 0 0 0-.116.072l-5.724 3.772-.002.001a.3.3 0 0 1-.465-.249V3.675c0-.165.132-.298.297-.298h12.668c.164 0 .297.133.297.298v16.65c0 .229-.26.382-.47.246z" clip-rule="evenodd"/></svg>