<svg xmlns="http://www.w3.org/2000/svg" width="24" height="24" viewBox="0 0 24 24" fill="currentColor"><path d="M19.97 8.76c-.27-3.77-3.33-6.75-7.06-6.75h-1.83c-3.72 0-6.77 2.96-7.06 6.75A2.95 2.95 0 0 0 2 11.55v5.95a2.5 2.5 0 0 0 2.05 2.45v.61c0 .79.64 1.43 1.44 1.43h.33c.79 0 1.43-.64 1.43-1.43v-.57h9.4v.57c0 .79.64 1.43 1.44 1.43h.33c.79 0 1.44-.64 1.44-1.43v-.6A2.49 2.49 0 0 0 22 17.5v-5.95c0-1.3-.85-2.4-2.03-2.79m-8.89-5.35h1.83c2.92 0 5.33 2.29 5.65 5.22a2.943 2.943 0 0 0-2.61 2.92v2.5h-7.9v-2.5c0-1.51-1.15-2.75-2.61-2.92.32-2.93 2.73-5.22 5.65-5.22zm9.51 14.08c0 .61-.49 1.1-1.1 1.1H4.5c-.61 0-1.1-.49-1.1-1.1v-5.95c0-.85.7-1.55 1.55-1.55h.15c.85 0 1.55.7 1.55 1.55v3.2c0 .39.31.7.7.7h9.3c.39 0 .7-.31.7-.7v-3.2c0-.85.7-1.55 1.55-1.55h.15c.85 0 1.55.7 1.55 1.55v5.95z"/></svg>