<svg xmlns="http://www.w3.org/2000/svg" width="24" height="24" viewBox="0 0 24 24" fill="currentColor"><path fill-rule="evenodd" d="M10.508 14.25h2.984l.42.512a4.28 4.28 0 0 0 3.338 1.588A4.357 4.357 0 0 0 21.6 12a4.357 4.357 0 0 0-4.35-4.35H6.75A4.357 4.357 0 0 0 2.4 12a4.357 4.357 0 0 0 4.35 4.35c1.297 0 2.501-.57 3.338-1.588zm2.322 1.4c1.1 1.34 2.7 2.1 4.42 2.1 3.17 0 5.75-2.58 5.75-5.75s-2.58-5.75-5.75-5.75H6.75C3.58 6.25 1 8.83 1 12s2.58 5.75 5.75 5.75c1.72 0 3.32-.76 4.42-2.1z" clip-rule="evenodd"/><path d="M7.25 12.5h1.6c.28 0 .5-.22.5-.5s-.22-.5-.5-.5h-1.6V9.9c0-.28-.22-.5-.5-.5s-.5.22-.5.5v1.6h-1.6c-.28 0-.5.22-.5.5s.22.5.5.5h1.6v1.6c0 .28.22.5.5.5s.5-.22.5-.5zM14.3 12a.85.85 0 1 0 1.699.001A.85.85 0 0 0 14.3 12M16.4 14.1a.85.85 0 1 0 1.699.001.85.85 0 0 0-1.699-.001M16.4 9.9a.85.85 0 1 0 1.699.001.85.85 0 0 0-1.699 0M18.5 12a.85.85 0 1 0 1.699.001A.85.85 0 0 0 18.5 12"/></svg>