<svg xmlns="http://www.w3.org/2000/svg" width="24" height="24" viewBox="0 0 24 24" fill="currentColor"><path fill-rule="evenodd" d="M15.4 4.698h4.97a.71.71 0 0 1 0 1.41h-1v13.19a2.85 2.85 0 0 1-3 2.7H7.63a2.85 2.85 0 0 1-3-2.7V6.108h-1a.71.71 0 0 1 0-1.41h4.83v-2a.7.7 0 0 1 .7-.7h5.54a.7.7 0 0 1 .7.7zm-1.4-1.3H9.86v1.3H14zm3.34 16.87c.293-.244.48-.591.52-.97l.01-13.19H5.99v13.19a1.46 1.46 0 0 0 1.57 1.3h8.73c.38.03.756-.088 1.05-.33M8.505 8.423a.6.6 0 0 1 1.024.424v9a.6.6 0 1 1-1.2 0v-9a.6.6 0 0 1 .176-.424m3.424-.176a.6.6 0 0 0-.6.6v9a.6.6 0 1 0 1.2 0v-9a.6.6 0 0 0-.6-.6m2.4 9.6v-9a.6.6 0 1 1 1.2 0v9a.6.6 0 1 1-1.2 0" clip-rule="evenodd"/></svg>