<svg xmlns="http://www.w3.org/2000/svg" width="24" height="24" viewBox="0 0 24 24" fill="currentColor"><path d="M15.281 22.495h-6.5c-.3 0-.6-.2-.7-.5l-1.5-6.3c-.5-.2-1.1-.8-1.1-2.1 0-1.8 1.2-2.2 1.7-2.2h4v-2.3c-.9.4-2.1.6-3.6 0-3-1.4-3.8-5-3.8-5.2 0-.3.1-.7.5-.8.1 0 3-1 5.7-.4.9.2 1.4.7 1.8 1.3.5-1 1.3-1.8 2.6-2.2 3.4-.8 5.4.3 5.5.4.3.2.4.5.3.8 0 .2-1.1 4.3-3.8 5.9-1.5.9-2.7.7-3.7.3v2.3h4.2c.5 0 1.7.4 1.7 2.2s-.6 1.8-1.1 2.1l-1.5 6.2c-.055.238-.301.453-.7.5m-5.9-1.4h5.4l1.2-5.3h-7.9l1.2 5.3zm-2.1-6.7h9.6c.2 0 .3-.3.3-.8s-.1-.8-.4-.8h-9.5c-.2 0-.3.3-.3.8s.1.8.4.8zm-1.9-10.2c.3 1 1.2 2.8 2.8 3.6 1.4.6 2.3.3 2.7-.1-.5-.4-1.2-.9-2.2-1.1-.4 0-.6-.4-.6-.8s.4-.6.8-.6q1.2.3 2.1.9c-.2-.8-.6-1.8-1.5-2-1.6-.4-3.3 0-4.2.1zm7.5 3.4c.5.4 1.4.8 2.7 0 1.7-1 2.7-3.4 3-4.5-.7-.2-2-.5-3.9 0-1.4.3-1.9 1.6-2 2.7.7-.7 1.7-1.4 2.8-1.6.4 0 .7.2.8.6 0 .4-.2.7-.6.8-1 .2-2.1 1.3-2.8 2"/></svg>