<svg xmlns="http://www.w3.org/2000/svg" width="24" height="24" viewBox="0 0 24 24" fill="currentColor"><path fill-rule="evenodd" d="M12 2a10 10 0 1 0 0 20 10 10 0 0 0 0-20m0 18.6a8.6 8.6 0 1 1 8.6-8.6 8.61 8.61 0 0 1-8.6 8.6m2.18-13.08a2.7 2.7 0 0 0-.93-.52 3.2 3.2 0 0 0-1.17-.2 3.12 3.12 0 0 0-2.08.63 2.92 2.92 0 0 0-1 1.84c0 .12 0 .18.12.19l1.4.22c.09 0 .15 0 .17-.13.046-.342.2-.661.44-.91a1.2 1.2 0 0 1 .87-.33 1.17 1.17 0 0 1 .88.33 1.15 1.15 0 0 1 .33.83q0 .317-.12.61-.166.358-.41.67l-1.23 1.67a2.5 2.5 0 0 0-.31.58 2.5 2.5 0 0 0-.09.75v.63a.14.14 0 0 0 .095.155.14.14 0 0 0 .065.005h1.44a.14.14 0 0 0 .155-.095.14.14 0 0 0 .005-.065v-.45a1.7 1.7 0 0 1 .07-.56q.081-.232.24-.42l1.22-1.67A2.93 2.93 0 0 0 15 9.46a2.6 2.6 0 0 0-.22-1.09 2.4 2.4 0 0 0-.6-.85M13 16.24a1 1 0 1 1-2 0 1 1 0 0 1 2 0" clip-rule="evenodd"/></svg>