<svg xmlns="http://www.w3.org/2000/svg" width="24" height="24" viewBox="0 0 24 24" fill="currentColor"><path d="M20.35 3.99h-2.23V2.71c0-.39-.31-.7-.7-.7s-.7.31-.7.7v1.28H4.59A2.59 2.59 0 0 0 2 6.58v4.43c0 .91.74 1.64 1.65 1.64h.42v1.41c0 .39.31.7.7.7s.7-.31.7-.7v-1.41h1.37c.39 0 .7-.31.7-.7v-1.37h5.32v6.38H4.12c-1.17 0-2.12.95-2.12 2.12v2.21c0 .39.31.7.7.7h17.65c.91 0 1.65-.74 1.65-1.64V5.63c0-.91-.74-1.65-1.65-1.65zm.25 16.34c0 .13-.11.24-.25.24H3.4v-1.51c0-.4.32-.72.72-.72h9.43c.39 0 .7-.31.7-.7V9.86c0-.39-.31-.7-.7-.7H6.83c-.39 0-.7.31-.7.7v1.37H3.65c-.14 0-.25-.11-.25-.24V6.56c0-.66.53-1.19 1.19-1.19h15.76c.14 0 .25.11.25.34v14.62m-3.18-8.78c-1.24 0-2.25 1.01-2.25 2.25s1.01 2.25 2.25 2.25 2.25-1.01 2.25-2.25-1.01-2.25-2.25-2.25m0 3.1a.85.85 0 1 1-.001-1.699.85.85 0 0 1 .001 1.699"/></svg>