<svg xmlns="http://www.w3.org/2000/svg" width="24" height="24" viewBox="0 0 24 24" fill="currentColor"><path fill-rule="evenodd" d="M6.444 3.685a10 10 0 1 1 11.112 16.63A10 10 0 0 1 6.444 3.685m.778 15.466A8.6 8.6 0 0 0 12 20.6a8.61 8.61 0 0 0 8.6-8.6 8.6 8.6 0 1 0-13.378 7.15M14.2 9.533a.84.84 0 0 1 1.43.587.84.84 0 1 1-1.68 0 .84.84 0 0 1 .25-.587M9.8 10.75A.85.85 0 0 1 9.21 11a.85.85 0 0 1-.84-.84.84.84 0 0 1 1.68 0 .85.85 0 0 1-.249.591m4.989 2.02H9.21a.7.7 0 0 0-.7.7 3.5 3.5 0 1 0 7 0 .7.7 0 0 0-.72-.7M12 15.56a2.09 2.09 0 0 1-2-1.39h4a2.09 2.09 0 0 1-2 1.39" clip-rule="evenodd"/></svg>