<svg xmlns="http://www.w3.org/2000/svg" width="24" height="24" viewBox="0 0 24 24" fill="currentColor"><path d="M16.26 5.986c0-.94-.38-1.82-1.04-2.49l-.18-.18a3.52 3.52 0 0 0-4.98.02l-6.74 6.8c-.66.67-1.02 1.55-1.02 2.49s.38 1.82 1.04 2.49l.18.18a3.521 3.521 0 0 0 4.98-.02l6.73-6.79c.66-.67 1.03-1.55 1.02-2.49zm-2.01 1.51-3.37 3.4-3.2-3.16 3.37-3.39c.42-.42.96-.63 1.51-.63s1.08.21 1.5.62l.18.18a2.11 2.11 0 0 1 .01 3zm2.58 4.47a4.87 4.87 0 1 0-.001 9.739 4.87 4.87 0 0 0 .001-9.74m-.7 8.27a3.47 3.47 0 0 1-2.77-3.4c0-1.68 1.19-3.07 2.77-3.4zm1.4 0v-6.8c1.58.32 2.77 1.72 2.77 3.4s-1.19 3.07-2.77 3.4"/></svg>