<svg xmlns="http://www.w3.org/2000/svg" width="24" height="24" viewBox="0 0 24 24" fill="currentColor"><path d="M12 .455c.748 0 1.257.291 1.682.57.426.28.75.527 1.268.704.424.145 1.005.085 1.56-.065a6 6 0 0 0 .894-.321l.012-.006h-.001l.083-.034a.672.672 0 0 1 .882.6l-.001.089c-.123 1.622-1.183 2.833-2.176 3.632a15.9 15.9 0 0 1 3.224 3.547c1.114 1.673 1.942 3.609 2.105 5.549l.03.5c.083 2.47-.821 4.359-2.495 5.623-1.743 1.317-4.235 1.893-7.067 1.893-2.833 0-5.324-.576-7.067-1.893-1.786-1.348-2.697-3.406-2.466-6.123l.039-.364c.23-1.817 1.022-3.617 2.066-5.185a15.9 15.9 0 0 1 3.224-3.547c-.953-.768-1.97-1.914-2.157-3.44l-.019-.192a.672.672 0 0 1 .964-.654l-.001-.001.012.006a3 3 0 0 0 .235.1c.164.066.395.15.658.22.556.15 1.137.211 1.56.066.52-.177.843-.425 1.268-.704.426-.28.935-.57 1.684-.57m0 1.344c-.351 0-.59.115-.946.35-.357.233-.85.605-1.57.852-.755.258-1.589.146-2.203-.005.44.862 1.25 1.559 2.018 2.061a.672.672 0 0 1 .01 1.118c-1.277.868-2.59 2.195-3.619 3.74-.965 1.45-1.654 3.053-1.851 4.607l-.033.31c-.197 2.317.563 3.903 1.936 4.94 1.415 1.069 3.57 1.62 6.258 1.62s4.842-.551 6.257-1.62c1.287-.972 2.035-2.427 1.962-4.513l-.026-.426c-.139-1.65-.854-3.371-1.885-4.918-1.028-1.545-2.342-2.872-3.618-3.74a.673.673 0 0 1 .012-1.119l.403-.279c.635-.468 1.25-1.069 1.612-1.781-.614.151-1.447.263-2.201.005-.72-.247-1.214-.619-1.57-.853s-.595-.35-.946-.35M23.711 8.813c-.545 0-.89-.344-.89-.89a.277.277 0 1 0-.554 0c0 .546-.344.89-.89.89a.277.277 0 1 0 0 .555c.546 0 .89.344.89.89a.277.277 0 1 0 .554 0c0-.546.345-.89.89-.89a.277.277 0 1 0 0-.555"/><path d="M22.993 4.266c-.832 0-1.36-.525-1.36-1.36a.423.423 0 0 0-.425-.425.423.423 0 0 0-.424.424c0 .832-.524 1.36-1.36 1.36A.423.423 0 0 0 19 4.69c0 .235.189.424.424.424.831 0 1.36.524 1.36 1.36 0 .235.19.424.424.424a.423.423 0 0 0 .424-.424c0-.831.525-1.36 1.36-1.36a.423.423 0 0 0 .425-.424.423.423 0 0 0-.424-.424M15.183 4.946l.134.014a.672.672 0 0 1 0 1.316l-.135.014H8.817a.672.672 0 0 1 0-1.344z"/></svg>