<svg xmlns="http://www.w3.org/2000/svg" width="24" height="24" viewBox="0 0 24 24" fill="currentColor"><path d="M17.72 5.1h-1.4V3.7c0-.94-.76-1.7-1.7-1.7H6.28c-.94 0-1.7.76-1.7 1.7v13.5c0 .94.76 1.7 1.7 1.7h1.4v1.4c0 .94.76 1.7 1.7 1.7h8.34c.94 0 1.7-.76 1.7-1.7V6.8c0-.94-.76-1.7-1.7-1.7M7.68 17.5h-1.4c-.17 0-.3-.13-.3-.3V3.7c0-.17.13-.3.3-.3h8.34c.17 0 .3.13.3.3v13.5c0 .17-.13.3-.3.3zm10.34 2.8c0 .17-.13.3-.3.3H9.38c-.17 0-.3-.13-.3-.3v-1.4h5.54c.94 0 1.7-.76 1.7-1.7V6.5h1.4c.17 0 .3.13.3.3zm-8.18-6.79c.12.22.36.35.61.35s.48-.13.61-.35l1.55-2.71c.12-.22.12-.48 0-.7l-1.55-2.71c-.25-.44-.97-.44-1.21 0L8.3 10.1c-.12.22-.12.48 0 .7l1.55 2.71zm.61-4.36.74 1.3-.74 1.3-.74-1.3zm2.09-3.38a.65.65 0 0 1-.21-.49c0-.19.08-.36.21-.5.19-.19.5-.25.76-.15.08.04.16.09.23.15.13.14.2.32.2.5s-.07.36-.2.49c-.07.07-.15.12-.23.16-.08.03-.17.05-.27.05-.18 0-.36-.07-.49-.21m-4.03 9.58c.04.08.05.17.05.27 0 .09 0 .18-.05.26-.03.09-.09.16-.15.23-.13.13-.31.21-.5.21a.71.71 0 0 1-.64-.44.6.6 0 0 1-.06-.26q0-.15.06-.27c.03-.09.08-.17.15-.23a.707.707 0 0 1 .99 0c.06.06.12.14.15.23"/></svg>