<svg xmlns="http://www.w3.org/2000/svg" width="24" height="24" viewBox="0 0 24 24" fill="currentColor"><path d="M20.599 10.273c0-.33-.113-.76-.325-1.182-.21-.423-.487-.77-.75-.968l-6.583-4.92c-.234-.176-.572-.282-.942-.282s-.71.105-.945.281v.001l-6.582 4.92c-.264.198-.54.546-.751.968s-.324.852-.324 1.182v8.875l.005.102c.052.506.485.905 1.003.905h4.17c.552 0 1.007-.455 1.007-1.008v-3.215a2.355 2.355 0 0 1 2.35-2.35h.127a2.356 2.356 0 0 1 2.351 2.35v3.176q.002.02.004.04c0 .552.455 1.007 1.008 1.007h4.169c.552 0 1.008-.455 1.008-1.008zm1.343 8.875a2.357 2.357 0 0 1-2.351 2.351h-4.17a2.355 2.355 0 0 1-2.347-2.27q-.006-.04-.008-.081v-3.216c0-.553-.455-1.008-1.007-1.008h-.126c-.553 0-1.008.455-1.008 1.008v3.216a2.356 2.356 0 0 1-2.35 2.351h-4.17a2.357 2.357 0 0 1-2.339-2.111l-.012-.24v-8.875c0-.595.19-1.231.466-1.783.275-.551.67-1.086 1.146-1.442l.001-.001 6.583-4.92.001-.001.195-.132A3 3 0 0 1 12 1.577c.605 0 1.241.17 1.747.55l6.583 4.92h.001l.174.142c.398.349.731.819.973 1.301.275.552.465 1.188.465 1.783z"/></svg>