<svg xmlns="http://www.w3.org/2000/svg" width="24" height="24" viewBox="0 0 24 24" fill="currentColor"><path fill-rule="evenodd" d="M21 22a1 1 0 0 0 1-.999l-.006-18a1.003 1.003 0 0 0-1-1.001H2.998A1.003 1.003 0 0 0 2 3v18.001a1 1 0 0 0 .999.999zM3.167 20.833h17.666l-.006-17.666H3.167z" clip-rule="evenodd"/><path d="M5.62 9.532a.865.865 0 1 1 1.73 0 .865.865 0 0 1-1.73 0M7.231 14.589q.405.074.79.224l-.09.228a4 4 0 0 0-2.891 0l-.09-.228q.384-.15.79-.224v-3.2a4.5 4.5 0 0 1-.79-.224l.09-.231q.341.132.7.2.37.07.747.072.376-.015.745-.1v3.483M13.645 9.147c-2.403.716-3.981-.026-3.995-.033l-.107.223c.325.144.669.242 1.02.292v4.9c-.351.05-.695.148-1.02.292l.107.221c.014 0 1.592-.747 3.995-.032 1.62.482 3.198.318 4.22-.446.769-.575 1.177-1.434 1.177-2.486 0-1.051-.408-1.91-1.177-2.484-1.022-.766-2.6-.928-4.22-.447m3.187.443a1.7 1.7 0 0 1 .26.317q.112.18.189.377c.168.48.253.985.25 1.494v.6a4.4 4.4 0 0 1-.25 1.495q-.076.197-.19.377-.11.174-.259.317c-.321.296-.742.46-1.179.46h-.467a6.194 6.194 0 0 1-1.47-.254 8 8 0 0 0-1.66-.309V9.699a8 8 0 0 0 1.66-.31 7 7 0 0 1 .99-.212 5 5 0 0 1 .947-.042c.437.002.857.165 1.18.46"/></svg>