<svg xmlns="http://www.w3.org/2000/svg" width="24" height="24" viewBox="0 0 24 24" fill="currentColor"><path fill-rule="evenodd" d="m19.095 9.608 2.148 2.147a.7.7 0 0 1-.99.99l-2.148-2.147a4.4 4.4 0 0 1-2.603.857 4.456 4.456 0 0 1-4.45-4.45 4.456 4.456 0 0 1 4.45-4.451 4.456 4.456 0 0 1 4.45 4.45c0 .975-.324 1.87-.858 2.604m-3.593-5.652a3.053 3.053 0 0 0-3.05 3.05 3.053 3.053 0 0 0 3.05 3.05 3.053 3.053 0 0 0 3.05-3.05 3.053 3.053 0 0 0-3.05-3.05m-10.85 17.49h14.203c1.157 0 2.1-.942 2.1-2.1V16.25a.7.7 0 0 0-.206-.495l-2.037-2.037c-.793-.792-2.177-.794-2.97 0l-1.66 1.66-3.836-3.835c-.794-.794-2.177-.794-2.97 0l-3.323 3.322V5.146a.7.7 0 0 1 .7-.7h5.1a.7.7 0 1 0 0-1.4h-5.1c-1.159 0-2.1.943-2.1 2.1v14.2c0 1.158.941 2.1 2.1 2.1m-.7-2.101v-2.502H3.95l4.313-4.313a.715.715 0 0 1 .99 0l4.33 4.33a.7.7 0 0 0 .99 0l2.156-2.155a.7.7 0 0 1 .99 0l1.831 1.832v2.808c0 .385-.315.7-.7.7H4.651a.7.7 0 0 1-.699-.7" clip-rule="evenodd"/></svg>