<svg xmlns="http://www.w3.org/2000/svg" width="24" height="24" viewBox="0 0 24 24" fill="currentColor"><path fill-rule="evenodd" d="m16.095 15.103 1.73 1.73 1.4 1.4 1.57 1.57a.69.69 0 0 1 0 1 .7.7 0 0 1-.49.2.74.74 0 0 1-.5-.2l-2.56-2.57H6.475a.7.7 0 0 1-.7-.7V6.763l-2.57-2.56a.69.69 0 0 1 0-1 .71.71 0 0 1 1 0l1.57 1.58 1.4 1.4 1.58 1.57 1.75 1.76 2.33 2.33zm-8.87-6.94v8.67h8.62l-1.73-1.73h-4.67a.89.89 0 0 1-.63-1.52l1.68-1.63a1 1 0 0 1 .32-.2zm10.31 11.44H4.405V6.473a.7.7 0 0 0-1.4 0v13.83a.7.7 0 0 0 .7.7h13.83a.701.701 0 1 0 0-1.4m-5.41-11.78a1.69 1.69 0 0 0-2.69-1.36l2.35 2.35a1.64 1.64 0 0 0 .34-.99m5.74 5.18-2.24-2.24a1.21 1.21 0 0 0-1.72 0l-.07.07 4 4a1.208 1.208 0 0 0 .03-1.83m-11.39-10h13.83a.7.7 0 0 1 .7.7v13.83a.7.7 0 0 1-.12.37l-1.28-1.28V4.403H7.385l-1.28-1.28a.7.7 0 0 1 .37-.12" clip-rule="evenodd"/></svg>