<svg xmlns="http://www.w3.org/2000/svg" width="24" height="24" viewBox="0 0 24 24" fill="currentColor"><path fill-rule="evenodd" d="M20.9 5.46v13.08a1.8 1.8 0 1 1-2.36 2.36H5.46a1.8 1.8 0 1 1-2.36-2.36V5.46A1.8 1.8 0 1 1 5.46 3.1h13.08a1.8 1.8 0 1 1 2.36 2.36M5.46 19.54h13.08v-.04a1.8 1.8 0 0 1 1-.96V5.46a1.8 1.8 0 0 1-1-1H5.46a1.8 1.8 0 0 1-1 1v13.08a1.8 1.8 0 0 1 1 1M13.7 7h2.6a.7.7 0 0 1 .7.7v2.6a.7.7 0 1 1-1.4 0v-.9l-6.2 6.19h.9a.71.71 0 0 1 0 1.41H7.7a.66.66 0 0 1-.49-.2.7.7 0 0 1-.21-.5v-2.6a.7.7 0 1 1 1.4 0v.92l6.22-6.22h-.92a.7.7 0 1 1 0-1.4" clip-rule="evenodd"/></svg>