<svg xmlns="http://www.w3.org/2000/svg" width="24" height="24" viewBox="0 0 24 24" fill="currentColor"><path fill-rule="evenodd" d="M3.711 9.7A8.6 8.6 0 0 0 3.4 12c0 .797.108 1.568.311 2.3h4.222A19 19 0 0 1 7.8 12c0-.83.048-1.596.133-2.3zm4.453-1.4h-3.93a8.61 8.61 0 0 1 6.117-4.742 8.5 8.5 0 0 0-.692.941C9.08 5.41 8.516 6.651 8.164 8.3m1.18 1.4A18 18 0 0 0 9.2 12c0 .843.053 1.608.144 2.3h5.312c.091-.692.144-1.457.144-2.3s-.053-1.608-.144-2.3zM14.4 8.3H9.599c.32-1.344.788-2.336 1.242-3.05A6.4 6.4 0 0 1 12 3.874l.077.068c.286.258.681.68 1.082 1.31.454.713.922 1.705 1.242 3.049m1.666 1.4c.085.704.133 1.47.133 2.3s-.048 1.596-.133 2.3h4.222A8.6 8.6 0 0 0 20.6 12c0-.797-.108-1.568-.311-2.3zm3.699-1.4h-3.93c-.352-1.65-.916-2.89-1.495-3.8a8.5 8.5 0 0 0-.692-.942A8.61 8.61 0 0 1 19.766 8.3m0 7.4h-3.93c-.352 1.65-.916 2.89-1.495 3.8-.234.368-.47.68-.692.942a8.61 8.61 0 0 0 6.117-4.742M12 20.127l.077-.068a6.4 6.4 0 0 0 1.082-1.31c.454-.713.922-1.705 1.242-3.049H9.599c.32 1.344.788 2.336 1.242 3.05A6.4 6.4 0 0 0 12 20.126M8.164 15.7h-3.93a8.61 8.61 0 0 0 6.117 4.742 8.5 8.5 0 0 1-.692-.941c-.58-.911-1.143-2.152-1.495-3.801M12 22c5.523 0 10-4.477 10-10S17.523 2 12 2 2 6.477 2 12s4.477 10 10 10" clip-rule="evenodd"/></svg>