<svg xmlns="http://www.w3.org/2000/svg" width="24" height="24" viewBox="0 0 24 24" fill="currentColor"><path fill-rule="evenodd" d="M16.15 5.094h.1a.7.7 0 1 1 0 1.4h-.15a4.2 4.2 0 0 1-1 2.27l-1 12.79a.7.7 0 0 1-.7.64h-2.8a.7.7 0 0 1-.7-.64l-1-12.79a4.2 4.2 0 0 1-1-2.27h-.15a.7.7 0 0 1 0-1.4h.2a4.2 4.2 0 0 1 8.2 0m-2.476-1.372a2.8 2.8 0 0 0-1.624-.528 2.8 2.8 0 0 0-2.64 1.9h5.28a2.8 2.8 0 0 0-1.016-1.372M12.8 20.794l.89-10.93.1-.67h-3.38v.67l.89 10.93zm-3.5-14.3c.09.48.304.928.62 1.3h4.26c.316-.372.53-.82.62-1.3zm3.139 6.083a.7.7 0 1 1-.778-1.165.7.7 0 0 1 .778 1.164" clip-rule="evenodd"/></svg>