<svg xmlns="http://www.w3.org/2000/svg" width="24" height="24" viewBox="0 0 24 24" fill="currentColor"><path fill-rule="evenodd" d="M10.889 2.3a.7.7 0 0 0-.62 1.025l.603 1.15C8.488 4.716 6.75 5.705 5.575 6.7a9.5 9.5 0 0 0-1.48 1.573 8 8 0 0 0-.266.379H2a.7.7 0 0 0-.574 1.101l2.096 2.996v6.173c0 .495 0 .926.04 1.265.04.346.135.75.455 1.054.313.298.719.384 1.07.421.349.037.796.037 1.32.037h11.187c.523 0 .97 0 1.32-.037s.756-.123 1.069-.42c.32-.306.415-.71.455-1.055.04-.339.04-.77.04-1.265V12.75l2.096-2.996A.7.7 0 0 0 22 8.653h-1.829a8 8 0 0 0-.265-.38 9.5 9.5 0 0 0-1.481-1.572c-1.175-.995-2.913-1.984-5.297-2.227l.603-1.149a.7.7 0 0 0-.62-1.025zM12 20.3h5.556c.572 0 .944 0 1.21-.03.14-.014.211-.033.243-.044.01-.03.026-.09.039-.2.029-.248.03-.596.03-1.144v-8.829H4.922v8.83c0 .547.001.895.03 1.143.013.11.029.17.039.2.032.01.103.03.242.045.267.028.64.03 1.212.03zM6.48 7.77c-.36.304-.657.609-.895.883h12.83a8 8 0 0 0-.895-.884c-1.148-.971-2.937-1.951-5.52-1.951s-4.372.98-5.52 1.951" clip-rule="evenodd"/></svg>