<svg xmlns="http://www.w3.org/2000/svg" width="24" height="24" viewBox="0 0 24 24" fill="currentColor"><path fill-rule="evenodd" d="M11.448 18.808a.7.7 0 0 1-.49.2.74.74 0 0 1-.5-.17l-5.62-5.63a1.7 1.7 0 0 1-.5-1.2 1.67 1.67 0 0 1 .5-1.22l5.56-5.59a.707.707 0 1 1 1 1l-5.57 5.61a.27.27 0 0 0-.09.2.28.28 0 0 0 .09.18l5.62 5.62a.69.69 0 0 1 0 1m8 0a.7.7 0 0 1-.49.2.74.74 0 0 1-.51-.21l-5.62-5.63a1.7 1.7 0 0 1-.5-1.2 1.67 1.67 0 0 1 .5-1.19l5.57-5.58a.706.706 0 1 1 1 1l-5.57 5.57a.27.27 0 0 0-.09.2.28.28 0 0 0 .09.21l5.62 5.63a.69.69 0 0 1 0 1" clip-rule="evenodd"/></svg>