<svg xmlns="http://www.w3.org/2000/svg" width="24" height="24" viewBox="0 0 24 24" fill="currentColor"><path d="M6.89 2.965C8.537 3 10.3 3.682 12 5.208c1.699-1.523 3.462-2.206 5.107-2.242a6.14 6.14 0 0 1 4.486 1.8 6.14 6.14 0 0 1 1.802 4.485c-.04 1.799-.85 3.742-2.692 5.584-.352.352-.7.663-1.049.953q-.019.022-.04.042l-4.904 4.32c-1.5 1.324-3.921 1.324-5.422 0l-4.904-4.32q-.026-.023-.048-.049c-.25-.21-.504-.43-.76-.673l-.281-.273c-1.84-1.842-2.65-3.784-2.69-5.583a6.14 6.14 0 0 1 1.8-4.486 6.14 6.14 0 0 1 4.486-1.801m-.029 1.343a4.8 4.8 0 0 0-3.506 1.408 4.8 4.8 0 0 0-1.407 3.506c.031 1.394.656 3.02 2.296 4.663.338.338.68.64 1.023.925a1 1 0 0 1 .07.068l4.839 4.264c.994.876 2.653.877 3.646 0l4.838-4.264a1 1 0 0 1 .074-.07c.343-.282.68-.583 1.019-.923 1.642-1.643 2.268-3.268 2.299-4.662a4.8 4.8 0 0 0-1.408-3.507 4.8 4.8 0 0 0-3.507-1.406c-1.394.03-3.02.656-4.663 2.296a.67.67 0 0 1-.95 0C9.882 4.964 8.255 4.338 6.861 4.308"/></svg>