<svg xmlns="http://www.w3.org/2000/svg" width="24" height="24" viewBox="0 0 24 24" fill="currentColor"><path d="M4.5 5.25a1.25 1.25 0 1 1-2.5 0 1.25 1.25 0 0 1 2.5 0M7.927 6.05h13.146a.96.96 0 0 0 .656-.256.85.85 0 0 0 .271-.619.85.85 0 0 0-.271-.618.96.96 0 0 0-.656-.257H7.927a.96.96 0 0 0-.656.257.85.85 0 0 0-.271.618.85.85 0 0 0 .271.619c.174.164.41.256.656.256M4.5 12A1.25 1.25 0 1 1 2 12a1.25 1.25 0 0 1 2.5 0M7.927 12.875h13.146a.96.96 0 0 0 .656-.256A.85.85 0 0 0 22 12a.85.85 0 0 0-.271-.619.96.96 0 0 0-.656-.256H7.927a.96.96 0 0 0-.656.256A.85.85 0 0 0 7 12a.85.85 0 0 0 .271.619c.174.164.41.256.656.256M3.25 20a1.25 1.25 0 1 0 0-2.5 1.25 1.25 0 0 0 0 2.5M21.073 19.7H7.927a.96.96 0 0 1-.656-.257.85.85 0 0 1-.271-.618.85.85 0 0 1 .271-.619.96.96 0 0 1 .656-.256h13.146c.246 0 .482.092.656.256a.85.85 0 0 1 .271.619.85.85 0 0 1-.271.618.96.96 0 0 1-.656.257"/></svg>