<svg xmlns="http://www.w3.org/2000/svg" width="24" height="24" viewBox="0 0 24 24" fill="currentColor"><path fill-rule="evenodd" d="M3.049 9.561h-.07a1 1 0 0 1-.49-.6l-.83-2.32a.702.702 0 0 1 1.32-.48l.39 1.13a9.7 9.7 0 0 1 17.61 1.44.69.69 0 0 1-.44.83.6.6 0 0 1-.23 0 .7.7 0 0 1-.66-.47 8.29 8.29 0 0 0-15-1.42l1-.35a.71.71 0 0 1 .9.42.7.7 0 0 1-.42.9l-2.38.86a1 1 0 0 1-.35.06.9.9 0 0 1-.28 0zm18.42 4.74.85 2.35a.7.7 0 0 1-.42.96.7.7 0 0 1-.24 0 .72.72 0 0 1-.66-.46l-.37-1a9.7 9.7 0 0 1-17.91-.92.7.7 0 1 1 1.32-.46 8.29 8.29 0 0 0 15.33.74l-1.1.4a.703.703 0 0 1-.48-1.32l2.38-.86a1 1 0 0 1 .78 0 1 1 0 0 1 .52.57" clip-rule="evenodd"/></svg>