<svg xmlns="http://www.w3.org/2000/svg" width="24" height="24" viewBox="0 0 24 24" fill="currentColor"><path d="M17.915 2.057a1.83 1.83 0 0 0-1.66 1 24.3 24.3 0 0 0-2.68 9.44v.14a1.81 1.81 0 0 0 1.62 1.78v5.33a2.31 2.31 0 0 0 4.61 0v-16a1.84 1.84 0 0 0-1.89-1.69m-.45 1.7a.47.47 0 0 1 .43-.27.43.43 0 0 1 .45.41v9.26h-3a.43.43 0 0 1-.45-.41 23 23 0 0 1 2.57-8.99m0 16.9a.87.87 0 0 1-.9-.85v-5.3h1.81v5.3a.88.88 0 0 1-.92.85zM10.815 3.366a.71.71 0 0 0-.7.7v6a.4.4 0 0 1-.39.4h-1.15v-6.41a.7.7 0 1 0-1.4 0v6.4h-1.18a.4.4 0 0 1-.4-.4v-6a.7.7 0 1 0-1.4 0v6a1.79 1.79 0 0 0 1.34 1.73v8a2.31 2.31 0 0 0 4.61 0v-8a1.79 1.79 0 0 0 1.37-1.73v-6a.7.7 0 0 0-.7-.69m-2.94 17.29a.88.88 0 0 1-.88-.85v-7.95h1.78v8a.87.87 0 0 1-.9.8"/></svg>