<svg xmlns="http://www.w3.org/2000/svg" width="24" height="24" viewBox="0 0 24 24" fill="currentColor"><path fill-rule="evenodd" d="M4.7 2h14.6A2.7 2.7 0 0 1 22 4.7v14.6a2.7 2.7 0 0 1-2.7 2.7H4.7A2.7 2.7 0 0 1 2 19.3V4.7A2.7 2.7 0 0 1 4.7 2m15.801 17.798c.065-.158.099-.327.099-.498V4.7a1.3 1.3 0 0 0-1.3-1.3H4.7a1.3 1.3 0 0 0-1.3 1.3v14.6a1.3 1.3 0 0 0 1.3 1.3h14.6a1.3 1.3 0 0 0 1.201-.803M14.2 9.8h3.3a.7.7 0 0 1 .7.7v3a.7.7 0 0 1-.7.7h-3.3v3.3a.7.7 0 0 1-.7.7h-3a.7.7 0 0 1-.7-.7v-3.3H6.5a.7.7 0 0 1-.7-.7v-3a.7.7 0 0 1 .7-.7h3.3V6.5a.7.7 0 0 1 .7-.7h3a.7.7 0 0 1 .7.7zm-.7 3h3.3v-1.6h-3.3a.7.7 0 0 1-.7-.7V7.2h-1.6v3.3a.7.7 0 0 1-.7.7H7.2v1.6h3.3a.7.7 0 0 1 .7.7v3.3h1.6v-3.3a.7.7 0 0 1 .7-.7" clip-rule="evenodd"/></svg>