<svg xmlns="http://www.w3.org/2000/svg" width="24" height="24" viewBox="0 0 24 24" fill="currentColor"><path d="M3.427 6.5h17.146a.96.96 0 0 0 .656-.256.85.85 0 0 0 .271-.619.85.85 0 0 0-.271-.619.96.96 0 0 0-.656-.256H3.427a.96.96 0 0 0-.656.256.85.85 0 0 0-.271.619c0 .232.098.455.271.619s.41.256.656.256M3.427 12.875h17.146a.96.96 0 0 0 .656-.256A.85.85 0 0 0 21.5 12a.85.85 0 0 0-.271-.619.96.96 0 0 0-.656-.256H3.427a.96.96 0 0 0-.656.256A.85.85 0 0 0 2.5 12a.85.85 0 0 0 .271.619c.174.164.41.256.656.256M20.573 19.25H3.427a.96.96 0 0 1-.656-.256.85.85 0 0 1-.271-.619.85.85 0 0 1 .271-.619.96.96 0 0 1 .656-.256h17.146c.246 0 .482.092.656.256a.85.85 0 0 1 .271.619.85.85 0 0 1-.271.619.96.96 0 0 1-.656.256"/></svg>