<svg xmlns="http://www.w3.org/2000/svg" width="24" height="24" viewBox="0 0 24 24" fill="currentColor"><path fill-rule="evenodd" d="M20.89 2.4H3.1c-.39 0-.7.307-.7.693v6.44c0 .743.38 1.397.95 1.793v9.58c0 .387.31.694.7.694H20.05c.39 0 .7-.307.7-.694v-9.669c.51-.396.849-1.01.849-1.704v-6.44a.707.707 0 0 0-.71-.693m-6.696 2.25v-.863h2.998V8.84a1.49 1.49 0 0 1-1.499 1.486c-.83 0-1.499-.664-1.499-1.486V4.649m-7.396 0v-.863h2.998V8.84a1.49 1.49 0 0 1-1.499 1.486c-.83 0-1.499-.664-1.499-1.486V4.649m4.558 15.563H8.227v-5.548h3.129zm4.407 0h-3.018v-5.548h3.018zm3.578 0h-2.179v-6.241a.69.69 0 0 0-.7-.694H7.517c-.39 0-.7.307-.7.694v6.241H4.74v-8.52c.62-.04 1.169-.337 1.539-.792.52.495 1.23.802 2.009.802.78 0 1.479-.307 2.009-.802.4.485 1.01.802 1.689.802.68 0 1.29-.317 1.689-.802.52.495 1.23.802 2.009.802.78 0 1.479-.307 2.009-.802.39.475.98.782 1.639.802v8.51z" clip-rule="evenodd"/></svg>