<svg xmlns="http://www.w3.org/2000/svg" width="24" height="24" viewBox="0 0 24 24" fill="currentColor"><path fill-rule="evenodd" d="M16.7 12c0 2.59-2.11 4.7-4.7 4.7S7.3 14.59 7.3 12V6.7C7.3 4.11 9.41 2 12 2s4.7 2.11 4.7 4.7zM12 3.4c-1.82 0-3.3 1.48-3.3 3.3V12c0 1.82 1.48 3.3 3.3 3.3s3.3-1.48 3.3-3.3V6.7c0-1.82-1.48-3.3-3.3-3.3m6.8 7.9c.39 0 .7.31.7.7 0 3.89-2.99 7.11-6.8 7.46v1.14h3.6c.39 0 .7.31.7.7s-.31.7-.7.7H7.7c-.39 0-.7-.31-.7-.7s.31-.7.7-.7h3.6v-1.14C7.49 19.11 4.5 15.9 4.5 12c0-.39.31-.7.7-.7s.7.31.7.7c0 3.36 2.74 6.1 6.1 6.1s6.1-2.74 6.1-6.1c0-.39.31-.7.7-.7" clip-rule="evenodd"/></svg>