<svg xmlns="http://www.w3.org/2000/svg" width="24" height="24" viewBox="0 0 24 24" fill="currentColor"><path fill-rule="evenodd" d="M8.13 2h7.74a2.7 2.7 0 0 1 2.7 2.7v14.59a2.71 2.71 0 0 1-2.7 2.71H8.13a2.71 2.71 0 0 1-2.7-2.71V4.7A2.7 2.7 0 0 1 8.13 2m7.74 1.4H8.13a1.3 1.3 0 0 0-1.3 1.3v.23h10.34V4.7a1.3 1.3 0 0 0-1.3-1.3m1.26 13.28V6.33H6.83v10.35zm-9 3.91h7.74a1.3 1.3 0 0 0 1.3-1.3v-1.21H6.83v1.21a1.3 1.3 0 0 0 1.3 1.3m4.75-1.25a.88.88 0 1 1-1.76 0 .88.88 0 0 1 1.76 0" clip-rule="evenodd"/></svg>