<svg xmlns="http://www.w3.org/2000/svg" width="24" height="24" viewBox="0 0 24 24" fill="currentColor"><path d="M14.48 10.525c1.07-.34 1.73-.66 2.4-1.18.7.53 1.3.84 2.34 1.17.16-.4.28-.63.53-.95-.94-.19-1.52-.41-2.18-.85.28-.32.49-.62.69-.99.2-.38.29-.63.43-1.18h.14c.31 0 .55.01.79.04v-.93c-.25.03-.49.04-.83.04h-1.52v-.39c0-.15.01-.28.04-.4h-1.04c.02.13.04.26.04.41v.38h-1.43c-.33 0-.58-.01-.82-.04v.93c.24-.02.51-.04.8-.04h.12c.17.55.26.76.46 1.12.21.38.44.71.75 1.05-.58.4-1.19.65-2.22.91.25.32.37.55.5.9zm1.48-3.97h1.74c-.13.46-.19.62-.36.91-.14.25-.28.46-.47.67-.19-.2-.34-.39-.5-.67-.19-.32-.28-.52-.4-.91zm6.46 8.12c.12.26.08.57-.12.78-.14.15-.32.23-.52.23-.08 0-.17-.02-.25-.05s-.81-.33-1.73-1.24c-.3-.3-.54-.59-.72-.82-.63.18-1.3.27-1.98.29h-.21c-.78 0-1.52-.11-2.23-.31-.07-.58-.23-1.13-.46-1.65.81.36 1.73.57 2.7.57h.17c.73-.02 1.42-.14 2.07-.37.08-.03.16-.04.23-.04.24 0 .46.12.6.33 0 0 .13.2.35.48-.1-.59-.04-.99-.03-1.04.03-.19.13-.35.29-.46 1.23-.87 1.93-2.11 1.93-3.42 0-2.5-2.51-4.53-5.6-4.53s-5.6 2.03-5.6 4.53c0 .31.04.61.12.91-.47-.28-.97-.51-1.51-.69 0-.07-.02-.14-.02-.21 0-3.27 3.14-5.93 7-5.93s7 2.66 7 5.93c0 1.66-.81 3.23-2.24 4.35 0 .2.04.5.17.86.33.98.59 1.53.6 1.54zM7.1 8.275c-3.86 0-7 2.66-7 5.93 0 1.66.81 3.23 2.24 4.35 0 .2-.05.5-.17.86-.33.98-.59 1.53-.6 1.54-.12.26-.08.57.12.78.14.15.32.23.52.23.08 0 .17-.02.25-.05s.81-.33 1.73-1.24c.3-.3.54-.59.72-.82.63.17 1.31.27 2.05.29h.15c2.62 0 4.99-1.22 6.2-3.18.53-.86.8-1.78.8-2.75 0-3.27-3.14-5.93-7-5.93zm5.02 7.94c-.96 1.55-2.87 2.52-5.07 2.52h-.12c-.73-.02-1.42-.14-2.06-.37a.704.704 0 0 0-.83.29s-.13.2-.35.48c.1-.59.04-.99.03-1.04a.67.67 0 0 0-.29-.46c-1.23-.87-1.93-2.11-1.93-3.42 0-2.5 2.51-4.53 5.6-4.53s5.6 2.03 5.6 4.53c0 .7-.2 1.38-.59 2.01zm-5.59-4.8-2.04 5.24h1.13l.42-1.16h2.17l.42 1.16h1.13l-2.03-5.24zm-.17 3.2.77-2.14.77 2.14z"/></svg>