<svg xmlns="http://www.w3.org/2000/svg" width="24" height="24" viewBox="0 0 24 24" fill="currentColor"><path d="M10.8 14.795h-.02l.009-.001zM14.12 9.765c.27-.27.72-.27.99 0s.27.72 0 .99l-3.83 3.83a.7.7 0 0 1-.491.209.69.69 0 0 1-.49-.209l-1.97-1.97a.706.706 0 0 1 0-.99c.27-.27.72-.27.99 0l1.47 1.47z"/><path fill-rule="evenodd" d="M12 5.313A6.69 6.69 0 0 1 18.688 12l-.009.345A6.69 6.69 0 0 1 12 18.689l-.343-.01a6.69 6.69 0 0 1 .343-13.366m0 1.4a5.287 5.287 0 1 0 0 10.575 5.287 5.287 0 0 0 0-10.575" clip-rule="evenodd"/><path fill-rule="evenodd" d="M12 1.305c.76 0 1.29.59 1.75 1.12.2.23.5.57.65.61.17.04.6-.1.92-.21.65-.22 1.39-.46 2.03-.09.65.38.81 1.15.94 1.82.06.3.15.76.27.88.11.11.57.21.88.27.68.14 1.45.29 1.82.94s.13 1.38-.09 2.03c-.11.32-.25.75-.21.92.04.15.38.45.61.65.52.46 1.12.99 1.12 1.75s-.59 1.29-1.12 1.75c-.23.2-.57.5-.61.65-.04.17.1.6.21.92.22.65.46 1.39.09 2.03-.38.65-1.15.81-1.82.94-.3.06-.76.15-.88.27s-.21.57-.27.88c-.14.68-.29 1.45-.95 1.82-.64.37-1.38.13-2.03-.09-.32-.1-.75-.26-.92-.21-.151.04-.45.38-.65.61-.46.52-.99 1.12-1.75 1.12l.01.01c-.77 0-1.29-.59-1.75-1.12-.2-.23-.5-.57-.65-.61-.161-.04-.601.1-.92.21-.65.22-1.39.47-2.03.09-.65-.38-.81-1.15-.94-1.82-.06-.3-.15-.76-.27-.88s-.57-.21-.88-.27c-.68-.14-1.45-.29-1.82-.95-.37-.64-.13-1.38.09-2.03.11-.32.25-.75.21-.92-.04-.15-.38-.45-.61-.65-.52-.46-1.12-.99-1.12-1.75s.59-1.29 1.12-1.75c.23-.2.57-.5.61-.65.04-.17-.1-.6-.21-.92-.22-.65-.46-1.39-.09-2.03.38-.65 1.15-.81 1.82-.94.3-.06.76-.15.88-.27.11-.11.21-.57.27-.88.14-.68.29-1.45.94-1.82s1.38-.13 2.03.09c.319.11.739.25.92.21.15-.04.45-.38.65-.61.46-.52.99-1.12 1.75-1.12m-.01 1.39c-.14 0-.52.44-.7.64-.38.44-.78.89-1.34 1.04-.57.15-1.18-.05-1.72-.23-.26-.09-.76-.25-.89-.2-.11.09-.21.61-.27.89-.12.58-.24 1.18-.65 1.59s-1.01.53-1.59.65c-.28.06-.8.16-.89.28-.04.13.12.62.21.89.18.54.38 1.15.23 1.72-.15.55-.6.95-1.04 1.34-.21.18-.64.56-.64.7s.44.52.64.7c.44.39.89.78 1.04 1.34.15.57-.05 1.18-.23 1.72-.09.26-.25.76-.2.89.09.11.61.21.89.27.58.12 1.18.24 1.59.65s.53 1.01.65 1.59c.06.28.16.8.28.89.13.05.62-.12.88-.21.41-.14.85-.29 1.29-.29.14 0 .29.02.43.05.56.15.95.6 1.34 1.04.18.21.56.63.7.64.14 0 .52-.44.7-.64.38-.44.78-.89 1.34-1.04.57-.15 1.18.05 1.72.23.26.09.76.25.89.2.11-.09.21-.61.27-.89.12-.58.24-1.18.65-1.59s1.01-.53 1.59-.65c.28-.06.8-.16.89-.28.04-.13-.12-.62-.21-.88-.18-.54-.38-1.15-.23-1.72.15-.56.6-.95 1.04-1.34.21-.18.63-.56.64-.7 0-.14-.44-.52-.64-.7-.44-.39-.89-.78-1.04-1.34-.15-.57.05-1.18.23-1.72.09-.26.25-.76.2-.89-.09-.11-.61-.21-.89-.27-.58-.12-1.18-.24-1.59-.65s-.53-1.01-.65-1.59c-.06-.28-.16-.8-.28-.89-.13-.04-.62.12-.88.21-.54.18-1.15.38-1.72.23-.55-.15-.95-.6-1.34-1.04-.18-.21-.56-.64-.7-.64" clip-rule="evenodd"/></svg>