<svg xmlns="http://www.w3.org/2000/svg" width="24" height="24" viewBox="0 0 24 24" fill="currentColor"><path d="M16.8 11.77a4.801 4.801 0 0 0-9.6 0 4.801 4.801 0 0 0 9.6 0m-4.8 3.4c-1.88 0-3.4-1.52-3.4-3.4s1.52-3.4 3.4-3.4 3.4 1.52 3.4 3.4-1.52 3.4-3.4 3.4M3 8.39V5.1C3 3.94 3.94 3 5.1 3h3.29c.39 0 .7.31.7.7s-.31.7-.7.7H5.1c-.39 0-.7.31-.7.7v3.29c0 .39-.31.7-.7.7s-.7-.31-.7-.7m18 7.22v3.29a2.1 2.1 0 0 1-2.1 2.1h-3.29c-.39 0-.7-.31-.7-.7s.31-.7.7-.7h3.29c.39 0 .7-.31.7-.7v-3.29c0-.39.31-.7.7-.7s.7.31.7.7M9.09 20.3c0 .39-.31.7-.7.7H5.1A2.1 2.1 0 0 1 3 18.9v-3.29c0-.39.31-.7.7-.7s.7.31.7.7v3.29c0 .39.31.7.7.7h3.29c.39 0 .7.31.7.7M21 5.1v3.29c0 .39-.31.7-.7.7s-.7-.31-.7-.7V5.1c0-.39-.31-.7-.7-.7h-3.29c-.39 0-.7-.31-.7-.7s.31-.7.7-.7h3.29c1.16 0 2.1.94 2.1 2.1"/></svg>