<svg xmlns="http://www.w3.org/2000/svg" width="24" height="24" viewBox="0 0 24 24" fill="currentColor"><path d="M16.915 13.622c-.63-.25-1.12-.77-1.36-1.42v-.02a3.8 3.8 0 0 0-3.53-2.37c-1.56 0-2.95.93-3.54 2.38v.01c-.23.64-.73 1.15-1.36 1.41-1.48.56-2.47 2-2.47 3.58 0 2.1 1.71 3.81 3.81 3.81.49 0 .96-.09 1.4-.26h.02c1.39-.49 2.97-.48 4.33 0h.02a3.815 3.815 0 0 0 5.17-3.56c0-1.58-.99-3.01-2.47-3.57zm-1.35 5.98c-.31 0-.61-.06-.89-.17h-.01c-1.66-.6-3.58-.61-5.27 0 0 0-.01 0-.02.01h-.01c-.28.11-.59.17-.92.17-1.33 0-2.41-1.08-2.41-2.41 0-1.01.64-1.92 1.58-2.28h.01c.97-.39 1.73-1.18 2.11-2.15 0-.02.02-.03.03-.04a2.4 2.4 0 0 1 2.24-1.51c.99 0 1.86.59 2.24 1.5l.01.02c.38 1 1.15 1.8 2.13 2.19h.02c.95.35 1.58 1.26 1.58 2.27 0 1.33-1.08 2.41-2.41 2.41zm-8.86-12.53c.1.62.43 1.17.94 1.54.41.3.89.46 1.39.46.1 0 .2 0 .31-.02h.06a2.364 2.364 0 0 0 1.97-2.69l-.2-1.36c-.2-1.28-1.4-2.17-2.7-1.97-.62.1-1.17.43-1.54.94s-.53 1.13-.43 1.75l.2 1.36zm1.36-2.28a.93.93 0 0 1 .63-.38c.05 0 .1-.01.15-.01.46 0 .87.34.95.81l.2 1.36c.08.51-.26.99-.76 1.09h-.04a.95.95 0 0 1-1.09-.79l-.2-1.36c-.04-.25.02-.51.17-.71zm-1.5 6.8c.23-.54.23-1.13.01-1.67l-.37-.92a2.19 2.19 0 0 0-2.84-1.2 2.2 2.2 0 0 0-1.19 1.17 2.15 2.15 0 0 0-.01 1.67l.37.92c.22.54.64.96 1.17 1.19.27.12.56.17.84.17s.56-.05.82-.16c.54-.22.96-.64 1.18-1.17zm-1.29-.54c-.08.19-.23.34-.42.42s-.4.08-.59 0a.79.79 0 0 1-.42-.42l-.37-.92a.78.78 0 0 1 .71-1.08c.31 0 .6.18.72.48l.37.92c.08.19.08.4 0 .6m9.34-2.01h.06c.1.02.2.03.31.03.5 0 .98-.16 1.39-.46.51-.37.84-.92.94-1.55l.2-1.35c.1-.62-.06-1.25-.43-1.75-.37-.51-.92-.84-1.55-.94a2.37 2.37 0 0 0-2.69 1.98l-.2 1.35a2.36 2.36 0 0 0 1.97 2.69m-.39-3.83a.968.968 0 0 1 1.73-.42c.15.21.21.46.17.72l-.2 1.35a.95.95 0 0 1-1.09.8h-.03a.973.973 0 0 1-.78-1.1zm7.61 3.77c-.23-.54-.65-.95-1.18-1.17-1.11-.45-2.38.08-2.84 1.2l-.37.92c-.22.54-.22 1.13.01 1.67s.65.95 1.18 1.17c.27.11.54.16.82.16s.57-.06.84-.17c.54-.23.95-.65 1.17-1.19l.37-.92c.22-.54.22-1.13-.01-1.67zm-1.29 1.14-.37.92c-.08.19-.23.34-.42.42s-.4.08-.59 0a.78.78 0 0 1-.42-1.02l.37-.92c.12-.3.42-.49.72-.49a.785.785 0 0 1 .71.48c.08.19.08.4 0 .6z"/></svg>