<svg xmlns="http://www.w3.org/2000/svg" width="24" height="24" viewBox="0 0 24 24" fill="currentColor"><path d="M16.28 21a6 6 0 0 1-1-.1 11.7 11.7 0 0 1-3.86-1.61 21.2 21.2 0 0 1-3.7-3 20.8 20.8 0 0 1-3-3.71 11.4 11.4 0 0 1-1.6-3.84 5.4 5.4 0 0 1-.11-1 4.9 4.9 0 0 1 .29-1.65A5.2 5.2 0 0 1 4.47 4.2l.09-.08s.19-.18.35-.32l.4-.32.13-.1A2.43 2.43 0 0 1 6.69 3h.15c.52.04 1.01.255 1.39.61l.14.15.12.17 2.07 3.68.32.86a.7.7 0 0 1-.3.85l-.59.39h-.05l-.54.38.75.9c.37.41.81.88 1.34 1.42l.1.1c.53.53 1 1 1.4 1.32l.9.75.81-1.19a.7.7 0 0 1 .81-.29l.9.28.11.05.16.08 3.31 1.95.09.06.34.28a.8.8 0 0 1 .17.22c.21.29.347.626.4.98v.28c0 .398-.108.788-.31 1.13a.8.8 0 0 1-.09.15l-.07.1-.32.4-.36.4a5.4 5.4 0 0 1-1.85 1.25 5 5 0 0 1-1.71.29M6.72 4.41h-.06a.8.8 0 0 0-.44.15h-.07l-.33.26c-.11.1-.23.2-.26.24l-.09.09a3.7 3.7 0 0 0-.86 1.33 3.4 3.4 0 0 0-.2 1.17q-.003.385.08.76a10.4 10.4 0 0 0 1.41 3.37c.8 1.252 1.74 2.41 2.8 3.45 1.04 1.06 2.198 2 3.45 2.8a10.4 10.4 0 0 0 3.39 1.42 3.5 3.5 0 0 0 1.91-.13 4 4 0 0 0 1.39-.91q.144-.147.27-.31.146-.162.27-.34l.09-.11a.86.86 0 0 0 .1-.41v-.11a.8.8 0 0 0-.15-.36v-.06l-.13-.11-3.36-1.9-.33-.1-1 1.37a.7.7 0 0 1-1 .17l-.33-.14c-.38-.28-.8-.62-1.25-1s-.91-.83-1.47-1.38l-.1-.1c-.56-.56-1-1.06-1.4-1.49s-.74-.87-1-1.25l-.24-.33a.7.7 0 0 1 .17-1l1.09-.76.12-.1.18-.1L9.19 8l-1.9-3.32a1 1 0 0 0-.57-.27"/></svg>