<svg xmlns="http://www.w3.org/2000/svg" width="24" height="24" viewBox="0 0 24 24" fill="currentColor"><path fill-rule="evenodd" d="M20.3 3H6.47a.7.7 0 0 0-.7.7v13.83a.7.7 0 0 0 .7.7H20.3a.7.7 0 0 0 .7-.7V3.7a.7.7 0 0 0-.7-.7m-.7 13.83H7.17V4.4H19.6zm-7.48-9.01a1.69 1.69 0 1 1-3.38 0 1.69 1.69 0 0 1 3.38 0M17 15.1H9.44a.89.89 0 0 1-.63-1.52L10.44 12a.89.89 0 0 1 1.25 0l.52.45 1.69-1.69a1.21 1.21 0 0 1 1.72 0L17.86 13a1.22 1.22 0 0 1-.86 2.1M4.4 19.6h13.13a.7.7 0 1 1 0 1.4H3.7a.7.7 0 0 1-.7-.7V6.47a.7.7 0 0 1 1.4 0z" clip-rule="evenodd"/></svg>