<svg xmlns="http://www.w3.org/2000/svg" width="24" height="24" viewBox="0 0 24 24" fill="currentColor"><path d="m21.25 9.671-1.46-1.46-2-2-3.46-3.45a.706.706 0 0 0-.99 0c-.27.27-.27.72 0 .99l.96.96-4.18 4.18-3.44.67a.73.73 0 0 0-.54.48c-.08.25 0 .52.17.7l2.95 2.95-6.53 6.55a.706.706 0 0 0 .5 1.2c.18 0 .36-.07.5-.21l6.55-6.55 3.01 3.01a.71.71 0 0 0 .74.17.71.71 0 0 0 .46-.59l.3-3.04 4.52-4.53.96.96c.14.14.32.21.5.21a.705.705 0 0 0 .5-1.2zm-7.65 3.74c-.11.11-.19.26-.2.43l-.18 1.82-4.98-4.98 2.35-.46a.7.7 0 0 0 .36-.19l4.33-4.33 1.5 1.5 1.51 1.51-4.7 4.7z"/></svg>