<svg xmlns="http://www.w3.org/2000/svg" width="24" height="24" viewBox="0 0 24 24" fill="currentColor"><path fill-rule="evenodd" d="M6.444 3.685a10 10 0 1 1 11.112 16.63A10 10 0 0 1 6.444 3.685m.778 15.466A8.6 8.6 0 0 0 12 20.6a8.61 8.61 0 0 0 8.6-8.6 8.6 8.6 0 1 0-13.378 7.15M10 7h3.17a3.14 3.14 0 0 1 2.1.81 3.2 3.2 0 0 1 .89 2.39 2.88 2.88 0 0 1-2.9 3.05h-2.73V16a.7.7 0 1 1-1.4 0V7.86A.87.87 0 0 1 10 7m.55 4.86h2.73v-.01a1.478 1.478 0 0 0 1.5-1.65 1.84 1.84 0 0 0-.47-1.38 1.73 1.73 0 0 0-1.12-.43h-2.64z" clip-rule="evenodd"/></svg>