<svg xmlns="http://www.w3.org/2000/svg" width="24" height="24" viewBox="0 0 24 24" fill="currentColor"><path d="M20.4 7.45h-3.28s.05-.04.07-.06c1.23-1.24 1.24-3.24.01-4.47a3.157 3.157 0 0 0-4.46.01c-.32.32-.57.83-.76 1.41-.2-.58-.45-1.09-.76-1.41a3.16 3.16 0 0 0-4.47-.01c-1.23 1.23-1.22 3.23.01 4.47.02.02.05.04.07.06H3.6c-.39 0-.7.31-.7.7V12c0 .39.31.7.7.7H4v8.6c0 .39.31.7.7.7h14.6c.39 0 .7-.31.7-.7v-8.6h.4c.39 0 .7-.31.7-.7V8.15c0-.39-.31-.7-.7-.7m-.7 3.85h-7V8.85h7zm-5.97-7.38c.35-.35.8-.52 1.25-.52s.89.17 1.23.51c.68.68.68 1.8-.01 2.49-.44.44-2.07.79-3.44.97.17-1.36.53-3 .97-3.44zm-5.99-.01c.34-.34.78-.51 1.23-.51s.91.17 1.26.52c.44.44.79 2.07.97 3.44-1.37-.17-3-.53-3.44-.97-.69-.69-.7-1.8-.01-2.49zM4.3 8.85h7v2.45h-7zm1.1 3.85h5.9v7.9H5.4zm13.2 7.9h-5.9v-7.9h5.9z"/></svg>