<svg xmlns="http://www.w3.org/2000/svg" width="24" height="24" viewBox="0 0 24 24" fill="currentColor"><path fill-rule="evenodd" d="M3.7 9.93h5.53a.7.7 0 0 0 .7-.7V3.7a.7.7 0 0 0-.7-.7H3.7a.7.7 0 0 0-.7.7v5.53a.7.7 0 0 0 .7.7m.7-5.53h4.13v4.13H4.4zm2.98 1.14H5.54v1.84h1.84zM14.77 3h5.53a.7.7 0 0 1 .7.7v5.53a.7.7 0 0 1-.7.7h-5.53a.7.7 0 0 1-.7-.7V3.7a.7.7 0 0 1 .7-.7m.7 5.53h4.13V4.4h-4.13zm2.98-2.99h-1.84v1.84h1.84zM3.7 14.07h5.53a.7.7 0 0 1 .7.7v5.53a.7.7 0 0 1-.7.7H3.7a.7.7 0 0 1-.7-.7v-5.53a.7.7 0 0 1 .7-.7m.7 5.53h4.13v-4.13H4.4zm2.98-2.99H5.54v1.84h1.84zM3.7 12h1.38v1.38H3.7zm9.68-1.38V9.23H12V7.85h-1.38v2.77H9.23V12H7.85v-1.38H5.08V12h1.39v1.38h4.15V12H12v-1.38zm0-5.54v2.77H12V6.47h-1.38V3.7H12v1.38zm-2.76 13.84v1.38h2.76v-1.38h-2.76M13.38 12v2.77H12V12zm1.38-1.38h-1.38V12h1.38zm1.39 0h1.38V12h1.39v2.77h1.38v1.38h-2.77v2.77h-1.38v1.38h-1.38v-2.77h1.38v-2.76h1.38v-1.39h-1.38v1.39h-.92v1.38h-.46v1.38h-4.15v-2.76H12v1.38h1.38v-1.38h1.39V12h1.38zm4.15 0h-1.38V12h1.38zm0 9.68h-2.77v-1.38h1.39v-1.39h1.38v2.77" clip-rule="evenodd"/></svg>