<svg xmlns="http://www.w3.org/2000/svg" width="24" height="24" viewBox="0 0 24 24" fill="currentColor"><path d="M11.15 17.81a3.5 3.5 0 0 0 3.49-3.49c0-.39-.31-.7-.7-.7H8.36c-.39 0-.7.31-.7.7a3.5 3.5 0 0 0 3.49 3.49m1.97-2.79a2.092 2.092 0 0 1-3.94 0zm-.02-4.05c0-.46.37-.84.84-.84s.84.37.84.84-.37.84-.84.84-.84-.37-.84-.84m9.75-5.62c0 .39-.31.7-.7.7h-2.8v2.8c0 .39-.31.7-.7.7s-.7-.31-.7-.7v-2.8h-2.8c-.39 0-.7-.31-.7-.7s.31-.7.7-.7h2.8v-2.8c0-.39.31-.7.7-.7s.7.31.7.7v2.8h2.8c.39 0 .7.31.7.7M8.36 11.81c-.46 0-.84-.37-.84-.84s.37-.84.84-.84.84.37.84.84-.37.84-.84.84M21 11.23c.1.58.15 1.11.15 1.62 0 5.51-4.49 10-10 10s-10-4.49-10-10 4.49-10 10-10c.51 0 1.04.05 1.62.15.38.06.64.42.58.81a.69.69 0 0 1-.81.57c-.51-.08-.96-.13-1.39-.13-4.74 0-8.6 3.86-8.6 8.6s3.86 8.6 8.6 8.6 8.6-3.86 8.6-8.6c0-.43-.04-.88-.13-1.39-.06-.38.19-.74.58-.81.39-.06.74.19.81.58z"/></svg>