<svg xmlns="http://www.w3.org/2000/svg" width="24" height="24" viewBox="0 0 24 24" fill="currentColor"><path d="M12.38 2c1.86 0 3.68.51 5.26 1.46s2.87 2.31 3.73 3.94a9.8 9.8 0 0 1 1.11 5.27 9.93 9.93 0 0 1-1.82 5.08 10.1 10.1 0 0 1-4.23 3.41c-1.7.73-3.57.99-5.41.75S7.44 20.93 6 19.79a10 10 0 0 1-3.17-4.38.7.7 0 0 1 .02-.55c.08-.17.23-.31.41-.37a.73.73 0 0 1 .94.43 8.56 8.56 0 0 0 3.67 4.44 8.72 8.72 0 0 0 5.69 1.15 8.7 8.7 0 0 0 5.15-2.65 8.446 8.446 0 0 0 .69-10.77 8.7 8.7 0 0 0-4.77-3.27 8.74 8.74 0 0 0-5.79.44 8.65 8.65 0 0 0-4.21 3.95l1.19-.42c.09-.03.19-.05.28-.05.1 0 .19.03.28.07s.17.1.23.17.11.15.15.25c.03.09.04.19.03.28 0 .09-.04.19-.08.27a.76.76 0 0 1-.43.36l-2.49.89q-.165.06-.36.06c-.15 0-.31-.03-.45-.09-.13-.06-.24-.14-.34-.24s-.17-.22-.22-.35l-.89-2.42a.75.75 0 0 1 .03-.55c.08-.17.23-.31.41-.38.09-.03.19-.05.28-.04.1 0 .19.03.28.07s.17.1.23.17q.105.105.15.24l.38 1.03c.85-1.64 2.14-3.02 3.74-3.99C8.62 2.58 10.51 2 12.38 2"/><path d="M9.35 7.2c.32-.22.76-.13.97.19l2.28 3.41 2.28-3.41c.21-.32.65-.4.97-.19s.4.65.19.97l-2.13 3.2h1.98c.39 0 .7.31.7.7s-.31.7-.7.7H13.3v.83h2.59c.39 0 .7.31.7.7s-.31.7-.7.7H13.3v1.79c0 .39-.31.7-.7.7s-.7-.31-.7-.7V15H9.33c-.39 0-.7-.31-.7-.7s.31-.7.7-.7h2.57v-.83H9.33c-.39 0-.7-.31-.7-.7s.31-.7.7-.7h1.96l-2.13-3.2a.694.694 0 0 1 .19-.97"/></svg>