<svg xmlns="http://www.w3.org/2000/svg" width="24" height="24" viewBox="0 0 24 24" fill="currentColor"><path d="M12.376 2c1.856.004 3.675.509 5.26 1.46a10.06 10.06 0 0 1 3.727 3.94 9.88 9.88 0 0 1-.709 10.352 10.1 10.1 0 0 1-4.23 3.41c-1.7.733-3.572.992-5.411.75a10.2 10.2 0 0 1-5.02-2.125 10 10 0 0 1-3.175-4.385.72.72 0 0 1 .025-.553.73.73 0 0 1 .414-.374.75.75 0 0 1 .561.024.73.73 0 0 1 .38.408 8.56 8.56 0 0 0 3.67 4.443 8.76 8.76 0 0 0 5.69 1.154 8.7 8.7 0 0 0 5.151-2.652 8.48 8.48 0 0 0 2.29-5.264 8.45 8.45 0 0 0-1.6-5.506 8.66 8.66 0 0 0-4.773-3.27 8.77 8.77 0 0 0-5.793.442 8.6 8.6 0 0 0-4.206 3.952l1.192-.423a.73.73 0 0 1 .795.189.7.7 0 0 1 .147.245.71.71 0 0 1-.23.771.7.7 0 0 1-.252.136l-2.489.887q-.172.06-.355.061a1.045 1.045 0 0 1-1.004-.69l-.889-2.423a.724.724 0 0 1 .44-.928.74.74 0 0 1 .792.19q.1.107.149.243l.376 1.031A10.1 10.1 0 0 1 7.037 3.51a10.27 10.27 0 0 1 5.297-1.479z"/><path fill-rule="evenodd" d="M12.897 6.674c1.054.089 1.69.343 2.275.89.483.47.699.877.864 1.703l-1.741.28c-.076-.496-.19-.75-.457-1.03-.254-.267-.522-.381-.941-.445v2.81c1.296.28 1.868.483 2.376.877.7.534 1.005 1.195 1.005 2.148 0 1.093-.445 1.945-1.284 2.466-.585.356-1.17.521-2.097.572V18h-.865v-1.067c-1.17-.077-1.982-.37-2.567-.93-.509-.482-.737-1.016-.864-1.994l1.792-.293c.063.737.165 1.004.47 1.322.293.305.66.458 1.17.496v-3.14c-1.183-.254-1.615-.406-2.15-.762-.66-.445-1.054-1.233-1.054-2.123 0-.966.445-1.767 1.233-2.276.585-.355 1.131-.521 1.97-.572V6h.864zm0 8.873c1.029-.09 1.588-.636 1.588-1.55 0-.446-.139-.777-.406-1.006-.203-.165-.458-.266-1.183-.431zm-.865-7.475c-.432.026-.699.114-.978.33a1.2 1.2 0 0 0-.496.98c0 .42.178.762.483.966.254.165.496.266.991.38z" clip-rule="evenodd"/></svg>