<svg xmlns="http://www.w3.org/2000/svg" width="24" height="24" viewBox="0 0 24 24" fill="currentColor"><path fill-rule="evenodd" d="M4.577 18.808a.7.7 0 0 0 .44.2.74.74 0 0 0 .5-.2l5.63-5.6a1.73 1.73 0 0 0 .49-1.2 1.7 1.7 0 0 0-.48-1.23l-5.58-5.58a.707.707 0 1 0-1 1l5.62 5.57a.27.27 0 0 1 .09.2.28.28 0 0 1-.09.21l-5.62 5.63a.69.69 0 0 0 0 1m7.95 0a.7.7 0 0 0 .49.2.74.74 0 0 0 .5-.2l5.63-5.6a1.73 1.73 0 0 0 .49-1.2 1.7 1.7 0 0 0-.48-1.23l-5.58-5.58a.707.707 0 0 0-1 1l5.58 5.57a.3.3 0 0 1 .08.2.3.3 0 0 1-.08.21l-5.63 5.63a.69.69 0 0 0 0 1" clip-rule="evenodd"/></svg>