<svg xmlns="http://www.w3.org/2000/svg" width="24" height="24" viewBox="0 0 24 24" fill="currentColor"><path fill-rule="evenodd" d="M6.444 3.685a10 10 0 1 1 11.112 16.63A10 10 0 0 1 6.444 3.685m.778 15.466A8.6 8.6 0 0 0 12 20.6a8.61 8.61 0 0 0 8.6-8.6 8.6 8.6 0 1 0-13.378 7.15M9.57 11.57 9 11l-.58.57a.7.7 0 0 1-.49.2.74.74 0 0 1-.5-.2.71.71 0 0 1 0-1L8 10l-.57-.56a.71.71 0 0 1 0-1 .69.69 0 0 1 1 0L9 9l.57-.56a.69.69 0 0 1 1 0 .71.71 0 0 1 0 1L10 10l.56.57a.71.71 0 0 1 0 1 .74.74 0 0 1-.5.2.7.7 0 0 1-.49-.2m6.99-3.14a.69.69 0 0 0-1 0L15 9l-.57-.56a.69.69 0 0 0-1 0 .71.71 0 0 0 0 1L14 10l-.57.57a.71.71 0 0 0 0 1 .74.74 0 0 0 .5.2.7.7 0 0 0 .49-.2L15 11l.57.57a.7.7 0 0 0 .49.2.74.74 0 0 0 .5-.2.71.71 0 0 0 0-1L16 10l.57-.56a.71.71 0 0 0-.01-1.01m-4.25 5.44 3 1.5A.7.7 0 0 1 15 16.7a.7.7 0 0 1-.31-.07L12 15.28l-2.69 1.35a.702.702 0 1 1-.62-1.26l3-1.5a.75.75 0 0 1 .62 0" clip-rule="evenodd"/></svg>