<svg xmlns="http://www.w3.org/2000/svg" width="24" height="24" viewBox="0 0 24 24" fill="currentColor"><path d="m21.123 5.24-2.36-2.36a1.62 1.62 0 0 0-2.26.11l-12.82 12.8a.8.8 0 0 0-.19.35l-1 4.53a.68.68 0 0 0 .18.65.74.74 0 0 0 .5.2q.075.015.15 0l4.53-1a.8.8 0 0 0 .35-.19L21.013 7.5a1.74 1.74 0 0 0 .51-1.1 1.52 1.52 0 0 0-.4-1.16M9.833 16.71l-.77-.78 7.2-7.2.78.78zm-1.76-1.72-.78-.77 7.2-7.23.78.78zm-.71 4.24-1.64.36-1.26-1.31.36-1.64 1.48-1.48 2.54 2.54zm12.65-12.72-2 2-2.53-2.52 2-2c.12-.11.25-.12.28-.09l2.36 2.36c.07.04-.01.18-.11.25"/></svg>