<svg xmlns="http://www.w3.org/2000/svg" width="24" height="24" viewBox="0 0 24 24" fill="currentColor"><path d="m17.583 9.255 4.5.5.075.012c.372.08.63.43.587.816l-.5 4.5a.75.75 0 0 1-1.49-.166l.296-2.664-7.074 5.826a.75.75 0 0 1-.946.007l-2.028-1.623-7.53 6.119a.75.75 0 1 1-.946-1.164l8-6.5.108-.073a.75.75 0 0 1 .834.07l2.024 1.618 6.66-5.484-2.736-.304-.075-.012a.75.75 0 0 1 .164-1.483zM10.232 9.232c-1.506 0-2.464-.95-2.464-2.464A.766.766 0 0 0 7 6a.766.766 0 0 0-.768.768c0 1.506-.95 2.464-2.464 2.464A.766.766 0 0 0 3 10c0 .426.342.768.768.768 1.506 0 2.464.95 2.464 2.464 0 .426.342.768.768.768a.766.766 0 0 0 .768-.768c0-1.506.95-2.464 2.464-2.464A.766.766 0 0 0 11 10a.766.766 0 0 0-.768-.768M16.42 5.42c-1.134 0-1.84-.717-1.84-1.84A.574.574 0 0 0 14 3a.573.573 0 0 0-.58.58c0 1.134-.717 1.84-1.84 1.84A.574.574 0 0 0 11 6c0 .324.255.58.58.58 1.134 0 1.84.717 1.84 1.84 0 .325.256.58.58.58s.58-.255.58-.58c0-1.134.717-1.84 1.84-1.84.325 0 .58-.256.58-.58a.573.573 0 0 0-.58-.58"/></svg>