<svg xmlns="http://www.w3.org/2000/svg" width="24" height="24" viewBox="0 0 24 24" fill="currentColor"><path fill-rule="evenodd" d="M15.8 12a3.8 3.8 0 1 1-7.6 0 3.8 3.8 0 0 1 7.6 0m-1.4 0a2.4 2.4 0 1 1-4.8 0 2.4 2.4 0 0 1 4.8 0" clip-rule="evenodd"/><path fill-rule="evenodd" d="M10.967 2a2.35 2.35 0 0 0-2.351 2.352.955.955 0 0 1-1.437.818 2.364 2.364 0 0 0-3.236.863L2.811 8.006a2.337 2.337 0 0 0 .853 3.184.937.937 0 0 1 0 1.62 2.337 2.337 0 0 0-.852 3.185l1.132 1.973a2.364 2.364 0 0 0 3.236.863.955.955 0 0 1 1.436.818 2.35 2.35 0 0 0 2.35 2.35h2.284a2.313 2.313 0 0 0 2.313-2.312v-.05a.884.884 0 0 1 1.328-.765 2.284 2.284 0 0 0 3.128-.838l1.17-2.038a2.337 2.337 0 0 0-.854-3.185.937.937 0 0 1 0-1.621 2.34 2.34 0 0 0 .854-3.185l-1.17-2.038a2.284 2.284 0 0 0-3.128-.838.884.884 0 0 1-1.328-.765v-.05A2.313 2.313 0 0 0 13.249 2zm-.951 2.352c0-.526.426-.952.951-.952h2.282c.505 0 .914.41.914.914v.05c0 1.761 1.908 2.86 3.431 1.975a.884.884 0 0 1 1.211.325l1.17 2.038a.94.94 0 0 1-.342 1.277c-1.551.901-1.552 3.142 0 4.043.445.259.598.83.341 1.277l-1.17 2.038a.884.884 0 0 1-1.21.325c-1.523-.885-3.431.214-3.431 1.975v.05a.913.913 0 0 1-.913.913h-2.283a.95.95 0 0 1-.951-.951c0-1.82-1.978-2.935-3.54-2.028a.964.964 0 0 1-1.318-.35l-1.132-1.973a.937.937 0 0 1 .342-1.277c1.55-.9 1.55-3.14 0-4.041a.937.937 0 0 1-.343-1.277L5.157 6.73a.964.964 0 0 1 1.319-.35c1.562.908 3.54-.21 3.54-2.028" clip-rule="evenodd"/></svg>