<svg xmlns="http://www.w3.org/2000/svg" width="24" height="24" viewBox="0 0 24 24" fill="currentColor"><path fill-rule="evenodd" d="M3.5 8.7a.7.7 0 0 1-.7-.701v-3.1c0-1.157.941-2.1 2.1-2.1H8a.7.7 0 1 1 0 1.4H4.9a.7.7 0 0 0-.7.7v3.1a.7.7 0 0 1-.7.7m17 0a.7.7 0 0 1-.7-.701v-3.1a.7.7 0 0 0-.699-.7h-3.1a.7.7 0 1 1 0-1.4h3.1c1.158 0 2.1.941 2.1 2.1v3.1a.7.7 0 0 1-.7.7M16 21.2h3.1V21.2c1.158 0 2.1-.942 2.1-2.1v-3.1a.7.7 0 1 0-1.401 0v3.1c0 .385-.314.7-.7.7H16a.7.7 0 1 0 0 1.401m-8 0H4.9c-1.159 0-2.1-.942-2.1-2.1v-3.099a.7.7 0 1 1 1.4 0v3.1c0 .385.314.7.7.7H8a.7.7 0 1 1 0 1.4m7.11-7.051 2.385 2.385v.001a.7.7 0 0 1-.99.99l-2.388-2.388A5.15 5.15 0 0 1 11 16.201 5.206 5.206 0 0 1 5.8 11C5.8 8.131 8.131 5.8 11 5.8s5.2 2.334 5.2 5.2a5.15 5.15 0 0 1-1.09 3.149M11 7.2A3.803 3.803 0 0 0 7.2 11c0 2.095 1.704 3.799 3.8 3.799s3.8-1.704 3.8-3.8-1.705-3.8-3.8-3.8" clip-rule="evenodd"/></svg>