<svg xmlns="http://www.w3.org/2000/svg" width="24" height="24" viewBox="0 0 24 24" fill="currentColor"><path fill-rule="evenodd" d="M3.4 3.4v6.2h6.2V3.4zM3 2a1 1 0 0 0-1 1v7a1 1 0 0 0 1 1h7a1 1 0 0 0 1-1V3a1 1 0 0 0-1-1zm2.3 3.3h2.4v2.4H5.3zm2.4 11H5.3v2.4h2.4zm-4.3-1.9v6.2h6.2v-6.2zM3 13a1 1 0 0 0-1 1v7a1 1 0 0 0 1 1h7a1 1 0 0 0 1-1v-7a1 1 0 0 0-1-1zm11.4-3.4V3.4h6.2v6.2zM13 3a1 1 0 0 1 1-1h7a1 1 0 0 1 1 1v7a1 1 0 0 1-1 1h-7a1 1 0 0 1-1-1zm3.3 2.3h2.4v2.4h-2.4zm5.7 8.2a.5.5 0 0 0-.5-.5h-1.667a.5.5 0 0 0-.5.5v1.667a.5.5 0 0 0 .5.5H21.5a.5.5 0 0 0 .5-.5zm-6.832-.5a.5.5 0 0 1 .5.5v1.667a.5.5 0 0 1-.5.5h-1.667a.5.5 0 0 1-.5-.5V13.5a.5.5 0 0 1 .5-.5zm3.633 3.5a.5.5 0 0 0-.5-.5h-1.667a.5.5 0 0 0-.5.5v1.667a.5.5 0 0 0 .5.5h1.667a.5.5 0 0 0 .5-.5zm2.699 2.833a.5.5 0 0 1 .5.5V21.5a.5.5 0 0 1-.5.5h-1.667a.5.5 0 0 1-.5-.5v-1.667a.5.5 0 0 1 .5-.5zm-5.832.5a.5.5 0 0 0-.5-.5h-1.667a.5.5 0 0 0-.5.5V21.5a.5.5 0 0 0 .5.5h1.667a.5.5 0 0 0 .5-.5z" clip-rule="evenodd"/></svg>