<svg xmlns="http://www.w3.org/2000/svg" width="24" height="24" viewBox="0 0 24 24" fill="currentColor"><path d="M13.95 10.12c0-.46.37-.84.84-.84s.84.37.84.84-.37.84-.84.84-.84-.37-.84-.84m-4.74.84c.46 0 .84-.37.84-.84s-.37-.84-.84-.84-.84.37-.84.84.37.84.84.84m6 2.35a.7.7 0 0 0-.85.51c-.19.75-1.2 1.31-2.36 1.31s-2.18-.56-2.36-1.31a.7.7 0 0 0-.85-.51c-.38.09-.6.47-.51.85.34 1.37 1.91 2.37 3.72 2.37s3.38-1 3.72-2.37a.697.697 0 0 0-.51-.85M22 12c0 5.51-4.49 10-10 10S2 17.51 2 12 6.49 2 12 2s10 4.49 10 10m-1.4 0c0-4.74-3.86-8.6-8.6-8.6S3.4 7.26 3.4 12s3.86 8.6 8.6 8.6 8.6-3.86 8.6-8.6"/></svg>