<svg xmlns="http://www.w3.org/2000/svg" width="24" height="24" viewBox="0 0 24 24" fill="currentColor"><path d="M18.52 11.21c0-2.93-2.94-5.32-6.55-5.32s-6.55 2.39-6.55 5.32c0 2.63 2.33 4.83 5.48 5.25.77.16.68.44.51 1.47 0 .17-.14.65.56.36a21.2 21.2 0 0 0 5.15-3.81 4.72 4.72 0 0 0 1.4-3.27M21 6.28v11.47A3.27 3.27 0 0 1 17.72 21H6.25A3.27 3.27 0 0 1 3 17.72V6.25A3.27 3.27 0 0 1 6.28 3h11.47A3.27 3.27 0 0 1 21 6.28m-4.66 3.51h-1.83a.13.13 0 0 0-.13.13v2.86a.12.12 0 0 0 .039.089.12.12 0 0 0 .091.031h1.83a.12.12 0 0 0 .13-.12v-.46a.13.13 0 0 0-.13-.13h-1.25v-.48h1.25a.13.13 0 0 0 .13-.13v-.46a.12.12 0 0 0-.13-.13h-1.25v-.48h1.25a.13.13 0 0 0 .13-.13v-.46a.13.13 0 0 0-.08-.12.1.1 0 0 0-.05-.01m-6.81 2.39H8.28V9.92a.13.13 0 0 0-.13-.13H7.7a.13.13 0 0 0-.13.13v2.86a.1.1 0 0 0 0 .08.2.2 0 0 0 .09 0h1.87a.13.13 0 0 0 .13-.13v-.46a.14.14 0 0 0-.13-.09m1.11-2.39h-.46a.13.13 0 0 0-.13.13v2.86a.12.12 0 0 0 .039.089.12.12 0 0 0 .091.031h.46a.12.12 0 0 0 .13-.12V9.92a.13.13 0 0 0-.08-.12.1.1 0 0 0-.05-.01m3.29.13v2.86a.12.12 0 0 1-.039.089.12.12 0 0 1-.091.031h-.45a.13.13 0 0 1-.11-.05l-1.31-1.77v1.7a.13.13 0 0 1-.08.12.1.1 0 0 1-.05.01h-.45a.13.13 0 0 1-.092-.038.13.13 0 0 1-.038-.092V9.92a.13.13 0 0 1 .13-.13h.45a.11.11 0 0 1 .1.06l1.31 1.77v-1.7a.13.13 0 0 1 .13-.13h.46a.13.13 0 0 1 .13.13"/></svg>