<svg xmlns="http://www.w3.org/2000/svg" width="24" height="24" viewBox="0 0 24 24" fill="currentColor"><path fill-rule="evenodd" d="M18.155 11.74c0-.79-.162-1.572-.477-2.3A5.9 5.9 0 0 0 16.323 7.5a.69.69 0 0 1-.014-.99.73.73 0 0 1 1.014-.012A7.3 7.3 0 0 1 19 8.896a7.16 7.16 0 0 1 0 5.689c-.39.9-.96 1.715-1.677 2.397a.73.73 0 0 1-1.014-.013.69.69 0 0 1 .014-.99 5.9 5.9 0 0 0 1.355-1.939c.315-.728.477-1.51.477-2.3" clip-rule="evenodd"/><path fill-rule="evenodd" d="M22.065 12c0-1.206-.251-2.4-.74-3.515a9.2 9.2 0 0 0-2.115-2.981.69.69 0 0 1-.018-.99.73.73 0 0 1 1.014-.018c1.043.982 1.871 2.15 2.437 3.438s.857 2.67.857 4.066-.291 2.778-.857 4.066a10.6 10.6 0 0 1-2.437 3.438.73.73 0 0 1-1.014-.018.69.69 0 0 1 .018-.99 9.2 9.2 0 0 0 2.114-2.981c.49-1.115.741-2.31.741-3.515M13.968 3.072c.24.112.391.334.391.577v16.702a.65.65 0 0 1-.393.578.79.79 0 0 1-.752-.052l-8.045-5.87H1.222c-.399 0-.722-.29-.722-.649V9.559c0-.358.323-.65.722-.65h3.95l8.046-5.789c.22-.14.51-.16.75-.048M12.915 4.91l-7.093 5.18a.8.8 0 0 1-.42.12H1.946v3.5h3.458c.151 0 .3.043.422.122l7.09 5.25z" clip-rule="evenodd"/></svg>