<svg xmlns="http://www.w3.org/2000/svg" width="24" height="24" viewBox="0 0 24 24" fill="currentColor"><path d="m11.833 7.45-1.04-.89 5-3.44c.23-.14.53-.16.78-.05s.41.33.41.58v8.23l-1.51-1.3V4.91zm9.49 11.01c-.25.29-.69.33-.99.07l-3.35-2.88v4.7c0 .24-.16.47-.41.58a.88.88 0 0 1-.79-.05l-8.41-5.87h-4.12c-.42 0-.76-.29-.76-.65v-4.8c0-.36.34-.65.76-.65h4.13l.99-.68-3.72-3.2a.7.7 0 0 1-.07-.99c.25-.29.69-.33.99-.07l15.69 13.5c.29.25.33.69.07.99zm-5.85-4.11-6.05-5.21-1.36.95a.83.83 0 0 1-.44.12h-3.62v3.5h3.62c.16 0 .31.04.44.12l7.41 5.25z"/></svg>