<svg xmlns="http://www.w3.org/2000/svg" width="24" height="24" viewBox="0 0 24 24" fill="currentColor"><path d="M21.995 12.005c0-2.83-1.19-5.39-3.09-7.21 0 0-.01 0-.01-.01a9.93 9.93 0 0 0-6.88-2.77c-2.67 0-5.1 1.06-6.9 2.76 0 0-.01 0-.02.01-1.9 1.83-3.09 4.39-3.09 7.22s1.19 5.39 3.09 7.21c0 0 .01 0 .02.01a9.92 9.92 0 0 0 6.88 2.76c2.67 0 5.09-1.06 6.88-2.76 0 0 .01 0 .02-.01a9.97 9.97 0 0 0 3.09-7.21zm-3.61 5.73a8.46 8.46 0 0 1-2.17-5.02h4.34a8.54 8.54 0 0 1-2.17 5.02m-14.94-5.03h4.34a8.4 8.4 0 0 1-2.17 5.02 8.56 8.56 0 0 1-2.17-5.02m2.16-6.42a8.44 8.44 0 0 1 2.17 5.02h-4.33c.16-1.92.95-3.67 2.17-5.02zm14.95 5.02h-4.34c.15-1.88.9-3.62 2.17-5.02a8.56 8.56 0 0 1 2.17 5.02m-5.74 0h-2.12v-7.85c1.76.14 3.38.82 4.68 1.87a9.87 9.87 0 0 0-2.56 5.99zm-3.52 0h-2.12a9.8 9.8 0 0 0-2.56-5.99 8.6 8.6 0 0 1 4.68-1.87zm-2.12 1.4h2.12v7.86a8.52 8.52 0 0 1-4.68-1.87 9.87 9.87 0 0 0 2.56-5.99m3.52 0h2.12a9.8 9.8 0 0 0 2.56 5.99 8.6 8.6 0 0 1-4.68 1.87z"/></svg>