<svg xmlns="http://www.w3.org/2000/svg" width="24" height="24" viewBox="0 0 24 24" fill="currentColor"><path fill-rule="evenodd" d="M22 8.15q.006.085 0 .17a3 3 0 0 1-.98 2.21v9.77a.7.7 0 0 1-.7.7H3.63a.7.7 0 0 1-.7-.7v-9.81A3 3 0 0 1 2 8.32a1 1 0 0 1 0-.17l1.18-4.62A.71.71 0 0 1 3.86 3h16.28a.71.71 0 0 1 .68.53zm-1.943 1.31A1.63 1.63 0 0 0 20.6 8.4l-1.01-4h-2.24v3.92a1.63 1.63 0 0 0 2.707 1.14m-4.575-.07A1.63 1.63 0 0 0 16 8.32V4.4h-3.25v3.92a1.63 1.63 0 0 0 2.732 1.07M11.3 4.4H8.05v3.92a1.63 1.63 0 0 0 3.25 0zm-4.65 0H4.41l-1.01 4a1.63 1.63 0 0 0 3.25-.08zm.7 15.2h2.89v-5.12H7.35zm4.27 0h8l.03-8.34a2.8 2.8 0 0 1-.65.08 3 3 0 0 1-2.35-1.11 3.002 3.002 0 0 1-4.65 0 3.002 3.002 0 0 1-4.65 0 3 3 0 0 1-2.32 1.11 3.2 3.2 0 0 1-.7-.09v8.35h1.62v-5.82a.7.7 0 0 1 .7-.7h4.27a.7.7 0 0 1 .7.7zm2.62-6.52h3.06a.7.7 0 0 1 .7.7v3a.7.7 0 0 1-.7.7h-3.06a.7.7 0 0 1-.7-.7v-3a.7.7 0 0 1 .7-.7m.7 3h1.66v-1.6h-1.66z" clip-rule="evenodd"/></svg>