<svg xmlns="http://www.w3.org/2000/svg" width="24" height="24" viewBox="0 0 24 24" fill="currentColor"><path fill-rule="evenodd" d="M21.32 8.079a.7.7 0 0 1 .66.73v3a.7.7 0 0 1-.7.7h-.83l-1.75 7.73a.69.69 0 0 1-.68.54h-12a.69.69 0 0 1-.71-.57l-1.75-7.73h-.84a.7.7 0 0 1-.7-.7v-3a.7.7 0 0 1 .7-.7h3.2l2.54-4.54a.7.7 0 0 1 1.22.68l-2.16 3.86h9l-2.15-3.86a.7.7 0 0 1 1.22-.68l2.54 4.54zm-3.82 11.3 1.52-6.87h-14l1.53 6.87zm-4.985-2.186a.7.7 0 0 1-1.195-.495v-1.88a.7.7 0 0 1 1.4 0v1.88a.7.7 0 0 1-.205.495m2.215.195a.7.7 0 0 0 .69-.6l.28-1.88a.71.71 0 0 0-.59-.8.7.7 0 0 0-.79.59l-.3 1.89a.69.69 0 0 0 .6.8zm-4.842-.269a.7.7 0 0 1-.458.28h-.11a.7.7 0 0 1-.69-.59l-.28-1.88a.703.703 0 1 1 1.39-.21l.28 1.88a.7.7 0 0 1-.132.52m10.732-6.01H3.42v-1.63h17.2z" clip-rule="evenodd"/></svg>