<svg xmlns="http://www.w3.org/2000/svg" width="24" height="24" viewBox="0 0 24 24" fill="currentColor"><path fill-rule="evenodd" d="M20 7.1c-.02.29-.159.563-.389.768l-3.154 2.921a.86.86 0 0 1-.571.211.86.86 0 0 1-.572-.211.7.7 0 0 1-.177-.234.66.66 0 0 1 0-.556.7.7 0 0 1 .177-.235l2.217-2.05H4.8a.85.85 0 0 1-.566-.21A.68.68 0 0 1 4 6.997c0-.19.084-.373.234-.507a.85.85 0 0 1 .566-.21h12.754L15.27 4.23a.7.7 0 0 1-.172-.23.654.654 0 0 1 .006-.55.81.81 0 0 1 .44-.394.88.88 0 0 1 .618 0 .8.8 0 0 1 .262.16l3.211 2.91c.213.21.342.476.366.758V7.1M8.864 20.556a.7.7 0 0 1-.178.234.8.8 0 0 1-.264.157.9.9 0 0 1-.62-.006.8.8 0 0 1-.261-.161L4.346 17.86a1.2 1.2 0 0 1-.332-.625.55.55 0 0 1 0-.245.8.8 0 0 1 0-.226 1.26 1.26 0 0 1 .343-.634l3.172-2.919A.86.86 0 0 1 8.102 13a.86.86 0 0 1 .573.212c.151.136.237.32.237.512a.69.69 0 0 1-.237.512l-2.233 2.048h12.756c.213 0 .417.076.567.21.15.135.235.317.235.507s-.084.372-.235.507a.85.85 0 0 1-.567.21H6.396l2.29 2.048a.7.7 0 0 1 .178.234.65.65 0 0 1 0 .556" clip-rule="evenodd"/></svg>