<svg xmlns="http://www.w3.org/2000/svg" width="24" height="24" viewBox="0 0 24 24" fill="currentColor"><path d="M3.695 21h13.44a3.32 3.32 0 0 0 3.29-3l.57-6a2.78 2.78 0 0 0-.71-2.12 2.65 2.65 0 0 0-2-.88h-2.6a.55.55 0 0 1-.42-.2.6.6 0 0 1-.11-.5c.33-1.39.6-3.25 0-4.2a2.52 2.52 0 0 0-2.16-1.1h-.41a2.82 2.82 0 0 0-2.19 1.59q-.406.867-.65 1.79A9.7 9.7 0 0 1 9.185 8c-.44.76-.94 1.52-1.47 2.27h-4a.7.7 0 0 0-.72.73v9.3a.7.7 0 0 0 .7.7m6.7-12.26c.3-.614.537-1.257.71-1.92q.21-.79.54-1.54a1.48 1.48 0 0 1 1.14-.87 1.26 1.26 0 0 1 1.21.45 6 6 0 0 1-.18 3.14 2 2 0 0 0 .37 1.68 1.93 1.93 0 0 0 1.52.74h2.6a1.27 1.27 0 0 1 .94.42 1.37 1.37 0 0 1 .34 1.05l-.59 5.94a1.91 1.91 0 0 1-1.86 1.77h-8.35v-8.35a27 27 0 0 0 1.61-2.51"/></svg>