<svg xmlns="http://www.w3.org/2000/svg" width="24" height="24" viewBox="0 0 24 24" fill="currentColor"><path d="M2 18v-4a2 2 0 0 0 2-2c0-1.1-.89-2-1.99-2V6c0-1.1.89-2 1.99-2h16.19l.185.01C21.288 4.115 22 4.97 22 6l-.01 4c-1.1 0-1.99.9-1.99 2a2 2 0 0 0 2 2v4c0 1.1-.9 2-2 2v-1.4c.327 0 .6-.273.6-.6v-2.901a3.402 3.402 0 0 1-.008-6.197L20.6 6a.7.7 0 0 0-.168-.474c-.09-.1-.178-.125-.242-.126H4a.597.597 0 0 0-.59.6v2.903a3.402 3.402 0 0 1-.01 6.195V18c0 .327.273.6.6.6V20c-1.1 0-2-.9-2-2m18 .6V20H4v-1.4zM10.993 7.373c.498-.779 1.706-.723 2.103.166l.76 1.705 1.857.196c1.033.11 1.449 1.39.678 2.085l-1.388 1.25.388 1.827c.215 1.016-.874 1.808-1.774 1.289L12 14.957l-1.617.934c-.9.519-1.989-.273-1.774-1.289l.387-1.827-1.387-1.25c-.771-.695-.355-1.976.678-2.085l1.857-.196.76-1.705zm.382 2.547a1.2 1.2 0 0 1-.97.705l-1.525.16 1.14 1.027a1.2 1.2 0 0 1 .37 1.141l-.319 1.5 1.33-.765a1.2 1.2 0 0 1 1.056-.07l.143.07 1.328.765-.318-1.5a1.2 1.2 0 0 1 .37-1.14l1.14-1.028-1.525-.16a1.2 1.2 0 0 1-.97-.705L12 8.519z"/></svg>