<svg xmlns="http://www.w3.org/2000/svg" width="24" height="24" viewBox="0 0 24 24" fill="currentColor"><path fill-rule="evenodd" d="M18.704 6.368a.335.335 0 0 0-.475 0l-7.98 7.98a.67.67 0 0 1-.948 0l-3.53-3.53a.335.335 0 0 0-.475 0l-1.245 1.244a.335.335 0 0 0 0 .475l4.82 4.82a1.28 1.28 0 0 0 1.808 0l9.27-9.27a.335.335 0 0 0 0-.475zM17.28 5.42a1.675 1.675 0 0 1 2.37 0l1.245 1.245a1.675 1.675 0 0 1 0 2.37l-9.27 9.27a2.62 2.62 0 0 1-3.702 0l-4.82-4.82a1.675 1.675 0 0 1 0-2.37L4.349 9.87a1.675 1.675 0 0 1 2.37 0l3.056 3.056z" clip-rule="evenodd"/></svg>