<svg xmlns="http://www.w3.org/2000/svg" width="24" height="24" viewBox="0 0 24 24" fill="currentColor"><path fill-rule="evenodd" d="M20.125 11.919A8 8 0 0 1 21.93 15a1.58 1.58 0 0 1-.22 1.38 1.48 1.48 0 0 1-1.2.62h-2.94a9 9 0 0 0-1.21-1.38h4.14c.08-.06.08-.11.08-.16a6.56 6.56 0 0 0-4.49-4.38.9.9 0 0 1-.66-.67.91.91 0 0 1 .25-.9 5.17 5.17 0 0 0 1.41-3.32 2.69 2.69 0 0 0-2.6-2.77 2.63 2.63 0 0 0-2.49 2 4.7 4.7 0 0 0-1.34-.37A4 4 0 0 1 14.5 2a4.09 4.09 0 0 1 4 4.17 6.55 6.55 0 0 1-1.34 3.76 8 8 0 0 1 2.965 1.989M3.55 22h12.9a1.54 1.54 0 0 0 1.24-.64 1.61 1.61 0 0 0 .23-1.44 8.51 8.51 0 0 0-5.15-5.43 7 7 0 0 0 1.47-4.07A4.33 4.33 0 0 0 10 6a4.33 4.33 0 0 0-4.24 4.42 7 7 0 0 0 1.47 4.07 8.51 8.51 0 0 0-5.15 5.43 1.61 1.61 0 0 0 .22 1.44 1.57 1.57 0 0 0 1.25.64M7.96 8.314A2.93 2.93 0 0 1 10 7.4a2.93 2.93 0 0 1 2.78 2.99A5.62 5.62 0 0 1 11.25 14a.951.951 0 0 0 .42 1.6 7.1 7.1 0 0 1 4.86 4.73.18.18 0 0 1 0 .17.13.13 0 0 1-.11.07H3.52a.13.13 0 0 1-.11-.07.18.18 0 0 1 0-.17 7.1 7.1 0 0 1 4.86-4.73 1 1 0 0 0 .42-1.6 5.57 5.57 0 0 1-1.53-3.6 2.93 2.93 0 0 1 .801-2.086" clip-rule="evenodd"/></svg>