<svg xmlns="http://www.w3.org/2000/svg" width="24" height="24" viewBox="0 0 24 24" fill="currentColor"><path fill-rule="evenodd" d="M2.125 12.41c.04.09 4.4 6.09 9.87 6.09 5.46 0 9.84-6.04 9.88-6.11a.69.69 0 0 0 0-.79c-.04-.1-4.38-6.1-9.87-6.1s-9.88 6.05-9.88 6.11a.71.71 0 0 0 0 .8m9.87 4.69c-3.94 0-7.41-3.82-8.41-5.1 1.03-1.27 4.41-5.1 8.41-5.1s7.38 3.83 8.41 5.1c-1.04 1.27-4.47 5.1-8.41 5.1m-1.09-8.74a3.6 3.6 0 0 1 1.09-.19 3.79 3.79 0 0 1 3.68 3.83 3.79 3.79 0 0 1-3.68 3.9 3.8 3.8 0 0 1-3.76-3.9 4.2 4.2 0 0 1 .22-1.09 1.86 1.86 0 0 0 2.61-1.77 1.85 1.85 0 0 0-.16-.78" clip-rule="evenodd"/></svg>