<svg xmlns="http://www.w3.org/2000/svg" width="24" height="24" viewBox="0 0 24 24" fill="currentColor"><path fill-rule="evenodd" d="m16.134 15.874 1 1 .48.44a.71.71 0 0 1 0 1 .74.74 0 0 1-.5.2.7.7 0 0 1-.49-.2l-.76-.76a8.86 8.86 0 0 1-3.88 1c-5.47 0-9.87-6.03-9.87-6.09a.71.71 0 0 1 0-.8 19.8 19.8 0 0 1 3.94-3.89l-1.14-1.12a.707.707 0 0 1 1-1l1.36 1.35 1 1 2.37 2.38 4.18 4.18zm-12.55-3.81c1.03 1.27 4.47 5.09 8.41 5.09a7.2 7.2 0 0 0 2.86-.58l-1.07-1.07a3.5 3.5 0 0 1-1.79.5 3.8 3.8 0 0 1-3.76-3.87 4.2 4.2 0 0 1 .18-1.13c.24.083.495.117.75.1q.11.008.22 0l-2.32-2.32a18.3 18.3 0 0 0-3.48 3.28m18.28-.41c0-.06-4.37-6.1-9.87-6.1a8.6 8.6 0 0 0-3.42.77l1.08 1.08a6.9 6.9 0 0 1 2.34-.4c3.95 0 7.38 3.83 8.41 5.1a18.7 18.7 0 0 1-3.1 3l1 1a20.3 20.3 0 0 0 3.57-3.6.71.71 0 0 0-.01-.85m-6.19.44a3.79 3.79 0 0 0-3.68-3.86 3.6 3.6 0 0 0-1.09.18c0 .063.028.127.056.19q.026.055.043.11l4.53 4.53c.103-.375.15-.762.14-1.15" clip-rule="evenodd"/></svg>