<svg xmlns="http://www.w3.org/2000/svg" width="24" height="24" viewBox="0 0 24 24" fill="currentColor"><path d="M2.43 6.157a3.246 3.246 0 0 1 3.246-3.245h6.84v1.344h-6.84a1.902 1.902 0 0 0 0 3.804v1.343A3.25 3.25 0 0 1 2.43 6.157M20.762 2.912l.136.014a.672.672 0 0 1 0 1.316l-.136.014h-3.044a.672.672 0 0 1 0-1.344z"/><path d="M20.23 9.576a.17.17 0 0 0-.169-.168H5.673c-.71 0-1.366-.232-1.902-.62v9.122c0 1.049.85 1.902 1.902 1.902H20.06a.17.17 0 0 0 .169-.167zm1.343 10.069c0 .832-.679 1.511-1.512 1.511H5.673a3.246 3.246 0 0 1-3.245-3.246V6.163a.672.672 0 0 1 1.33-.136l.013.136.01.194c.098.96.909 1.708 1.892 1.708H20.06c.833 0 1.512.679 1.512 1.511z"/><path d="M17.597 15.78a1.171 1.171 0 1 0 0-2.342 1.171 1.171 0 0 0 0 2.342M14.285.425a.67.67 0 0 1 .498.127l6.52 4.874a.673.673 0 0 1 .136.941l-2.074 2.77a.67.67 0 0 1-.538.27H8.667a.672.672 0 0 1-.538-1.074L13.843.688l.09-.098a.67.67 0 0 1 .352-.165m-4.277 7.639h8.483l1.469-1.965-5.443-4.069z"/></svg>