<svg xmlns="http://www.w3.org/2000/svg" width="24" height="24" viewBox="0 0 24 24" fill="currentColor"><path fill-rule="evenodd" d="M7.5 6.88v-.026c0-1.176.49-2.29 1.34-3.1A4.58 4.58 0 0 1 12 2.5a4.58 4.58 0 0 1 3.16 1.253A4.29 4.29 0 0 1 16.5 6.88h3.575c.788 0 1.425.61 1.425 1.37v10.51c0 1.51-1.273 2.74-2.85 2.74H5.35c-1.577 0-2.85-1.23-2.85-2.74V8.25c0-.76.636-1.37 1.425-1.37zm2.244-2.093A3.27 3.27 0 0 1 12 3.9c.857 0 1.667.325 2.256.887a2.86 2.86 0 0 1 .904 2.093H8.84v-.026c0-.762.317-1.507.904-2.067M18.65 20.22c.836 0 1.52-.65 1.52-1.46v-5.64q-.036.022-.071.04l-.072.04-.133.07c-1.12.6-2.393.91-3.676.91H7.792a7.84 7.84 0 0 1-3.677-.91l-.143-.07c-.047-.03-.142-.08-.142-.08v5.64c0 .81.684 1.46 1.52 1.46zm.732-8.13c.484-.26.788-.75.788-1.28l-.01-.01V8.25c0-.05-.038-.09-.095-.09H3.916c-.057 0-.095.04-.095.09v2.56c0 .53.305 1.02.789 1.28l.143.07c.93.49 1.976.75 3.04.75h8.417c1.064 0 2.108-.26 3.04-.75z" clip-rule="evenodd"/></svg>