<svg xmlns="http://www.w3.org/2000/svg" width="24" height="24" viewBox="0 0 24 24" fill="currentColor"><path d="m8.551 7.966 4.937-1.17-3.895-3.183a.5.5 0 0 0-.31-.113H6.658c-.18 0-.35.103-.441.267-.09.164-.08.37.02.523l2.303 3.665zM21.94 11.364s-.02-.052-.02-.083c-.16-.646-.58-1.078-.952-1.344-.89.236-2.713.76-2.713.76a.688.688 0 0 1-.861-.493c-.1-.38.11-.78.48-.883.06-.02 1.062-.308 1.943-.555a4 4 0 0 0-1.232-.872 4 4 0 0 0-2.253-.298L4.375 10.43 3.354 9.27a.48.48 0 0 0-.37-.174h-.482a.49.49 0 0 0-.4.205.52.52 0 0 0-.08.452l.33 1.242.791 2.936c.06.226.26.38.481.38h5.247l-3.254 5.4a.54.54 0 0 0-.01.523c.04.082.11.144.18.195.08.041.16.072.25.072h2.624c.11 0 .22-.041.31-.113l7.471-6.067h2.974c.631 0 1.272-.205 1.763-.616.49-.41.821-1.026.821-1.837 0-.165-.02-.329-.05-.473zm-9.233.739a.7.7 0 0 1-.821-.565c-.07-.39.17-.77.55-.842a.7.7 0 0 1 .822.565c.07.39-.17.77-.551.842m2.644-.555a.7.7 0 0 1-.822-.564c-.07-.39.17-.77.551-.842a.7.7 0 0 1 .821.565c.07.39-.17.77-.55.841"/></svg>