<svg xmlns="http://www.w3.org/2000/svg" width="24" height="24" viewBox="0 0 24 24" fill="currentColor"><path d="M7.069 3.004c1.254.028 2.581.456 3.892 1.378L7.623 7.805c-.974 1-1.17 2.661-.24 3.812a2.676 2.676 0 0 0 4.026.2l1.046-1.072a2.863 2.863 0 0 1 3.896-.211l.11.095 4.14 3.867c-.39.399-.905.923-1.193 1.184a1 1 0 0 1-.057.06l-.616.557-3.198-2.931a.64.64 0 0 0-.916.053.68.68 0 0 0 .052.939l3.082 2.824-1.912 1.728-3.017-2.767a.637.637 0 0 0-.916.052.677.677 0 0 0 .051.939l2.902 2.661-.245.222c-1.404 1.27-3.642 1.31-5.097.12l-.138-.12-4.734-4.277-.047-.048a16 16 0 0 1-1.004-.936c-1.776-1.824-2.558-3.747-2.597-5.528a6.16 6.16 0 0 1 1.738-4.44 5.85 5.85 0 0 1 4.33-1.784"/><path d="M16.931 3.002a5.85 5.85 0 0 1 4.33 1.781l.184.197a6.14 6.14 0 0 1 1.552 3.893c.048 1.473-.414 3.064-1.54 4.624L17.33 9.642l-.004-.005-.16-.138a4.136 4.136 0 0 0-5.627.306l-1.045 1.072h-.002a1.4 1.4 0 0 1-2.108-.107l-.001-.001-.041-.054c-.41-.564-.34-1.416.2-1.97l3.446-3.534.011.01c1.64-1.508 3.345-2.183 4.933-2.22"/></svg>