<svg xmlns="http://www.w3.org/2000/svg" width="24" height="24" viewBox="0 0 24 24" fill="currentColor"><path d="M19.3 2H4.7c-.39 0-.7.31-.7.7v18.6c0 .39.31.7.7.7h14.6c.39 0 .7-.31.7-.7V2.7c0-.39-.31-.7-.7-.7M8.85 16.42h-.91c-.39 0-.7-.31-.7-.7s.31-.7.7-.7h.91c.39 0 .7.31.7.7s-.31.7-.7.7m0-3.72h-.91c-.39 0-.7-.31-.7-.7s.31-.7.7-.7h.91c.39 0 .7.31.7.7s-.31.7-.7.7m0-3.72h-.91c-.39 0-.7-.31-.7-.7s.31-.7.7-.7h.91c.39 0 .7.31.7.7s-.31.7-.7.7m7.21 7.44h-4.47c-.39 0-.7-.31-.7-.7s.31-.7.7-.7h4.47c.39 0 .7.31.7.7s-.31.7-.7.7m0-3.72h-4.47c-.39 0-.7-.31-.7-.7s.31-.7.7-.7h4.47c.39 0 .7.31.7.7s-.31.7-.7.7m0-3.72h-4.47c-.39 0-.7-.31-.7-.7s.31-.7.7-.7h4.47c.39 0 .7.31.7.7s-.31.7-.7.7"/></svg>