<svg xmlns="http://www.w3.org/2000/svg" width="24" height="24" viewBox="0 0 24 24" fill="currentColor"><g clip-path="url(#a)"><path d="M11.239.714c.525-.13 1.059-.073 1.591.12 1.02.372 2.145 1.288 3.484 2.627l.017.021.013.016c1.32 1.324 2.223 2.438 2.592 3.45.194.532.25 1.065.12 1.59-.128.522-.423.966-.812 1.355-.474.475-1.014.853-1.677.94a12.2 12.2 0 0 1-2.376 3.357 12.1 12.1 0 0 1-3.359 2.377c-.088.66-.462 1.2-.938 1.677-.39.389-.834.685-1.355.814-.526.13-1.059.072-1.591-.122-1.02-.37-2.145-1.287-3.484-2.626C2.126 14.97 1.21 13.845.84 12.825c-.194-.533-.25-1.066-.12-1.593.13-.52.425-.966.814-1.355.475-.474 1.014-.853 1.677-.94A12.2 12.2 0 0 1 5.587 5.58a12.1 12.1 0 0 1 3.358-2.378c.088-.66.463-1.2.939-1.677.389-.389.833-.684 1.354-.812"/><path fill-rule="evenodd" d="M17.05 13.59a.725.725 0 0 0-1.046.105 13 13 0 0 1-2.308 2.309.725.725 0 0 0-.106 1.045l4.523 5.27c.483.56 1.16.925 1.9 1.016l.18.015a2.978 2.978 0 0 0 3.146-3.245 1 1 0 0 0-.005-.092 2.97 2.97 0 0 0-.815-1.71l-.202-.19z" clip-rule="evenodd"/></g><defs><clipPath id="a"><path d="M0 0h24v24H0z"/></clipPath></defs></svg>