<svg xmlns="http://www.w3.org/2000/svg" width="24" height="24" viewBox="0 0 24 24" fill="currentColor"><path d="m22.135 5.327-7.55-2.63a.4.4 0 0 0-.52.27c-.26.93-1.11 1.58-2.06 1.58s-1.8-.65-2.06-1.58a.396.396 0 0 0-.52-.27l-7.55 2.63c-.19.07-.3.26-.26.46l1.11 5.25c.02.1.08.2.17.25.09.06.2.08.3.05l2.51-.56-.67 6.4c-.02.17.08.34.24.41 1.49.65 2.57 1.93 2.89 3.42.04.18.2.32.39.32h6.89c.19 0 .35-.13.39-.32.32-1.49 1.4-2.77 2.89-3.42.16-.07.26-.23.24-.41l-.67-6.4 2.51.56c.1.02.21 0 .3-.05.09-.06.15-.15.17-.25l1.11-5.25c.04-.2-.07-.39-.26-.46zm-7.79 4.47c-.19.32-.78.98-1.4 1.53-.32.28-.65.53-.94.68-.29-.15-.62-.4-.94-.68-.62-.55-1.21-1.21-1.4-1.53-.39-.64-.16-1.45.51-1.81.63-.34 1.41-.17 1.83.36.42-.54 1.2-.71 1.83-.36.67.37.9 1.18.51 1.81"/></svg>