<svg xmlns="http://www.w3.org/2000/svg" width="24" height="24" viewBox="0 0 24 24" fill="currentColor"><path d="M18.74 3.6H9.2c-1.15 0-2.21.52-2.92 1.43l-4.14 5.31c-.76.98-.76 2.34 0 3.32l4.14 5.31c.71.91 1.77 1.43 2.92 1.43h9.53c2.04 0 3.7-1.66 3.7-3.7V7.3c0-2.04-1.66-3.7-3.7-3.7zM16.7 14.5a.706.706 0 0 1-.5 1.2c-.18 0-.36-.07-.5-.21l-2.5-2.5-2.5 2.5c-.14.14-.32.21-.5.21a.705.705 0 0 1-.5-1.2l2.5-2.5-2.5-2.5a.706.706 0 0 1 0-.99c.27-.27.72-.27.99 0l2.5 2.5 2.5-2.5c.27-.27.72-.27.99 0s.27.72 0 .99l-2.5 2.5 2.5 2.5z"/></svg>