<svg xmlns="http://www.w3.org/2000/svg" width="24" height="24" viewBox="0 0 24 24" fill="currentColor"><path d="m10.79 12.01.35.77c.04.09.06.19.06.29v6.95q0 .21-.12.39l-.85 1.28c-.13.2-.35.31-.58.31H4.77c-.23 0-.45-.12-.58-.31l-.85-1.28a.67.67 0 0 1-.12-.39v-6.95c0-.09.02-.18.05-.27l.33-.82a.7.7 0 0 1-.39-.62c0-.39.31-.7.7-.7h6.59c.39 0 .7.31.7.7 0 .28-.17.53-.42.64zm9.85 6c.1.3.15.57.15.83v.58c0 1.41-1.15 2.56-2.57 2.56-.25 0-.51-.07-.77-.19-.5-.25-1.07-.25-1.57 0-.26.13-.52.2-.77.2-1.41 0-2.56-1.15-2.56-2.56v-.58c0-.26.05-.52.14-.83.1-.31.15-.62.15-.95 0-.15-.01-.3-.04-.45l-.03-.14c-.02-.13-.03-.18-.04-.22-.16-.59-.19-1.2-.19-1.77V9.05c0-.29.08-.57.22-.82l1.97-3.5V2.7c0-.39.31-.7.7-.7h2.48c.39 0 .7.31.7.7v2.05l1.96 3.48c.14.25.22.53.22.82v5.44c0 .53-.02 1.15-.19 1.77-.01.04-.02.08-.03.13l-.03.17c-.04.21-.05.36-.05.51 0 .32.05.64.15.94m-1.25-6.98h-5.45v3.6h5.45z"/></svg>