<svg xmlns="http://www.w3.org/2000/svg" width="24" height="24" viewBox="0 0 24 24" fill="currentColor"><path d="M13.9 12.67h-3.37v2.64h3.37c.73 0 1.32-.59 1.32-1.32s-.59-1.32-1.32-1.32M13.9 8.67h-3.37v2.64h3.37c.73 0 1.32-.59 1.32-1.32s-.59-1.32-1.32-1.32"/><path d="M12 2C6.48 2 2 6.48 2 12s4.48 10 10 10 10-4.48 10-10S17.52 2 12 2m4.58 11.99c0 1.48-1.2 2.68-2.68 2.68h-1.22v1.32c0 .38-.3.68-.68.68s-.68-.3-.68-.68v-1.32H8.35c-.38 0-.68-.3-.68-.68s.3-.68.68-.68h.82v-2.64h-.82c-.38 0-.68-.3-.68-.68s.3-.68.68-.68h.82V8.67h-.82c-.38 0-.68-.3-.68-.68s.3-.68.68-.68h2.97V5.99c0-.38.3-.68.68-.68s.68.3.68.68v1.32h1.22c1.48 0 2.68 1.2 2.68 2.68 0 .8-.36 1.51-.91 2 .56.49.91 1.2.91 2"/></svg>