<svg xmlns="http://www.w3.org/2000/svg" width="24" height="24" viewBox="0 0 24 24" fill="currentColor"><path d="M3 14.5a.48.48 0 0 1-.35-.15.48.48 0 0 1 0-.7.48.48 0 0 1 .7 0 .48.48 0 0 1 0 .7.48.48 0 0 1-.35.15m0-4a.48.48 0 0 1-.35-.15.48.48 0 0 1 0-.7.48.48 0 0 1 .7 0 .48.48 0 0 1 0 .7.48.48 0 0 1-.35.15m3 8.346a.82.82 0 0 1-.603-.243.82.82 0 0 1-.243-.603q0-.36.243-.603A.82.82 0 0 1 6 17.154q.36 0 .603.243a.81.81 0 0 1 .243.603q0 .36-.243.603a.82.82 0 0 1-.603.243m0-4a.82.82 0 0 1-.603-.243.82.82 0 0 1-.243-.603q0-.36.243-.603A.82.82 0 0 1 6 13.154q.36 0 .603.243a.82.82 0 0 1 .243.603q0 .36-.243.603a.82.82 0 0 1-.603.243m0-4a.82.82 0 0 1-.603-.243.82.82 0 0 1-.243-.603q0-.36.243-.603A.82.82 0 0 1 6 9.154q.36 0 .603.243a.82.82 0 0 1 .243.603q0 .36-.243.603a.82.82 0 0 1-.603.243m0-4a.82.82 0 0 1-.603-.243A.82.82 0 0 1 5.154 6q0-.36.243-.603A.82.82 0 0 1 6 5.154q.36 0 .603.243A.82.82 0 0 1 6.846 6q0 .36-.243.603A.82.82 0 0 1 6 6.846m4 12a.82.82 0 0 1-.603-.243.82.82 0 0 1-.243-.603q0-.36.243-.603a.82.82 0 0 1 .603-.243q.36 0 .603.243a.81.81 0 0 1 .243.603q0 .36-.243.603a.82.82 0 0 1-.603.243m0-12a.82.82 0 0 1-.603-.243A.82.82 0 0 1 9.154 6q0-.36.243-.603A.82.82 0 0 1 10 5.154q.36 0 .603.243a.82.82 0 0 1 .243.603q0 .36-.243.603a.82.82 0 0 1-.603.243M10 21.5a.48.48 0 0 1-.35-.15.48.48 0 0 1 0-.7.48.48 0 0 1 .7 0 .48.48 0 0 1 0 .7.48.48 0 0 1-.35.15m0-18a.48.48 0 0 1-.35-.15.48.48 0 0 1 0-.7.48.48 0 0 1 .7 0 .48.48 0 0 1 0 .7.48.48 0 0 1-.35.15m4 15.346a.82.82 0 0 1-.603-.243.82.82 0 0 1-.243-.603q0-.36.243-.603a.82.82 0 0 1 .603-.243q.36 0 .603.243a.81.81 0 0 1 .243.603q0 .36-.243.603a.82.82 0 0 1-.603.243m0-12a.82.82 0 0 1-.603-.243.82.82 0 0 1-.243-.603q0-.36.243-.603A.82.82 0 0 1 14 5.154q.36 0 .603.243a.82.82 0 0 1 .243.603q0 .36-.243.603a.82.82 0 0 1-.603.243M14 21.5a.48.48 0 0 1-.35-.15.48.48 0 0 1 0-.7.48.48 0 0 1 .7 0 .48.48 0 0 1 0 .7.48.48 0 0 1-.35.15m0-18a.48.48 0 0 1-.35-.15.48.48 0 0 1 0-.7.48.48 0 0 1 .7 0 .48.48 0 0 1 0 .7.48.48 0 0 1-.35.15m4 15.346a.82.82 0 0 1-.603-.243.82.82 0 0 1-.243-.603q0-.36.243-.603a.82.82 0 0 1 .603-.243q.36 0 .603.243a.82.82 0 0 1 .243.603q0 .36-.243.603a.82.82 0 0 1-.603.243m0-4a.82.82 0 0 1-.603-.243.82.82 0 0 1-.243-.603q0-.36.243-.603a.82.82 0 0 1 .603-.243q.36 0 .603.243a.82.82 0 0 1 .243.603q0 .36-.243.603a.82.82 0 0 1-.603.243m0-4a.82.82 0 0 1-.603-.243.82.82 0 0 1-.243-.603q0-.36.243-.603A.82.82 0 0 1 18 9.154q.36 0 .603.243a.82.82 0 0 1 .243.603q0 .36-.243.603a.82.82 0 0 1-.603.243m0-4a.82.82 0 0 1-.603-.243.82.82 0 0 1-.243-.603q0-.36.243-.603A.82.82 0 0 1 18 5.154q.36 0 .603.243a.82.82 0 0 1 .243.603q0 .36-.243.603a.82.82 0 0 1-.603.243m3 7.654a.48.48 0 0 1-.35-.15.48.48 0 0 1 0-.7.48.48 0 0 1 .7 0 .48.48 0 0 1 0 .7.48.48 0 0 1-.35.15m0-4a.48.48 0 0 1-.35-.15.48.48 0 0 1 0-.7.48.48 0 0 1 .7 0 .48.48 0 0 1 0 .7.48.48 0 0 1-.35.15M15.75 13A2.75 2.75 0 0 1 13 15.75h-2A2.75 2.75 0 0 1 8.25 13v-2A2.75 2.75 0 0 1 11 8.25h2A2.75 2.75 0 0 1 15.75 11z"/></svg>