<svg xmlns="http://www.w3.org/2000/svg" width="24" height="24" viewBox="0 0 24 24" fill="currentColor"><path d="M19.985 5.6s-.01-.04-.02-.07c-.01-.04-.03-.08-.05-.12-.01-.02-.03-.04-.04-.07-.02-.02-.03-.05-.05-.07-.18-.2-.4-.55-.4-1.03 0-.38.14-.74.4-1.03.12-.13.18-.34.18-.52 0-.39-.31-.7-.7-.7H6.195c-1.21.01-2.2 1.01-2.2 2.23v15.59c0 1.21.99 2.2 2.2 2.2h13.1c.39 0 .7-.31.7-.7V5.74c0-.05 0-.09-.01-.13zm-3.94 6.14c0 .09-.05.17-.12.21-.04.02-.08.04-.13.04-.04 0-.08 0-.12-.03l-1.38-.74-1.38.74c-.08.04-.17.04-.25 0a.24.24 0 0 1-.12-.21v-5.3h3.5v5.3zm2.08-6.7H6.195c-.44 0-.8-.37-.8-.82s.36-.82.8-.82h11.95c-.08.27-.13.56-.13.85 0 .27.04.54.11.8z"/></svg>