<svg xmlns="http://www.w3.org/2000/svg" width="24" height="24" viewBox="0 0 24 24" fill="currentColor"><path d="M2.316 4.777a.52.52 0 0 0-.27.69l1.86 4.126a.53.53 0 0 0 .723.25l1.26-.65v7.848c0 .575.472 1.041 1.053 1.041h9.742c.58 0 1.051-.466 1.051-1.041V9.203l1.261.65c.27.139.6.024.724-.25l1.86-4.127a.52.52 0 0 0-.27-.69l-6.324-2.74c-.296-.13-.635.038-.784.323-.424.811-1.235 1.358-2.168 1.358-.932 0-2.167-.547-2.59-1.36-.149-.283-.487-.451-.783-.324z"/><path d="M20.35 13.357c0-.443.37-.803.825-.803.456 0 .825.36.825.803v7.036C22 21.28 21.261 22 20.35 22H9.627a.814.814 0 0 1-.825-.803c0-.444.37-.804.825-.804H20.35z"/></svg>