<svg xmlns="http://www.w3.org/2000/svg" width="24" height="24" viewBox="0 0 24 24" fill="currentColor"><path d="M20.3 4.7h-3.44V3.2c0-.39-.31-.7-.7-.7s-.7.31-.7.7v1.5H12.7V3.2c0-.39-.31-.7-.7-.7s-.7.31-.7.7v1.5H8.54V3.2c0-.39-.31-.7-.7-.7s-.7.31-.7.7v1.5H3.7c-.39 0-.7.31-.7.7v15.4c0 .39.31.7.7.7h16.6c.39 0 .7-.31.7-.7V5.4c0-.39-.31-.7-.7-.7m-4.84 0h1.4v2.6c0 .39-.31.7-.7.7s-.7-.31-.7-.7zm.7 6.3c.5 0 .91.41.91.91s-.41.91-.91.91-.91-.41-.91-.91.41-.91.91-.91M11.3 4.7h1.4v2.6c0 .39-.31.7-.7.7s-.7-.31-.7-.7zm-4.16 0h1.4v2.6c0 .39-.31.7-.7.7s-.7-.31-.7-.7zm.7 12.67c-.5 0-.91-.41-.91-.91s.41-.91.91-.91.91.41.91.91-.41.91-.91.91m0-4.55c-.5 0-.91-.41-.91-.91s.41-.91.91-.91.91.41.91.91-.41.91-.91.91M12 17.37c-.5 0-.91-.41-.91-.91s.41-.91.91-.91.91.41.91.91-.41.91-.91.91m0-4.55c-.5 0-.91-.41-.91-.91S11.5 11 12 11s.91.41.91.91-.41.91-.91.91m4.16 5.28c-.91 0-1.64-.73-1.64-1.64s.73-1.64 1.64-1.64 1.64.73 1.64 1.64-.73 1.64-1.64 1.64"/></svg>