<svg xmlns="http://www.w3.org/2000/svg" width="24" height="24" viewBox="0 0 24 24" fill="currentColor"><path fill-rule="evenodd" d="M23.638 18.647a2.356 2.356 0 0 1-2.35 2.35H2.712a2.356 2.356 0 0 1-2.352-2.35V6.52A2.357 2.357 0 0 1 2.713 4.17h2.172L6.88 1.3l.05-.064a.67.67 0 0 1 .502-.223h9.132l.081.005c.189.023.36.125.47.283L19.11 4.17h2.177a2.356 2.356 0 0 1 2.35 2.351zM12 17.159a5.269 5.269 0 1 0 0-10.537 5.269 5.269 0 0 0 0 10.537m3.925-5.268a3.925 3.925 0 1 0-7.85-.001 3.925 3.925 0 0 0 7.85 0" clip-rule="evenodd"/></svg>