<svg xmlns="http://www.w3.org/2000/svg" width="24" height="24" viewBox="0 0 24 24" fill="currentColor"><path d="M19.3 5h-2.57l-.8-1.61A.7.7 0 0 0 15.3 3H8.7a.7.7 0 0 0-.63.39L7.27 5H4.7A2.7 2.7 0 0 0 2 7.7v10.6A2.7 2.7 0 0 0 4.7 21h14.6a2.7 2.7 0 0 0 2.7-2.7V7.7A2.7 2.7 0 0 0 19.3 5M6.69 10.12a.59.59 0 0 1 .4-.75.6.6 0 0 1 .75.4l.15.49a4.89 4.89 0 0 1 8.57 1.25.61.61 0 0 1-.37.77.6.6 0 0 1-.76-.37 3.69 3.69 0 0 0-6.12-1.36.599.599 0 1 1 .42 1.12l-1.59.6a.8.8 0 0 1-.26.05.7.7 0 0 1-.2 0 .7.7 0 0 1-.43-.43zm10.09 6.51a.5.5 0 0 1-.17 0 .59.59 0 0 1-.57-.43l-.15-.49a4.89 4.89 0 0 1-8.57-1.25.6.6 0 1 1 1.13-.4 3.69 3.69 0 0 0 6.12 1.36.6.6 0 0 1-.42-1.12l1.59-.6a.7.7 0 0 1 .2 0h.34a.73.73 0 0 1 .39.42l.51 1.7a.59.59 0 0 1-.4.81"/></svg>