<svg xmlns="http://www.w3.org/2000/svg" width="24" height="24" viewBox="0 0 24 24" fill="currentColor"><path d="m20.525 9.305-1.39-4.38c-.37-1.16-1.41-1.93-2.58-1.93h-9.12c-1.18 0-2.21.78-2.58 1.93l-1.39 4.38c-.84.13-1.49.86-1.49 1.74v5.23c0 .82.56 1.5 1.32 1.7v1.33c0 .94.76 1.7 1.7 1.7h1c.94 0 1.7-.76 1.7-1.7v-1.26h8.6v1.26c0 .94.76 1.7 1.7 1.7h1c.94 0 1.7-.76 1.7-1.7v-1.32c.76-.2 1.33-.88 1.33-1.71v-5.23c0-.88-.65-1.61-1.5-1.74m-13.03 5.5c-.72 0-1.3-.58-1.3-1.3s.58-1.3 1.3-1.3 1.3.58 1.3 1.3-.58 1.3-1.3 1.3m9 0c-.72 0-1.3-.58-1.3-1.3s.58-1.3 1.3-1.3 1.3.58 1.3 1.3-.58 1.3-1.3 1.3m-11.52-5.53 1.24-3.91c.18-.56.67-.93 1.21-.93h9.12c.55 0 1.04.38 1.21.93l1.24 3.91z"/></svg>