<svg xmlns="http://www.w3.org/2000/svg" width="24" height="24" viewBox="0 0 24 24" fill="currentColor"><path fill-rule="evenodd" d="M20.6 12a8.6 8.6 0 1 1-17.2 0 8.6 8.6 0 0 1 17.2 0M6 12.7a.7.7 0 0 1-.7-.7c0-3.7 3-6.7 6.7-6.7a.7.7 0 1 1 0 1.4A5.3 5.3 0 0 0 6.7 12a.7.7 0 0 1-.7.7m10-.7a4 4 0 1 1-8 0 4 4 0 0 1 8 0" clip-rule="evenodd"/><path fill-rule="evenodd" d="M12 14.6a2.6 2.6 0 1 0 0-5.2 2.6 2.6 0 0 0 0 5.2m1-2.6a1 1 0 1 1-2 0 1 1 0 0 1 2 0" clip-rule="evenodd"/><path fill-rule="evenodd" d="M12 20.6a8.6 8.6 0 1 0 0-17.2 8.6 8.6 0 0 0 0 17.2m0 1.4c5.523 0 10-4.477 10-10S17.523 2 12 2 2 6.477 2 12s4.477 10 10 10" clip-rule="evenodd"/></svg>