<svg xmlns="http://www.w3.org/2000/svg" width="24" height="24" viewBox="0 0 24 24" fill="currentColor"><path fill-rule="evenodd" d="M15.356 15.456a8.8 8.8 0 0 1-4.291.969l-.13-.01q-.162-.009-.317-.03a3 3 0 0 0-.373-.03c-.652-.05-1.298-.16-1.93-.33q-.462.585-1 1.1a6.8 6.8 0 0 1-2.09 1.55.8.8 0 0 1-.25 0 .73.73 0 0 1-.52-.22.7.7 0 0 1-.11-.78q.423-.945.75-1.93a4 4 0 0 0 .21-1.21 6.73 6.73 0 0 1-2.79-5.33c0-3.98 3.84-7.22 8.55-7.22s8.55 3.22 8.55 7.22a6.25 6.25 0 0 1-.6 2.64 8 8 0 0 1-.37.69 8.8 8.8 0 0 1-3.29 2.92M9.945 7.455q.12.03.12-.09h.02c.05-.256.18-.49.37-.67a.92.92 0 0 1 .65-.23.93.93 0 0 1 .67.24.82.82 0 0 1 .24.61 1.2 1.2 0 0 1-.12.44 3 3 0 0 1-.31.48l-.91 1.23a1.5 1.5 0 0 0-.24.42 1.9 1.9 0 0 0-.07.54v.46a.11.11 0 0 0 .072.114.1.1 0 0 0 .048.006h1.08a.11.11 0 0 0 .114-.072.1.1 0 0 0 .006-.048v-.32a1.4 1.4 0 0 1 .05-.41 1.1 1.1 0 0 1 .18-.31l.95-1.22a2.1 2.1 0 0 0 .48-1.33 1.9 1.9 0 0 0-.62-1.41 2.3 2.3 0 0 0-.69-.41 2.5 2.5 0 0 0-.88-.15 2.37 2.37 0 0 0-1.56.5 2.1 2.1 0 0 0-.74 1.34c-.02.13.01.13.09.13zm.466 4.368a.75.75 0 0 0-.116.422h.02a.74.74 0 0 0 .73.73.75.75 0 1 0-.633-1.152m10.144 6.713c.056.231.12.497.19.719.27.73.45 1.91.45 1.91a.7.7 0 0 1-1.08.73c-.003 0-.07-.045-.178-.117-.303-.204-.93-.625-1.372-.883q-.63-.362-1.2-.81a7 7 0 0 1-1.58.18 5.79 5.79 0 0 1-5.26-2.83h.51a9.84 9.84 0 0 0 8.43-4.37c.13-.21.24-.43.35-.65a4.14 4.14 0 0 1 1.67 3.23 3.92 3.92 0 0 1-1 2.61z" clip-rule="evenodd"/></svg>