<svg xmlns="http://www.w3.org/2000/svg" width="24" height="24" viewBox="0 0 24 24" fill="currentColor"><path d="M11.045 15.94c3.2 0 6.1-1.49 7.58-3.89.14-.23.26-.46.37-.69q.6-1.26.6-2.64c0-3.98-3.84-7.22-8.55-7.22s-8.55 3.24-8.55 7.22c0 2.04 1.01 3.97 2.79 5.34 0 .26-.04.68-.22 1.2-.42 1.24-.75 1.93-.75 1.93-.12.26-.08.57.12.78a.68.68 0 0 0 .76.18c.1-.04.98-.4 2.09-1.51.41-.41.73-.81.95-1.1.6.18 1.25.27 1.93.33.23.02.45.05.69.06h.18zm-2.41-7.12a.782.782 0 0 1-.43.42q-.15.06-.3.06c-.16 0-.31-.05-.45-.14a.85.85 0 0 1-.29-.36.84.84 0 0 1-.04-.47c.03-.16.11-.3.22-.41s.26-.19.42-.21c.16-.03.32 0 .46.05.15.06.27.17.35.3.09.13.13.29.12.45 0 .1-.02.21-.06.3zm4.64-.48c.03-.16.11-.3.22-.41s.26-.19.42-.21c.16-.03.32 0 .46.05.15.06.27.17.35.3.09.13.13.29.12.45a.77.77 0 0 1-.23.55.803.803 0 0 1-.56.23c-.16 0-.31-.05-.45-.14a.85.85 0 0 1-.29-.36.84.84 0 0 1-.04-.47zm-3.04.46a.84.84 0 0 1-.04-.47c.03-.16.11-.3.22-.41s.26-.19.42-.21c.16-.03.32 0 .46.05.15.06.27.17.35.3.09.13.13.29.12.45a.77.77 0 0 1-.23.55.803.803 0 0 1-.56.23c-.16 0-.31-.05-.45-.14a.85.85 0 0 1-.29-.36zm10.97 11.85a.697.697 0 0 1-.68.85c-.14 0-.28-.04-.4-.12 0 0-.95-.66-1.55-1-.58-.34-.96-.62-1.2-.81-.53.13-1.06.19-1.58.19-2.39 0-4.41-1.16-5.26-2.84.09 0 .18.02.28.02h.24c3.54 0 6.77-1.67 8.43-4.36.13-.21.24-.43.35-.65 1.05.84 1.67 1.99 1.67 3.23 0 .94-.35 1.84-1.03 2.61.06.28.16.69.25 1.01.23.76.47 1.84.48 1.88z"/></svg>