<svg xmlns="http://www.w3.org/2000/svg" width="24" height="24" viewBox="0 0 24 24" fill="currentColor"><path fill-rule="evenodd" d="M16.487 5.515A7.9 7.9 0 1 1 3.35 14.293a7.9 7.9 0 0 1 13.138-8.778M9.25 12.454v1.72a.67.67 0 0 0 .67.68.68.68 0 0 0 .68-.67v-1.72h2.42a.67.67 0 0 0 .67-.67.68.68 0 0 0-.67-.68h-2.42v-.75h2.42a.68.68 0 0 0 0-1.35h-1.81l2-3a.69.69 0 0 0-.19-.94.68.68 0 0 0-1 .19l-2.1 3.2-2.13-3.21a.68.68 0 1 0-1.13.75l2 3h-1.84a.68.68 0 0 0 0 1.35h2.43v.75h-2.43a.68.68 0 0 0-.474 1.154.67.67 0 0 0 .474.196zm9.306-.265a8.9 8.9 0 0 0-.066-4.665l.05.05a7.9 7.9 0 1 1-11 10.95 8.88 8.88 0 0 0 11.016-6.335" clip-rule="evenodd"/></svg>