<svg xmlns="http://www.w3.org/2000/svg" width="24" height="24" viewBox="0 0 24 24" fill="currentColor"><path d="m21.925 15.935-1.1-1.1a9.9 9.9 0 0 0 .6-3.37 10 10 0 1 0-5.58 9v.34a1.7 1.7 0 1 0 3.4 0v-2.77l.28.27a1.7 1.7 0 1 0 2.4-2.37m-9.82 1a.69.69 0 0 1-.68.68.68.68 0 0 1-.67-.68v-2.4h-3.33a.68.68 0 0 1 0-1.35h3.33v-1.36h-3.33a.68.68 0 0 1-.67-.68.67.67 0 0 1 .67-.67h2.74l-2.79-4.18a.66.66 0 0 1 .18-.93.68.68 0 0 1 .94.18l2.93 4.39 2.93-4.39a.68.68 0 0 1 1.226.247.66.66 0 0 1-.106.503l-2.79 4.18h2.74a.68.68 0 0 1 .68.67.69.69 0 0 1-.68.68h-3.32v1.36h3.32a.7.7 0 0 1 .35.11l-1.24 1.24h-2.43zm9.12.66a.71.71 0 0 1-1 0l-.55-.55-1.44-1.44v5.13a.7.7 0 0 1-1.4 0v-5.12l-2 2a.71.71 0 0 1-1.204-.5.7.7 0 0 1 .214-.5l2.85-2.86a1.15 1.15 0 0 1 .56-.28.64.64 0 0 1 .58 0c.21.036.405.133.56.28l2 2 .82.82a.71.71 0 0 1 .01 1.03z"/></svg>