<svg xmlns="http://www.w3.org/2000/svg" width="24" height="24" viewBox="0 0 24 24" fill="currentColor"><path d="m21.559 9.486-2.06-2.06a.37.37 0 0 0-.53 0c-.65.65-1.72.64-2.38-.03-.32-.32-.5-.75-.51-1.2 0-.45.17-.87.48-1.18.15-.15.15-.38 0-.53l-2.06-2.06a.37.37 0 0 0-.53 0l-3.44 3.44.91.9c.2.19.2.51 0 .71a.51.51 0 0 1-.71.01l-.91-.91-7.4 7.4a.386.386 0 0 0 0 .54l2.06 2.06c.15.15.38.15.53 0 .31-.31.71-.51 1.18-.48.45 0 .88.18 1.2.51s.5.75.51 1.2c0 .45-.17.87-.48 1.18-.15.15-.15.38 0 .53l2.06 2.06a.386.386 0 0 0 .54 0l7.45-7.46-.88-.88c-.2-.19-.2-.51 0-.71s.51-.2.71 0l.89.88 3.39-3.39c.15-.15.15-.38 0-.53zm-7.92.14a.51.51 0 0 1-.71.01l-.73-.72c-.2-.19-.2-.51 0-.71.19-.2.51-.2.71 0l.73.72c.2.19.2.51 0 .71zm2.19 2.16a.51.51 0 0 1-.71.01l-.73-.72c-.2-.19-.2-.51 0-.71.19-.2.51-.2.71 0l.73.72c.2.19.2.51 0 .71z"/></svg>