<svg xmlns="http://www.w3.org/2000/svg" width="24" height="24" viewBox="0 0 24 24" fill="currentColor"><path d="m10.651 10.651 4.047-1.349-1.35 4.047-4.046 1.349z"/><path fill-rule="evenodd" d="M2 12C2 6.477 6.477 2 12 2s10 4.477 10 10-4.477 10-10 10S2 17.523 2 12m12.863-4.358c.162-.038.44-.09.735.015.347.124.621.397.745.746.105.293.053.572.015.734-.039.167-.105.365-.172.567l-.01.027-1.372 4.119-.01.026c-.03.095-.085.263-.186.41a1.2 1.2 0 0 1-.321.322c-.148.101-.316.156-.41.187l-.027.008-4.12 1.374-.026.009c-.202.067-.4.133-.567.172-.162.038-.44.09-.734-.015a1.23 1.23 0 0 1-.746-.745c-.105-.294-.053-.573-.015-.735a7 7 0 0 1 .172-.566l1.383-4.147.008-.026c.031-.095.086-.263.187-.41q.13-.192.321-.322c.148-.101.316-.156.41-.187l.027-.008 4.147-1.383c.202-.067.4-.133.566-.172m-4.212 3.01 4.047-1.35-1.35 4.047-4.046 1.349z" clip-rule="evenodd"/></svg>