<svg xmlns="http://www.w3.org/2000/svg" width="24" height="24" viewBox="0 0 24 24" fill="currentColor"><path fill-rule="evenodd" d="M6.115 16.357h2.973l.9-6.2c0-.4.4-.6.8-.6.7 0 2.2 0 2.9-.5.2-.1.2-.2.2-.3v-3.8c0-.3-.1-1.2-1.3-1.2h-8.8c-.1 0-.4 0-.7.5-.7 1.1-.7 3.4 0 4.5.3.5.6.5.7.5h2.5c.2 0 .4 0 .5.2s.2.4.2.6zm-.828-8.3h5.9c.4 0 .7-.3.7-.7s-.3-.7-.7-.7h-5.9c-.4 0-.7.3-.7.7s.3.7.7.7m0-2h5.9c.4 0 .7-.3.7-.7s-.3-.7-.7-.7h-5.9c-.4 0-.7.3-.7.7s.3.7.7.7" clip-rule="evenodd"/><path fill-rule="evenodd" d="M11.588 21.657h-8.3c-.4 0-.7-.3-.7-.7v-2.4q0-.3.3-.6l1.7-1.3.9-6.2h-1.6c-.7 0-1.4-.4-1.9-1.1-.9-1.5-.9-4.4 0-5.9.5-.8 1.2-1.2 2-1.1h8.7c1.5 0 2.3 1 2.6 1.9h2.8c.4 0 .7.3.7.7v1.2h3.2c.4 0 .7.3.7.7s-.3.7-.7.7h-3.2v1.2c0 .4-.3.7-.7.7h-2.9c-.1.3-.3.5-.6.7-.9.7-2.3.8-3.2.8l-.9 5.8 1.6 1.2q.3.15.3.6v2.4c0 .4-.3.7-.7.7zm-7.6-1.4h6.9v-1.4l-1.5-1.1h-3.9l-1.5 1.1zm2.127-3.9h2.973l.9-6.2c0-.4.4-.6.8-.6.7 0 2.2 0 2.9-.5.2-.1.2-.2.2-.3v-3.8c0-.3-.1-1.2-1.3-1.2h-8.8c-.1 0-.4 0-.7.5-.7 1.1-.7 3.4 0 4.5.3.5.6.5.7.5h2.5c.2 0 .4 0 .5.2s.2.4.2.6zm9.173-8.3h2v-2.5h-2z" clip-rule="evenodd"/><path d="M3.988 20.257h6.9v-1.4l-1.5-1.1h-3.9l-1.5 1.1z"/></svg>