<svg xmlns="http://www.w3.org/2000/svg" width="24" height="24" viewBox="0 0 24 24" fill="currentColor"><path d="M11.365 17c.1-.2.22-.37.38-.53l5.05-5.05c.51-.51 1.18-.76 1.84-.75V2.36c0-.39-.31-.7-.7-.7H3.345c-.39 0-.7.31-.7.7v18.6c0 .39.31.7.7.7h6.38a2.6 2.6 0 0 1 .19-1.73zm-4.28-9.76h7.12c.39 0 .7.31.7.7s-.31.7-.7.7h-7.12c-.39 0-.7-.31-.7-.7s.31-.7.7-.7m0 3.72h7.12c.39 0 .7.31.7.7s-.31.7-.7.7h-7.12c-.39 0-.7-.31-.7-.7s.31-.7.7-.7m0 5.12c-.39 0-.7-.31-.7-.7s.31-.7.7-.7h3.11c.39 0 .7.31.7.7s-.31.7-.7.7zm13.89-2.31-1.44-1.44c-.5-.5-1.31-.5-1.81 0l-5.05 5.05c-.05.05-.1.12-.13.18l-1.45 2.93c-.25.5-.15 1.08.24 1.47a1.27 1.27 0 0 0 1.48.24l2.93-1.45c.07-.03.13-.08.18-.13l5.05-5.05c.24-.24.38-.56.38-.91s-.13-.66-.38-.91zm-5.97 5.8-2.52 1.25 1.25-2.52 4.89-4.89 1.27 1.27z"/></svg>