<svg xmlns="http://www.w3.org/2000/svg" width="24" height="24" viewBox="0 0 24 24" fill="currentColor"><path fill-rule="evenodd" d="m17.054 6.583.095-.936a2.57 2.57 0 0 0-1.59-2.638l-.871-.353a.257.257 0 0 0-.352.212l-.095.936a2.57 2.57 0 0 0 1.589 2.638l.872.353a.257.257 0 0 0 .352-.212m2.898 3.076-.648.807a.282.282 0 0 1-.45-.015l-.594-.848a2.82 2.82 0 0 1 .113-3.386l.648-.807a.282.282 0 0 1 .451.015l.593.848a2.82 2.82 0 0 1-.113 3.386m-12.562.465h2.851c.2 0 .377-.129.44-.319l.881-2.713a.462.462 0 0 1 .878 0l.882 2.713c.062.19.24.32.44.32h2.852c.447 0 .633.571.271.834l-2.308 1.677a.46.46 0 0 0-.168.516l.882 2.713a.462.462 0 0 1-.71.516l-2.308-1.677a.46.46 0 0 0-.542 0l-2.308 1.677a.461.461 0 0 1-.71-.516l.882-2.713a.46.46 0 0 0-.168-.516L7.12 10.96a.461.461 0 0 1 .271-.835m5.175 9.548.696.766a2.82 2.82 0 0 0 3.327.64l.93-.455a.282.282 0 0 0 .085-.444l-.696-.766a2.82 2.82 0 0 0-3.327-.639l-.93.454a.282.282 0 0 0-.085.444m4.984-1.25-1.001-.264a.282.282 0 0 1-.17-.418l.532-.887a2.82 2.82 0 0 1 3.139-1.275l1 .264a.282.282 0 0 1 .17.418l-.533.887a2.82 2.82 0 0 1-3.137 1.275m1.515-3.701.983-.324a2.82 2.82 0 0 0 1.938-2.778l-.036-1.034a.282.282 0 0 0-.37-.258l-.983.324a2.82 2.82 0 0 0-1.938 2.778l.036 1.034a.282.282 0 0 0 .37.258m-8.324 5.717.696-.766a.282.282 0 0 0-.085-.444l-.93-.454a2.82 2.82 0 0 0-3.327.64l-.696.765a.282.282 0 0 0 .085.444l.93.454c1.128.55 2.483.29 3.327-.639m-3.286-2.28-1.001.264a2.82 2.82 0 0 1-3.138-1.275l-.533-.887a.282.282 0 0 1 .17-.418l1-.264c1.214-.32 2.493.2 3.139 1.275l.533.887a.282.282 0 0 1-.17.418m-3.5-3.761.982.324a.282.282 0 0 0 .37-.258l.036-1.034a2.82 2.82 0 0 0-1.938-2.778l-.983-.324a.282.282 0 0 0-.37.258l-.036 1.034a2.82 2.82 0 0 0 1.938 2.778m.742-3.93-.648-.808a2.82 2.82 0 0 1-.113-3.386l.593-.848a.282.282 0 0 1 .451-.015l.648.807c.786.978.832 2.357.113 3.386l-.593.848a.282.282 0 0 1-.45.015m2.156-4.82.095.936c.018.17.193.276.352.212l.872-.353A2.57 2.57 0 0 0 9.76 3.804l-.095-.936a.257.257 0 0 0-.352-.212l-.872.353a2.57 2.57 0 0 0-1.589 2.638" clip-rule="evenodd"/></svg>