<svg xmlns="http://www.w3.org/2000/svg" width="24" height="24" viewBox="0 0 24 24" fill="currentColor"><path d="M22.368 6.224a.4.4 0 0 0-.21-.22l-7.55-3.3a.42.42 0 0 0-.33 0c-.1.05-.18.15-.21.26-.26 1-1.11 1.7-2.06 1.7s-1.8-.7-2.06-1.7a.42.42 0 0 0-.21-.26.38.38 0 0 0-.33 0l-7.57 3.3a.38.38 0 0 0-.21.22c-.04.1-.04.21 0 .31l2.36 5.29c.04.1.13.18.23.21.1.04.22.03.32-.02l1.22-.63v9.55c0 .22.18.4.4.4h11.68c.22 0 .4-.18.4-.4v-9.55l1.22.63c.1.05.21.06.32.02.1-.04.19-.11.23-.21l2.36-5.29c.04-.1.05-.21 0-.31"/></svg>