<svg xmlns="http://www.w3.org/2000/svg" width="24" height="24" viewBox="0 0 24 24" fill="currentColor"><path d="M13.913 3.263A.72.72 0 0 0 13.35 3c-.225 0-.412.112-.562.3-1.05 1.5-2.1 2.813-2.738 3.563-.225-.263-.525-.6-.825-1.013a.68.68 0 0 0-.562-.262c-.225 0-.413.112-.563.3-2.4 3.412-3.637 6-3.637 7.725C4.5 17.663 7.875 21 12 21s7.5-3.337 7.5-7.425c0-2.7-3.037-7.087-5.587-10.312M8.888 16.425c0-.825.862-2.513 2.325-4.5.712.975 1.275 1.688 1.312 1.688.15.15.338.262.525.262.225 0 .413-.075.525-.262 0 0 .075-.075.188-.226 1.125 1.8 1.312 2.663 1.312 3.038 0 1.762-1.387 3.188-3.112 3.188s-3.075-1.463-3.075-3.188"/></svg>