<svg xmlns="http://www.w3.org/2000/svg" width="24" height="24" viewBox="0 0 24 24" fill="currentColor"><path d="M17.635 17.295a.706.706 0 0 1-.5 1.2c-.18 0-.36-.07-.5-.21l-1.95-1.95-5.58 5.19a1.8 1.8 0 0 1-2.24.15c-.7-.49-.92-1.43-.53-2.17l2.38-4.46h-2.46c-.71 0-1.34-.41-1.61-1.04a1.66 1.66 0 0 1 .39-1.88l2.78-2.66-2.88-2.89a.706.706 0 0 1 0-.99c.27-.27.72-.27.99 0l2.9 2.9.99.99 4.91 4.92.99.99 1.92 1.92zm1.74-6.82c-.27-.64-.91-1.05-1.62-1.05h-2.51l2.64-4.94c.4-.75.17-1.69-.54-2.17-.67-.47-1.65-.4-2.25.17l-5.26 5.04 6.91 6.91 2.21-2.06c.52-.48.68-1.24.41-1.89z"/></svg>