<svg xmlns="http://www.w3.org/2000/svg" width="24" height="24" viewBox="0 0 24 24" fill="currentColor"><path d="M15.072 12.525c.23.57.09 1.24-.34 1.67l-7.5 7.39a1.42 1.42 0 0 1-1.87.13c-.58-.43-.77-1.26-.44-1.92l1.71-3.4h-1.67c-.59 0-1.12-.36-1.35-.92s-.1-1.24.32-1.67l7.67-7.78c.5-.5 1.31-.56 1.87-.15.59.43.78 1.26.45 1.93l-1.91 3.79h1.7c.59 0 1.12.37 1.35.93zm4.99-2.71c-.07.03-.15.04-.23.04a.67.67 0 0 1-.62-.46l-.41-1.18h-2.38l-.41 1.18a.67.67 0 0 1-.62.46c-.07 0-.15-.01-.23-.04-.34-.13-.52-.53-.4-.9l2.24-6.46s.01-.02.02-.03c.02-.04.04-.08.07-.12.02-.04.04-.08.07-.11s.06-.05.09-.07c.04-.03.08-.06.12-.08 0 0 .02-.01.03-.02.03-.01.06 0 .09-.01.04 0 .09-.02.13-.02.05 0 .09.01.14.02.03 0 .06 0 .09.01 0 0 .02.01.02.02.04.02.08.05.12.08.03.02.07.04.09.07.03.03.05.07.07.1.03.04.05.08.07.12 0 0 .01.02.02.03l2.22 6.46a.72.72 0 0 1-.4.9zm-1.73-3-.71-2.07-.71 2.07z"/></svg>