<svg xmlns="http://www.w3.org/2000/svg" width="24" height="24" viewBox="0 0 24 24" fill="currentColor"><path d="M4.7 8.62c-.09 0-.18.02-.28.03.24-3.58 3.23-6.43 6.88-6.43h1.4c3.65 0 6.63 2.84 6.88 6.43-.09 0-.18-.03-.28-.03-1.54 0-2.8 1.26-2.8 2.8v2.7h-9v-2.7c0-1.54-1.26-2.8-2.8-2.8m-.6 10.69v1.03c0 .79.64 1.44 1.44 1.44h.33c.79 0 1.43-.64 1.43-1.44v-1.02H4.2s-.07 0-.1-.01M19.3 9.22c-1.21 0-2.2.99-2.2 2.2v3c0 .17-.13.3-.3.3H7.2c-.17 0-.3-.13-.3-.3v-3c0-1.21-.99-2.2-2.2-2.2s-2.2.99-2.2 2.2v5.6c0 .94.76 1.7 1.7 1.7h15.6c.94 0 1.7-.76 1.7-1.7v-5.6c0-1.21-.99-2.2-2.2-2.2m-2.6 10.1v1.02c0 .79.64 1.44 1.43 1.44h.33c.79 0 1.44-.64 1.44-1.44v-1.03s-.07.01-.1.01z"/></svg>