<svg xmlns="http://www.w3.org/2000/svg" width="24" height="24" viewBox="0 0 24 24" fill="currentColor"><path d="M17.25 6.25H6.75C3.58 6.25 1 8.83 1 12s2.58 5.75 5.75 5.75c1.72 0 3.32-.76 4.42-2.1h1.66c1.1 1.34 2.7 2.1 4.42 2.1 3.17 0 5.75-2.58 5.75-5.75s-2.58-5.75-5.75-5.75m-8.4 6.25h-1.6v1.6c0 .28-.22.5-.5.5s-.5-.22-.5-.5v-1.6h-1.6c-.28 0-.5-.22-.5-.5s.22-.5.5-.5h1.6V9.9c0-.28.22-.5.5-.5s.5.22.5.5v1.6h1.6c.28 0 .5.22.5.5s-.22.5-.5.5m6.3.35a.85.85 0 1 1-.001-1.699.85.85 0 0 1 .001 1.699m2.1 2.1a.85.85 0 1 1-.001-1.699.85.85 0 0 1 .001 1.699m0-4.2a.85.85 0 1 1-.001-1.699.85.85 0 0 1 .001 1.699m2.1 2.1a.85.85 0 1 1-.001-1.699.85.85 0 0 1 .001 1.699"/></svg>