<svg xmlns="http://www.w3.org/2000/svg" width="24" height="24" viewBox="0 0 24 24" fill="currentColor"><path d="M12.881 7.595c.5.4 1.4.8 2.7 0 1.7-1 2.7-3.4 3-4.5-.7-.2-2-.5-3.9 0-1.4.3-1.9 1.6-2 2.7.7-.7 1.7-1.4 2.8-1.6.4 0 .7.2.8.6 0 .4-.2.7-.6.8-1 .2-2.1 1.3-2.8 2M5.381 4.195c.3 1 1.2 2.8 2.8 3.6 1.4.6 2.3.3 2.7-.1-.5-.4-1.2-.9-2.2-1.1-.4 0-.6-.4-.6-.8s.4-.6.8-.6q1.2.3 2.1.9c-.2-.8-.6-1.8-1.5-2-1.3-.325-2.666-.122-3.616.02q-.329.05-.584.08zM9.381 21.095h5.4l1.2-5.3h-7.9l1.2 5.3z"/><path fill-rule="evenodd" d="M15.281 22.495h-6.5c-.3 0-.6-.2-.7-.5l-1.5-6.3c-.5-.2-1.1-.8-1.1-2.1 0-1.8 1.2-2.2 1.7-2.2h4v-2.3c-.9.4-2.1.6-3.6 0-3-1.4-3.8-5-3.8-5.2 0-.3.1-.7.5-.8q.021-.002.164-.042c.66-.184 3.175-.883 5.536-.358.9.2 1.4.7 1.8 1.3.5-1 1.3-1.8 2.6-2.2 3.4-.8 5.4.3 5.5.4.3.2.4.5.3.8 0 .2-1.1 4.3-3.8 5.9-1.5.9-2.7.7-3.7.3v2.3h4.2c.5 0 1.7.4 1.7 2.2 0 1.543-.44 1.763-.881 1.984-.074.037-.147.073-.219.116l-1.5 6.2c-.055.238-.301.453-.7.5m-.5-1.4h-5.5l-1.2-5.3h7.9zm2.1-6.7h-9.5c-.3 0-.4-.3-.4-.8s.1-.8.3-.8h9.5c.3 0 .4.3.4.8s-.1.8-.3.8m-8.7-6.6c-1.6-.8-2.5-2.6-2.8-3.6h-.1q.255-.03.584-.08c.95-.142 2.316-.345 3.616-.02.9.2 1.3 1.2 1.5 2 0 0 .153.36.125.792a2.3 2.3 0 0 1-.225.808c-.4.4-1.3.7-2.7.1m7.4-.2c-1.3.8-2.2.4-2.7 0 0 0-.124-.26-.224-.847-.1-.588.024-.953.024-.953.1-1.1.6-2.4 2-2.7 1.9-.5 3.2-.2 3.9 0-.3 1.1-1.3 3.5-3 4.5" clip-rule="evenodd"/></svg>