<svg xmlns="http://www.w3.org/2000/svg" width="24" height="24" viewBox="0 0 24 24" fill="currentColor"><path d="M3.78 3a.78.78 0 0 0-.78.78v6.64c0 .431.35.78.78.78h6.64a.78.78 0 0 0 .78-.78V3.78a.78.78 0 0 0-.78-.78zM13.58 3a.78.78 0 0 0-.78.78v6.64c0 .431.349.78.78.78h6.64a.78.78 0 0 0 .78-.78V3.78a.78.78 0 0 0-.78-.78zM12.8 13.58c0-.431.349-.78.78-.78h6.64c.43 0 .78.349.78.78v6.64c0 .43-.35.78-.78.78h-6.64a.78.78 0 0 1-.78-.78zM3.78 12.8a.78.78 0 0 0-.78.78v6.64c0 .43.35.78.78.78h6.64a.78.78 0 0 0 .78-.78v-6.64a.78.78 0 0 0-.78-.78z"/></svg>