<svg xmlns="http://www.w3.org/2000/svg" width="24" height="24" viewBox="0 0 24 24" fill="currentColor"><path d="M12 2a10 10 0 1 0 0 20 10 10 0 0 0 0-20m0 15.24a1 1 0 1 1 0-2 1 1 0 0 1 0 2m2.36-6L13.14 13a1.3 1.3 0 0 0-.24.42 1.7 1.7 0 0 0-.07.56v.45a.14.14 0 0 1-.095.155.14.14 0 0 1-.065.005h-1.44a.14.14 0 0 1-.16-.16v-.63a2.5 2.5 0 0 1 .09-.75q.117-.31.31-.58l1.23-1.67q.244-.312.41-.67.12-.293.12-.61a1.15 1.15 0 0 0-.33-.83 1.17 1.17 0 0 0-.9-.38 1.2 1.2 0 0 0-.88.33 1.63 1.63 0 0 0-.44.91c0 .11-.08.15-.17.13l-1.4-.22C9 9.45 9 9.39 9 9.27a2.92 2.92 0 0 1 1-1.84 3.12 3.12 0 0 1 2.09-.67c.4-.008.796.06 1.17.2.345.122.66.313.93.56.259.237.464.527.6.85.147.344.219.716.21 1.09a2.93 2.93 0 0 1-.64 1.82z"/></svg>