<svg xmlns="http://www.w3.org/2000/svg" width="24" height="24" viewBox="0 0 24 24" fill="currentColor"><path d="M20.005 4.29h-1.73V2.81c0-.39-.31-.7-.7-.7s-.7.31-.7.7v1.48H4.945a2.39 2.39 0 0 0-2.39 2.39v4.43c0 .8.65 1.44 1.44 1.44h.22v1.61c0 .39.31.7.7.7s.7-.31.7-.7v-1.61h1.17c.28 0 .5-.22.5-.5v-1.57h6.42v6.78h-9.23c-1.06 0-1.92.86-1.92 1.92v2.21c0 .28.22.5.5.5h16.95c.8 0 1.44-.65 1.44-1.44V5.73c0-.8-.65-1.44-1.44-1.44m-2.43 11.11c-.83 0-1.5-.67-1.5-1.5s.67-1.5 1.5-1.5 1.5.67 1.5 1.5-.67 1.5-1.5 1.5"/></svg>