<svg xmlns="http://www.w3.org/2000/svg" width="24" height="24" viewBox="0 0 24 24" fill="currentColor"><path d="M16.26 5.98c0-.94-.38-1.82-1.04-2.48l-.18-.18a3.534 3.534 0 0 0-4.99.02l-3.37 3.4-3.37 3.39a3.538 3.538 0 0 0 .03 4.98l.18.18a3.521 3.521 0 0 0 4.98-.02l3.37-3.39 3.36-3.39c.66-.67 1.03-1.55 1.02-2.5zm-2.01 1.51-2.88 2.9-3.2-3.16 2.87-2.9a2.13 2.13 0 0 1 3.01-.01l.18.18a2.11 2.11 0 0 1 .01 3zm2.58 4.47a4.87 4.87 0 1 0-.001 9.74 4.87 4.87 0 0 0 .001-9.74m.7 8.27c-.23.05-.46.07-.7.07s-.47-.02-.7-.07v-6.79c.23-.05.46-.07.7-.07s.47.02.7.07z"/></svg>