<svg xmlns="http://www.w3.org/2000/svg" width="24" height="24" viewBox="0 0 24 24" fill="currentColor"><path d="M7.214 6.29h9.76a16.2 16.2 0 0 1 2.453 2.88c1.114 1.674 1.942 3.61 2.105 5.55l.03.5c.083 2.47-.821 4.36-2.495 5.624-1.743 1.317-4.235 1.892-7.067 1.892-2.833 0-5.324-.575-7.067-1.892-1.786-1.349-2.697-3.407-2.466-6.124l.039-.364c.23-1.817 1.022-3.616 2.066-5.185a16.2 16.2 0 0 1 2.466-2.893q.086.01.176.012M22.544 7.646c.15 0 .277.122.277.277 0 .546.345.89.89.89a.276.276 0 1 1 0 .554c-.545 0-.89.345-.89.89a.28.28 0 0 1-.277.278.277.277 0 0 1-.277-.277c0-.546-.344-.89-.89-.89a.277.277 0 0 1 0-.554c.546 0 .89-.345.89-.891a.28.28 0 0 1 .277-.277M21.209 2.481c.235 0 .424.19.424.424 0 .836.529 1.36 1.36 1.36a.423.423 0 1 1 0 .848c-.835 0-1.36.53-1.36 1.36a.424.424 0 1 1-.849 0c0-.835-.53-1.36-1.36-1.36a.423.423 0 1 1 0-.847c.835 0 1.36-.53 1.36-1.36 0-.236.19-.425.425-.425M12 .455c.748 0 1.257.291 1.682.57.426.28.75.527 1.268.704.424.145 1.005.085 1.56-.065a6 6 0 0 0 .894-.321l.012-.006h-.001l.083-.033a.673.673 0 0 1 .882.598l-.001.09c-.092 1.216-.711 2.2-1.434 2.954H7.214q-.077.001-.15.01c-.689-.716-1.286-1.639-1.425-2.772l-.019-.192a.672.672 0 0 1 .964-.654l-.001-.001.012.006.046.021q.065.03.189.08c.164.065.395.149.658.22.556.15 1.137.21 1.56.065.52-.177.843-.424 1.268-.704s.935-.57 1.684-.57"/></svg>