<svg xmlns="http://www.w3.org/2000/svg" width="24" height="24" viewBox="0 0 24 24" fill="currentColor"><path d="M19.12 6.8v13.5c0 .77-.63 1.4-1.4 1.4H9.38c-.77 0-1.4-.63-1.4-1.4v-.9h6.64c1.21 0 2.2-.99 2.2-2.2V5.4h.9c.77 0 1.4.63 1.4 1.4m-9.76 3.65 1.09 1.91 1.09-1.91-1.09-1.91zm5.26 8.15H6.28c-.77 0-1.4-.63-1.4-1.4V3.7c0-.77.63-1.4 1.4-1.4h8.34c.77 0 1.4.63 1.4 1.4v13.5c0 .77-.63 1.4-1.4 1.4m-6.06-2.98c0-.1 0-.19-.05-.27-.03-.09-.09-.16-.15-.23-.07-.06-.14-.12-.23-.15a.7.7 0 0 0-.53 0c-.09.03-.17.09-.23.15-.07.07-.12.14-.15.23q-.06.12-.06.27c0 .18.08.36.21.49.06.07.14.12.23.15.08.04.17.06.26.06q.15 0 .27-.06c.09-.03.16-.08.23-.15.13-.13.2-.31.2-.49m3.79-5.37L10.8 7.54c-.14-.25-.55-.25-.7 0l-1.55 2.71c-.07.12-.07.27 0 .4l1.55 2.71c.07.12.2.2.35.2s.28-.08.35-.2l1.55-2.71c.07-.12.07-.27 0-.4m1.38-4.97c0-.09-.02-.18-.05-.27a.9.9 0 0 0-.15-.22c-.26-.27-.74-.26-.99 0-.07.06-.12.14-.15.22a.66.66 0 0 0 .15.76c.13.14.31.21.49.21.19 0 .37-.07.5-.21.13-.12.2-.31.2-.49"/></svg>