<svg xmlns="http://www.w3.org/2000/svg" width="24" height="24" viewBox="0 0 24 24" fill="currentColor"><path d="M19.59 21.797a2.357 2.357 0 0 0 2.352-2.352V10.57c0-.594-.19-1.23-.465-1.782-.242-.483-.575-.952-.973-1.3l-.174-.142v-.001l-6.584-4.92c-.506-.38-1.142-.55-1.747-.55-.53 0-1.083.13-1.553.417l-.195.132h-.001l-6.583 4.92-.001.002c-.475.356-.87.89-1.146 1.442s-.466 1.188-.466 1.782v8.875a2.357 2.357 0 0 0 2.351 2.352H8.18a2.356 2.356 0 0 0 2.35-2.352v-2.754a1.466 1.466 0 0 1 2.93 0v2.754c0 .028.006.055.009.081a2.355 2.355 0 0 0 2.347 2.27z"/></svg>