<svg xmlns="http://www.w3.org/2000/svg" width="24" height="24" viewBox="0 0 24 24" fill="currentColor"><path fill-rule="evenodd" d="M4.7 21.3V2.7h14.6v18.6zM6.3 14a5.7 5.7 0 1 1 11.4 0 5.7 5.7 0 0 1-11.4 0m2.457-9a1 1 0 1 1-2 0 1 1 0 0 1 2 0m3.242 0a1 1 0 1 1-2 0 1 1 0 0 1 2 0" clip-rule="evenodd"/><path d="M7.757 14.7h8.486a4.301 4.301 0 0 1-8.486 0"/><path fill-rule="evenodd" d="M4 1.3a.7.7 0 0 0-.7.7v20a.7.7 0 0 0 .7.7h16a.7.7 0 0 0 .7-.7V2a.7.7 0 0 0-.7-.7zm.7 20V2.7h14.6v18.6z" clip-rule="evenodd"/></svg>