<svg xmlns="http://www.w3.org/2000/svg" width="24" height="24" viewBox="0 0 24 24" fill="currentColor"><path fill-rule="evenodd" d="M12 2A10 10 0 1 1 2 12C2 6.477 6.477 2 12 2m0 1.4A8.6 8.6 0 0 0 3.4 12a8.6 8.6 0 0 0 8.6 8.6 8.61 8.61 0 0 0 8.6-8.6A8.6 8.6 0 0 0 12 3.4" clip-rule="evenodd"/><path fill-rule="evenodd" d="M12 3.4A8.6 8.6 0 0 0 3.4 12a8.6 8.6 0 0 0 8.6 8.6 8.61 8.61 0 0 0 8.6-8.6A8.6 8.6 0 0 0 12 3.4m-.93 13.49h1.86v-6.51h-1.86zm2.05-8.66a1.12 1.12 0 1 0-2.24 0 1.12 1.12 0 0 0 2.24 0" clip-rule="evenodd"/></svg>