<svg xmlns="http://www.w3.org/2000/svg" width="24" height="24" viewBox="0 0 24 24" fill="currentColor"><path d="M17.556 20.3H6.445c-.572 0-.945 0-1.212-.03a1.2 1.2 0 0 1-.242-.044c-.01-.03-.026-.09-.039-.2-.029-.248-.03-.596-.03-1.144v-8.829h14.156v8.83c0 .547-.001.895-.03 1.143-.013.11-.029.17-.039.2-.032.01-.103.03-.242.045-.267.028-.64.03-1.211.03M5.585 8.653c.238-.274.535-.579.895-.884C7.628 6.798 9.417 5.818 12 5.818s4.372.98 5.52 1.951c.36.305.657.61.895.884z"/><path fill-rule="evenodd" d="M10.29 2.638a.7.7 0 0 1 .599-.338h2.222a.7.7 0 0 1 .62 1.025l-.603 1.15c2.384.242 4.122 1.231 5.297 2.226a9.5 9.5 0 0 1 1.48 1.573q.16.215.266.379h1.83a.7.7 0 0 1 .573 1.101l-2.096 2.996v6.173c0 .495 0 .926-.04 1.265-.04.346-.135.75-.455 1.054-.313.298-.719.384-1.069.421s-.797.037-1.32.037H6.406c-.523 0-.97 0-1.32-.037s-.756-.123-1.069-.42c-.32-.306-.415-.71-.455-1.055-.04-.339-.04-.77-.04-1.265V12.75L1.426 9.754A.7.7 0 0 1 2 8.653h1.829q.106-.163.265-.38a9.5 9.5 0 0 1 1.481-1.572c1.175-.995 2.913-1.984 5.297-2.227l-.603-1.149a.7.7 0 0 1 .02-.687M17.556 20.3H6.445c-.572 0-.945 0-1.212-.03a1.2 1.2 0 0 1-.242-.044c-.01-.03-.026-.09-.039-.2-.029-.248-.03-.596-.03-1.144v-8.829c0-.553.663-1.4.663-1.4.238-.274.535-.579.895-.884C7.628 6.798 9.417 5.818 12 5.818s4.372.98 5.52 1.951c.36.305.657.61.895.884 0 0 .663.847.663 1.4v8.83c0 .547-.001.895-.03 1.143-.013.11-.029.17-.039.2-.032.01-.103.03-.242.045-.267.028-.64.03-1.211.03" clip-rule="evenodd"/></svg>