<svg xmlns="http://www.w3.org/2000/svg" width="24" height="24" viewBox="0 0 24 24" fill="currentColor"><path fill-rule="evenodd" d="M11.744 4.953A.7.7 0 0 0 12 5a.66.66 0 0 0 .67-.62V2.67a.67.67 0 0 0-1.34 0v1.67a.66.66 0 0 0 .414.613M16.57 6.69H7.43a.19.19 0 0 0-.19.19v.95c0 .105.085.19.19.19h9.14a.19.19 0 0 0 .19-.19v-.95a.19.19 0 0 0-.19-.19m-4.51 1.98H7.24A3.32 3.32 0 0 0 10.33 12v8.41A1.61 1.61 0 0 0 11.94 22h.12a1.61 1.61 0 0 0 1.61-1.61V12a3.31 3.31 0 0 0 3.09-3.31zm.61 6a.67.67 0 0 1-1.34 0V14a.67.67 0 1 1 1.34 0zM9.09 5.5a.67.67 0 0 1-.91-.25l-.85-1.48a.67.67 0 1 1 1.15-.67l.86 1.48a.68.68 0 0 1-.25.92m5.507-.409a.68.68 0 0 0 .313.409.67.67 0 0 0 .91-.25l.85-1.48a.669.669 0 1 0-1.15-.67l-.86 1.48a.68.68 0 0 0-.063.511" clip-rule="evenodd"/></svg>