<svg xmlns="http://www.w3.org/2000/svg" width="24" height="24" viewBox="0 0 24 24" fill="currentColor"><path fill-rule="evenodd" d="M12.338 20.174c.13.12.21.29.22.48-.01.25-.07.5-.18.73s-.26.43-.44.61c-.19.17-.4.3-.64.39s-.49.13-.74.12h-2c-.25.01-.5-.03-.74-.12s-.45-.22-.64-.39-.34-.38-.44-.61c-.11-.23-.17-.48-.18-.73 0-.18.09-.35.22-.48.13-.12.31-.19.49-.18h4.58c.18 0 .36.06.49.18m4.05-12.62a7.2 7.2 0 0 1-.09 4.47 7.15 7.15 0 0 1-2.73 3.54v2.23c0 .09-.02.18-.05.27-.04.09-.09.16-.15.23-.07.07-.14.12-.23.15s-.18.05-.27.05h-6.6c-.09 0-.18-.02-.27-.05s-.16-.09-.23-.15a.6.6 0 0 1-.15-.23.65.65 0 0 1-.05-.27v-2.23a7.15 7.15 0 0 1-2.73-3.54 7.157 7.157 0 0 1 2.49-8.12 7.145 7.145 0 0 1 11.08 3.65zm4.97-3.85a.7.7 0 0 0-.49-.21h-1.3v-1.3a.65.65 0 0 0-.21-.49.7.7 0 0 0-.49-.21.697.697 0 0 0-.7.7v1.3h-1.3a.697.697 0 0 0-.5 1.19c.13.13.31.21.5.21h1.3v1.3c0 .19.07.36.2.49s.31.21.5.21.36-.07.49-.21c.13-.13.21-.31.21-.49v-1.3h1.3c.19 0 .36-.07.49-.21.13-.13.21-.31.21-.49s-.07-.36-.21-.49" clip-rule="evenodd"/></svg>