<svg xmlns="http://www.w3.org/2000/svg" width="24" height="24" viewBox="0 0 24 24" fill="currentColor"><path d="M16.687 13.209c-.52 0-1.01-.16-1.44-.46-3.002-2.11-4.812-3.85-5.392-5.17-.1-.23-.16-.46-.22-.69-1.43-.81-3.201-.98-4.822-.29-2.79 1.18-4.081 4.44-2.84 7.16 1.11 2.43 6.081 5.96 8.282 7.44.3.2.64.3.99.3.34 0 .69-.1.98-.31 2.171-1.51 7.083-5.08 8.143-7.53.39-.91.5-1.87.38-2.79-.75.6-1.62 1.24-2.64 1.92-.421.27-.901.42-1.421.42"/><path d="M20.528 2.829c-1.1-.47-2.311-.3-3.211.36-.16.12-.36.18-.56.17-.19 0-.39-.06-.55-.19-.89-.67-2.101-.88-3.212-.43-1.68.68-2.48 2.61-1.77 4.25.64 1.46 3.571 3.63 4.871 4.54a1.06 1.06 0 0 0 1.18.02c1.311-.88 4.282-2.97 4.942-4.41.74-1.62-.03-3.58-1.7-4.3z"/></svg>