<svg xmlns="http://www.w3.org/2000/svg" width="24" height="24" viewBox="0 0 24 24" fill="currentColor"><path d="M17.71 6.57c-.13.46-.19.62-.36.91-.14.25-.28.46-.47.67-.19-.2-.34-.39-.5-.67-.19-.32-.28-.52-.4-.91h1.74zm4.72 8.12c.12.26.08.57-.12.78-.14.15-.32.23-.52.23-.08 0-.17-.02-.25-.05s-.81-.33-1.73-1.24c-.3-.3-.54-.59-.72-.82-.63.17-1.3.27-1.98.29h-.21c-.78 0-1.52-.11-2.23-.31-.29-2.46-2.18-4.52-4.75-5.4 0-.07-.02-.14-.02-.21 0-3.27 3.14-5.93 7-5.93s7 2.66 7 5.93c0 1.66-.81 3.23-2.24 4.35 0 .2.04.5.17.86.33.98.59 1.53.6 1.54zm-2.67-5.11c-.94-.19-1.52-.41-2.18-.85.28-.32.49-.62.69-.99.2-.38.29-.63.43-1.18h.14c.31 0 .55.01.79.04v-.93c-.25.03-.49.04-.83.04h-1.52v-.39c0-.15.01-.28.04-.4h-1.04c.02.13.04.26.04.41v.38h-1.43c-.33 0-.58-.01-.82-.04v.93c.24-.02.51-.04.8-.04h.12c.17.55.26.76.46 1.12.21.38.44.71.75 1.05-.58.4-1.19.65-2.22.91.25.32.37.55.5.9 1.07-.34 1.73-.66 2.4-1.18.7.53 1.3.84 2.34 1.17.16-.4.28-.63.53-.95zM6.37 14.63h1.54l-.77-2.14zm7.74-.41c0 .96-.27 1.89-.8 2.75-1.21 1.97-3.59 3.19-6.2 3.19h-.15c-.74-.03-1.41-.12-2.05-.3-.17.23-.42.52-.72.82-.91.91-1.65 1.21-1.73 1.24s-.17.05-.25.05c-.19 0-.38-.08-.52-.23a.72.72 0 0 1-.12-.78s.26-.55.6-1.54c.12-.36.16-.66.17-.86C.91 17.44.1 15.87.1 14.21c0-3.27 3.14-5.93 7-5.93s7 2.66 7 5.93zm-4.33 2.45-2.03-5.24h-1.2l-2.04 5.24h1.13l.42-1.16h2.17l.42 1.16z"/></svg>