<svg xmlns="http://www.w3.org/2000/svg" width="24" height="24" viewBox="0 0 24 24" fill="currentColor"><path fill-rule="evenodd" d="M12.008 2.63a1.02 1.02 0 0 0-1.018 1.018V5.07a.67.67 0 0 1-1.34 0V3.648a2.36 2.36 0 0 1 2.358-2.359 2.36 2.36 0 0 1 2.359 2.359v1.465a.67.67 0 1 1-1.34 0V3.648a1.02 1.02 0 0 0-1.019-1.019M9.464 18.378h.007a.67.67 0 0 1 .663.67 1.875 1.875 0 0 0 3.748 0 .67.67 0 0 1 .663-.67h.014a.67.67 0 0 1 .663.67 3.215 3.215 0 0 1-6.428 0 .67.67 0 0 1 .663-.67z" clip-rule="evenodd"/><path fill-rule="evenodd" d="M5.523 10.682a6.486 6.486 0 0 1 6.485-6.485 6.486 6.486 0 0 1 6.485 6.485.67.67 0 1 1-1.34 0v-.096a5.146 5.146 0 0 0-5.145-5.05 5.146 5.146 0 0 0-5.145 5.146l-.003.072a.67.67 0 0 1-1.337-.072" clip-rule="evenodd"/><path fill-rule="evenodd" d="M6.19 10.012c.37 0 .67.3.67.67v2.464c0 .715-.22 1.785-.506 2.446v.002l-1.15 2.673a.4.4 0 0 0-.03.1q.029.01.1.011h13.458q.07-.002.1-.012a.4.4 0 0 0-.03-.096v-.002L17.65 15.59c-.281-.658-.505-1.728-.505-2.445v-2.464q0-.05.007-.096a.67.67 0 0 1 1.333.096v2.464c0 .532.186 1.423.397 1.917l1.15 2.673v.002c.19.44.208.948-.07 1.371s-.753.609-1.23.609H5.273c-.478 0-.952-.186-1.23-.61-.276-.422-.258-.93-.07-1.368l1.151-2.68c.213-.49.396-1.38.396-1.914v-2.464c0-.37.3-.67.67-.67" clip-rule="evenodd"/><path d="M9.464 18.378h9.268q.07-.002.1-.012a.4.4 0 0 0-.03-.096v-.002L17.65 15.59c-.281-.658-.505-1.728-.505-2.445v-2.464q0-.05.007-.096a5.146 5.146 0 0 0-5.144-5.05 5.146 5.146 0 0 0-5.145 5.146l-.003.072v2.392c0 .715-.22 1.785-.506 2.446v.002l-1.15 2.673a.4.4 0 0 0-.03.1q.029.01.1.011h4.19"/></svg>