<svg xmlns="http://www.w3.org/2000/svg" width="24" height="24" viewBox="0 0 24 24" fill="currentColor"><path d="M5.29 12.584c-.24.1-.5.15-.74.15-.78 0-1.52-.47-1.83-1.23l-.37-.92c-.2-.49-.2-1.03 0-1.51.21-.49.59-.87 1.08-1.06 1.01-.41 2.17.08 2.58 1.09l.37.92c.41 1.01-.08 2.17-1.09 2.58zm1.6-5.54c.09.57.39 1.07.86 1.41.37.27.82.42 1.27.42.11 0 .22 0 .33-.03a2.16 2.16 0 0 0 1.81-2.46l-.2-1.35a2.154 2.154 0 0 0-2.47-1.8c-.57.09-1.07.39-1.41.86a2.12 2.12 0 0 0-.39 1.6zm7.72 1.8h.02q.165.03.33.03c1.05 0 1.97-.77 2.13-1.83l.2-1.35a2.12 2.12 0 0 0-.39-1.6c-.34-.46-.84-.77-1.42-.86-1.17-.18-2.28.63-2.46 1.81l-.2 1.35c-.09.57.05 1.14.39 1.6s.84.77 1.39.85zm7.03.22c-.21-.49-.59-.87-1.08-1.06-1.01-.41-2.17.08-2.58 1.09l-.37.92c-.41 1.01.08 2.17 1.09 2.58.24.1.5.15.74.15.78 0 1.52-.47 1.84-1.23l.37-.92c.2-.49.2-1.03 0-1.51zm-4.83 4.74c-.68-.28-1.21-.83-1.48-1.55a3.6 3.6 0 0 0-3.35-2.25c-1.48 0-2.77.87-3.33 2.21 0 .02-.02.04-.02.05-.25.69-.79 1.25-1.46 1.52a3.65 3.65 0 0 0-2.36 3.4c0 1.99 1.62 3.61 3.61 3.61.48 0 .94-.09 1.36-.26 1.43-.5 3.07-.49 4.43 0 .42.17.87.25 1.33.25a3.615 3.615 0 0 0 1.26-7z"/></svg>