<svg xmlns="http://www.w3.org/2000/svg" width="24" height="24" viewBox="0 0 24 24" fill="currentColor"><path d="M21 17.184v-.17a2.2 2.2 0 0 0-.38-1 .8.8 0 0 0-.17-.22l-.34-.28-.11-.04-3.35-1.9-.16-.08-.11-.05-.9-.28a.7.7 0 0 0-.81.29l-.81 1.19-.9-.75c-.4-.36-.87-.79-1.4-1.32l-.1-.1c-.53-.54-1-1-1.34-1.42l-.75-.9.54-.38h.05l.63-.38a.7.7 0 0 0 .3-.85l-.32-.86-2.07-3.73-.12-.17-.14-.15a2.3 2.3 0 0 0-1.39-.62H6.7a2.43 2.43 0 0 0-1.25.38l-.13.1-.4.32c-.16.14-.32.28-.35.32l-.09.08a5.2 5.2 0 0 0-1.19 1.86A4.9 4.9 0 0 0 3 7.724q.008.505.11 1a11.4 11.4 0 0 0 1.6 3.84 20.8 20.8 0 0 0 3 3.71 21.2 21.2 0 0 0 3.7 3c1.178.765 2.486 1.31 3.86 1.61q.495.092 1 .1a5 5 0 0 0 1.73-.26 5.4 5.4 0 0 0 1.9-1.24l.36-.4.32-.4.07-.1a2.23 2.23 0 0 0 .35-1.28z"/></svg>