<svg xmlns="http://www.w3.org/2000/svg" width="24" height="24" viewBox="0 0 24 24" fill="currentColor"><path d="M11.305 21.995h-6.6c-.39 0-.7-.31-.7-.7v-7.2h7.3zm-8.4-10v-3.85c0-.39.31-.7.7-.7h3.24s-.05-.04-.08-.06c-.6-.6-.93-1.39-.93-2.23s.32-1.64.92-2.23c1.23-1.23 3.23-1.22 4.47.01.32.32.57.83.76 1.41.2-.58.45-1.09.76-1.41.6-.6 1.39-.93 2.23-.93h.01c.84 0 1.63.33 2.22.92.59.6.92 1.39.92 2.23s-.33 1.63-.93 2.23c-.02.02-.05.04-.08.06h3.28c.39 0 .7.31.7.7v3.85c0 .39-.31.7-.7.7h-7.7v-4.15h-1.4v4.15h-7.69c-.39 0-.7-.31-.7-.7m9.86-4.64c1.37-.18 3-.53 3.44-.97.33-.33.52-.78.52-1.25s-.18-.91-.51-1.24-.76-.51-1.23-.51-.91.19-1.25.52c-.44.44-.79 2.07-.97 3.44zm-5.53-2.21c0 .47.19.91.52 1.25.44.44 2.07.79 3.44.97-.17-1.37-.53-3-.97-3.44-.35-.35-.8-.52-1.25-.52s-.89.17-1.23.51c-.33.33-.51.77-.51 1.24zm5.47 8.95v7.9h6.6c.39 0 .7-.31.7-.7v-7.2z"/></svg>