<svg xmlns="http://www.w3.org/2000/svg" width="24" height="24" viewBox="0 0 24 24" fill="currentColor"><path d="M22.85 5.35c0 .39-.31.7-.7.7h-2.8v2.8c0 .39-.31.7-.7.7s-.7-.31-.7-.7v-2.8h-2.8c-.39 0-.7-.31-.7-.7s.31-.7.7-.7h2.8v-2.8c0-.39.31-.7.7-.7s.7.31.7.7v2.8h2.8c.39 0 .7.31.7.7m-2.3 4.11c.38 1.06.6 2.2.6 3.39 0 5.51-4.49 10-10 10s-10-4.49-10-10 4.49-10 10-10c1.19 0 2.33.22 3.39.6-.8.26-1.39 1-1.39 1.9 0 1.1.9 2 2 2h1.5v1.5c0 1.1.9 2 2 2 .89 0 1.64-.59 1.9-1.39M8.36 11.81c.46 0 .84-.37.84-.84s-.37-.84-.84-.84-.84.37-.84.84.37.84.84.84m5.58 2.51H8.36a2.791 2.791 0 0 0 5.58 0m.84-3.35c0-.46-.37-.84-.84-.84s-.84.37-.84.84.37.84.84.84.84-.37.84-.84"/></svg>