<svg xmlns="http://www.w3.org/2000/svg" width="24" height="24" viewBox="0 0 24 24" fill="currentColor"><path d="M12 2a10 10 0 1 0 0 20 10 10 0 0 0 0-20m-4.56 9.54a.71.71 0 0 1 0-1L8 10l-.57-.56a.71.71 0 0 1 0-1 .69.69 0 0 1 1 0L9 9l.57-.56a.69.69 0 0 1 1 0 .71.71 0 0 1 0 1L10 10l.57.57a.71.71 0 0 1 0 1 .74.74 0 0 1-.5.2.7.7 0 0 1-.49-.2L9 11l-.57.57a.7.7 0 0 1-.49.2.74.74 0 0 1-.5-.23m8.19 4.77a.7.7 0 0 1-.63.39.7.7 0 0 1-.31-.07L12 15.28l-2.69 1.35a.702.702 0 0 1-.62-1.26l3-1.5a.75.75 0 0 1 .62 0l3 1.5a.71.71 0 0 1 .32.94m.93-5.76a.71.71 0 0 1 0 1 .74.74 0 0 1-.5.2.7.7 0 0 1-.49-.2L15 11l-.57.57a.7.7 0 0 1-.49.2.74.74 0 0 1-.5-.2.71.71 0 0 1 0-1L14 10l-.57-.56a.71.71 0 0 1 0-1 .69.69 0 0 1 1 0L15 9l.57-.56a.69.69 0 0 1 1 0 .71.71 0 0 1 0 1L16 10z"/></svg>