<svg xmlns="http://www.w3.org/2000/svg" width="24" height="24" viewBox="0 0 24 24" fill="currentColor"><path fill-rule="evenodd" d="M2.3 3a.7.7 0 0 1 .7-.7h2a.7.7 0 1 1 0 1.4H3a.7.7 0 0 1-.7-.7M8 2.3a.7.7 0 1 0 0 1.4h9a.7.7 0 1 0 0-1.4zm0 4a.7.7 0 0 0-.25 1.354 8.2 8.2 0 0 0-2.05 3.312.7.7 0 0 0-.7-.666H3a.7.7 0 1 0 0 1.4h2a.7.7 0 0 0 .57-.293A8.2 8.2 0 1 0 9.573 6.3zm-5 0a.7.7 0 1 0 0 1.4h2a.7.7 0 1 0 0-1.4zm10.5 3a.7.7 0 0 1 .7.7v2.8H17a.7.7 0 1 1 0 1.4h-2.8V17a.7.7 0 1 1-1.4 0v-2.8H10a.7.7 0 0 1 0-1.4h2.8V10a.7.7 0 0 1 .7-.7" clip-rule="evenodd"/></svg>