<svg xmlns="http://www.w3.org/2000/svg" width="24" height="24" viewBox="0 0 24 24" fill="currentColor"><path fill-rule="evenodd" d="M15.307 11.948a4.93 4.93 0 0 0 2.823.882 4.9 4.9 0 0 0 2.39-.59.24.24 0 0 1 .35.21v4a1.48 1.48 0 0 1-.83 1.32l-7.42 3.58a1.44 1.44 0 0 1-1.28 0l-4.38-2.13-3-1.48a1.48 1.48 0 0 1-.82-1.32V7.65a1.45 1.45 0 0 1 .81-1.31l7.46-3.68a1.47 1.47 0 0 1 1.31 0l2.2 1.1a.23.23 0 0 1 0 .39 4.93 4.93 0 0 0 .387 7.798M9.37 17.08l.85.42v-2.71a2.49 2.49 0 0 0-1.92-2.66 1 1 0 0 0-.88.24 2 2 0 0 0-1.48-1.14c-.78-.08-1.16.6-1.16 1.27v2.31l.78.38v-2.47c0-.55.31-.63.48-.63a1.28 1.28 0 0 1 1 1.42v2.41l.78.39s-.01-2.15 0-2.59.23-.62.48-.62a1.36 1.36 0 0 1 1.07 1.43zm12.75-9.19a3.98 3.98 0 1 1-7.96 0 3.98 3.98 0 0 1 7.96 0" clip-rule="evenodd"/></svg>