<svg xmlns="http://www.w3.org/2000/svg" width="24" height="24" viewBox="0 0 24 24" fill="currentColor"><path fill-rule="evenodd" d="M20.34 12.81a.938.938 0 0 1 0-1.62c1.11-.65 1.49-2.07.85-3.18l-1.17-2.04a2.29 2.29 0 0 0-3.13-.84.885.885 0 0 1-1.33-.76v-.05c0-1.28-1.04-2.31-2.31-2.31h-2.28c-1.3 0-2.35 1.05-2.35 2.35 0 .73-.8 1.19-1.44.82a2.37 2.37 0 0 0-3.24.86L2.81 8.01a2.33 2.33 0 0 0 .85 3.18c.62.36.62 1.26 0 1.62a2.335 2.335 0 0 0-.85 3.18l1.13 1.97a2.36 2.36 0 0 0 3.24.86c.64-.37 1.44.09 1.44.82 0 1.3 1.05 2.35 2.35 2.35h2.28c1.28 0 2.31-1.04 2.31-2.31v-.05c0-.68.74-1.11 1.33-.76 1.09.64 2.5.26 3.13-.84l1.17-2.04a2.33 2.33 0 0 0-.85-3.18m-8.33 2.99c-2.1 0-3.8-1.7-3.8-3.8s1.7-3.8 3.8-3.8 3.8 1.7 3.8 3.8-1.7 3.8-3.8 3.8" clip-rule="evenodd"/></svg>