<svg xmlns="http://www.w3.org/2000/svg" width="24" height="24" viewBox="0 0 24 24" fill="currentColor"><path d="M20.77 5.9a.7.7 0 0 0-.54-.18 7.17 7.17 0 0 1-4.16-1c-2.14-1.38-3.62-2.54-3.64-2.55a.69.69 0 0 0-.86 0s-1.5 1.14-3.64 2.53a7.24 7.24 0 0 1-4.16 1 .77.77 0 0 0-.54.18.68.68 0 0 0-.23.54v6.51c0 5 8.36 8.85 8.71 9a.73.73 0 0 0 .58 0c.35-.16 8.71-4 8.71-9V6.42a.68.68 0 0 0-.23-.52M12 20.53V12H4.4V7.13a8.43 8.43 0 0 0 4.29-1.25C10.22 4.89 11.4 4 12 3.58V12h7.6v.93c0 3.28-5.23 6.47-7.6 7.6"/></svg>