<svg xmlns="http://www.w3.org/2000/svg" width="24" height="24" viewBox="0 0 24 24" fill="currentColor"><path d="M2.03 11.5a9.94 9.94 0 0 1 2.73-6.37l.5.5a8.67 8.67 0 0 1 2.72 5.87zm13.98 0h5.96a9.94 9.94 0 0 0-2.73-6.37l-.49.49a8.68 8.68 0 0 0-2.73 5.88zm-3.51 0h2.51a9.72 9.72 0 0 1 3.03-6.6l.47-.47a9.94 9.94 0 0 0-6.01-2.4zm-1 0V2.03c-2.29.11-4.38 1-6.01 2.4l.48.47a9.65 9.65 0 0 1 3.02 6.59h2.51zm-3.51 1H2.03a9.96 9.96 0 0 0 2.73 6.37l.49-.49a8.66 8.66 0 0 0 2.73-5.88zm10.04 6.59a9.67 9.67 0 0 1-3.02-6.59H12.5v9.47c2.29-.11 4.38-1 6.01-2.4zm-2.02-6.59a8.65 8.65 0 0 0 2.72 5.87l.5.5a9.9 9.9 0 0 0 2.73-6.37H16zm-4.51 0H8.99a9.7 9.7 0 0 1-3.03 6.6l-.47.47a9.9 9.9 0 0 0 6.01 2.4z"/></svg>