<svg xmlns="http://www.w3.org/2000/svg" width="24" height="24" viewBox="0 0 24 24" fill="currentColor"><path d="M5.29 20.255c.07.32.36.55.68.55h12.07c.33 0 .61-.23.68-.55l1.68-7.43H3.61zm9.11-5.51c.05-.33.34-.55.68-.5.33.05.55.35.5.68l-.28 1.88c-.04.3-.3.51-.59.51h-.09a.59.59 0 0 1-.5-.68l.28-1.88zm-3 .09c0-.33.27-.6.6-.6s.6.27.6.6v1.88c0 .33-.27.6-.6.6s-.6-.27-.6-.6zm-2.46-.59c.32-.05.63.18.68.51l.28 1.88c.05.33-.18.63-.51.68H9.3c-.29 0-.55-.21-.59-.51l-.28-1.88c-.05-.33.18-.63.51-.68M22 8.795v2.33c0 .39-.31.7-.7.7H2.7c-.39 0-.7-.31-.7-.7v-2.33c0-.39.31-.7.7-.7h3.2l2.54-4.54c.19-.34.61-.46.95-.27s.46.62.27.95L7.5 8.095h9l-2.16-3.86a.694.694 0 0 1 .27-.95c.34-.19.76-.07.95.27l2.54 4.54h3.19c.39 0 .7.31.7.7z"/></svg>