<svg xmlns="http://www.w3.org/2000/svg" width="24" height="24" viewBox="0 0 24 24" fill="currentColor"><path fill-rule="evenodd" d="M17.14 21.01H7.71V10.32h.02c.52-.75 1.02-1.51 1.46-2.28.19-.33.4-1.02.58-1.63.21-.7.41-1.36.65-1.8.5-.93 1.24-1.46 2.19-1.59.14-.03.28-.03.41-.03.91 0 1.71.4 2.16 1.11.6.95.33 2.81 0 4.2-.04.18 0 .36.11.5.06.08.2.21.42.21h2.6c.75 0 1.47.32 1.98.88.52.58.77 1.35.7 2.12l-.56 5.96c-.17 1.73-1.58 3.04-3.29 3.04m-10.94 0H3.7c-.39 0-.7-.31-.7-.7v-9.28c0-.39.31-.7.7-.7h2.5z" clip-rule="evenodd"/></svg>