<svg xmlns="http://www.w3.org/2000/svg" width="24" height="24" viewBox="0 0 24 24" fill="currentColor"><path fill-rule="evenodd" d="M20.19 4H4c-1.1 0-1.99.9-1.99 2v4c1.1 0 1.99.9 1.99 2a2 2 0 0 1-2 2v4c0 1.1.9 2 2 2h16c1.1 0 2-.9 2-2v-4a2 2 0 0 1-2-2c0-1.1.89-2 1.99-2L22 6c0-1.1-.81-2-1.81-2m-7.733 3.824a.5.5 0 0 0-.914 0l-.807 1.811a.5.5 0 0 1-.404.294l-1.972.208a.5.5 0 0 0-.282.869l1.473 1.327a.5.5 0 0 1 .154.475l-.411 1.94a.5.5 0 0 0 .739.537l1.717-.991a.5.5 0 0 1 .5 0l1.717.99a.5.5 0 0 0 .74-.536l-.412-1.94a.5.5 0 0 1 .154-.475l1.473-1.327a.5.5 0 0 0-.282-.869l-1.972-.208a.5.5 0 0 1-.404-.294z" clip-rule="evenodd"/></svg>