<svg xmlns="http://www.w3.org/2000/svg" width="24" height="24" viewBox="0 0 24 24" fill="currentColor"><path fill-rule="evenodd" d="M19.93 11.28v-.38a3.7 3.7 0 0 0-3.7-3.7h-1.46v-1a.7.7 0 0 0-.7-.7H2.7a.7.7 0 0 0-.7.7v9.7a.7.7 0 0 0 .7.7h1.23a2.75 2.75 0 0 1 5.49 0h4.71a2.75 2.75 0 0 1 5.49 0h1.68a.7.7 0 0 0 .7-.7v-2a2.7 2.7 0 0 0-2.07-2.62m-1.73.62h-2.69v-3h.69a2 2 0 0 1 2 2zm-1.32 3a1.77 1.77 0 0 0-1.75 1.7v.1a1.76 1.76 0 1 0 3.51 0v-.1a1.77 1.77 0 0 0-1.76-1.7m-11.415.5a1.77 1.77 0 0 1 1.215-.5 1.77 1.77 0 0 1 1.76 1.7v.1a1.76 1.76 0 1 1-3.51 0v-.1a1.77 1.77 0 0 1 .535-1.2" clip-rule="evenodd"/></svg>