<svg xmlns="http://www.w3.org/2000/svg" width="24" height="24" viewBox="0 0 24 24" fill="currentColor"><path d="M10 20.5q.2 0 .35.15a.48.48 0 0 1 0 .7.48.48 0 0 1-.7 0A.48.48 0 0 1 9.5 21q0-.2.15-.35t.35-.15M14 20.5q.2 0 .35.15a.48.48 0 0 1 0 .7.48.48 0 0 1-.7 0 .48.48 0 0 1-.15-.35q0-.2.15-.35t.35-.15M6 17.154q.36 0 .603.243a.82.82 0 0 1 .243.603q0 .36-.243.603a.82.82 0 0 1-.603.243.82.82 0 0 1-.603-.243.82.82 0 0 1-.243-.603q0-.36.243-.603A.82.82 0 0 1 6 17.154M10 17.154q.36 0 .603.243a.82.82 0 0 1 .243.603q0 .36-.243.603a.82.82 0 0 1-.602.243.82.82 0 0 1-.604-.243.82.82 0 0 1-.243-.603q0-.36.243-.603a.82.82 0 0 1 .604-.243M14 17.154q.36 0 .603.243a.82.82 0 0 1 .243.603q0 .36-.243.603a.82.82 0 0 1-.602.243.82.82 0 0 1-.604-.243.82.82 0 0 1-.243-.603q0-.36.243-.603a.82.82 0 0 1 .604-.243M14.896 14.671c-.367.43-.912.704-1.522.704h-2.748a2 2 0 0 1-2-2v-2.75c0-.61.273-1.154.703-1.521zM6 13.154q.36 0 .603.243a.82.82 0 0 1 .243.603q0 .36-.243.603a.82.82 0 0 1-.603.243.82.82 0 0 1-.603-.243.82.82 0 0 1-.243-.603.82.82 0 0 1 .243-.603.82.82 0 0 1 .603-.243M18 13.154q.36 0 .603.243a.82.82 0 0 1 .243.603q0 .36-.243.603a.82.82 0 0 1-.603.243.82.82 0 0 1-.603-.243.82.82 0 0 1-.243-.603.82.82 0 0 1 .243-.603.82.82 0 0 1 .604-.243M3 13.5q.2 0 .35.15a.48.48 0 0 1 0 .7.48.48 0 0 1-.7 0A.48.48 0 0 1 2.5 14q0-.2.15-.35T3 13.5M21 13.5q.2 0 .35.15a.48.48 0 0 1 0 .7.48.48 0 0 1-.7 0 .48.48 0 0 1-.15-.35q0-.2.15-.35t.35-.15M13.375 8.625a2 2 0 0 1 2 2v2.276L11.1 8.625zM6 9.154q.36 0 .603.243a.82.82 0 0 1 .243.603q0 .36-.243.603a.82.82 0 0 1-.603.243.82.82 0 0 1-.603-.243.82.82 0 0 1-.243-.603.82.82 0 0 1 .243-.603A.82.82 0 0 1 6 9.154M18 9.154q.36 0 .603.243a.82.82 0 0 1 .243.603q0 .36-.243.603a.82.82 0 0 1-.603.243.82.82 0 0 1-.603-.243.82.82 0 0 1-.243-.603.82.82 0 0 1 .243-.603.82.82 0 0 1 .604-.243M3 9.5q.2 0 .35.15a.48.48 0 0 1 0 .7.48.48 0 0 1-.7 0A.48.48 0 0 1 2.5 10q0-.2.15-.35T3 9.5M21 9.5q.2 0 .35.15a.48.48 0 0 1 0 .7.48.48 0 0 1-.7 0 .48.48 0 0 1-.15-.35q0-.2.15-.35T21 9.5M10 5.154q.36 0 .603.243a.82.82 0 0 1 .243.603q0 .36-.243.603a.82.82 0 0 1-.602.243.82.82 0 0 1-.604-.243A.82.82 0 0 1 9.154 6a.82.82 0 0 1 .243-.603.82.82 0 0 1 .604-.243M14 5.154q.36 0 .603.243a.82.82 0 0 1 .243.603q0 .36-.243.603a.82.82 0 0 1-.602.243.82.82 0 0 1-.604-.243.82.82 0 0 1-.243-.603.82.82 0 0 1 .243-.603.82.82 0 0 1 .604-.243M18 5.154q.36 0 .603.243a.82.82 0 0 1 .243.603q0 .36-.243.603a.82.82 0 0 1-.603.243.82.82 0 0 1-.603-.243.82.82 0 0 1-.243-.603.82.82 0 0 1 .243-.603.82.82 0 0 1 .604-.243M10 2.5q.2 0 .35.15a.48.48 0 0 1 0 .7.48.48 0 0 1-.7 0A.48.48 0 0 1 9.5 3q0-.2.15-.35T10 2.5M14 2.5q.2 0 .35.15a.48.48 0 0 1 0 .7.48.48 0 0 1-.7 0A.48.48 0 0 1 13.5 3q0-.2.15-.35T14 2.5"/><path d="M2.845 3.595a.75.75 0 0 1 1.06 0l16.5 16.5a.75.75 0 1 1-1.06 1.06l-16.5-16.5a.75.75 0 0 1 0-1.06"/></svg>