<svg xmlns="http://www.w3.org/2000/svg" width="24" height="24" viewBox="0 0 24 24" fill="currentColor"><path fill-rule="evenodd" d="M20.125 11.919A8 8 0 0 1 21.93 15a1.58 1.58 0 0 1-.22 1.38 1.48 1.48 0 0 1-1.2.62h-2.94a9.3 9.3 0 0 0-3.33-2.95 7.74 7.74 0 0 0 1-3.63 5.36 5.36 0 0 0-4.58-5.37A4 4 0 0 1 14.5 2a4.09 4.09 0 0 1 4 4.17 6.55 6.55 0 0 1-1.34 3.76 8 8 0 0 1 2.965 1.989M12.77 14.49A8.3 8.3 0 0 1 16.3 17a9 9 0 0 1 1.62 2.92 1.61 1.61 0 0 1-.23 1.44 1.54 1.54 0 0 1-1.24.64H3.55a1.57 1.57 0 0 1-1.25-.64 1.61 1.61 0 0 1-.22-1.44 8.51 8.51 0 0 1 5.15-5.43 7 7 0 0 1-1.47-4.07A4.33 4.33 0 0 1 10 6a4 4 0 0 1 .51.05 4.35 4.35 0 0 1 3.73 4.37 7 7 0 0 1-1.47 4.07" clip-rule="evenodd"/></svg>