<svg xmlns="http://www.w3.org/2000/svg" width="24" height="24" viewBox="0 0 24 24" fill="currentColor"><path fill-rule="evenodd" d="M12.002 3.096a3.821 3.821 0 1 0 0 7.642 3.821 3.821 0 0 0 0-7.642m0-1.34a5.161 5.161 0 1 0 0 10.322 5.161 5.161 0 0 0 0-10.322M11.328 22.233q.327.01.67.011h.005a19 19 0 0 0 1.334-.048c3.467-.261 5.43-1.535 6.522-2.914.5-.633.8-1.266.979-1.793q.054-.16.094-.304c.077-.275.12-.51.144-.682l.003-.023a5 5 0 0 0 .027-.274v-.031a3 3 0 0 0-.001-.2 2.832 2.832 0 0 0-2.835-2.707H5.73c-1.127 0-2.095.65-2.554 1.595l-.001.002a2.8 2.8 0 0 0-.281 1.31v.031a2 2 0 0 0 .017.195l.01.079a5 5 0 0 0 .242 1.01c.179.526.478 1.16.979 1.792 1.091 1.38 3.055 2.653 6.522 2.914q.324.024.664.037M12 20.904h-.002c-3.993 0-5.888-1.294-6.805-2.453a4.7 4.7 0 0 1-.834-1.627 4 4 0 0 1-.118-.586 1.4 1.4 0 0 0-.006-.213 1.49 1.49 0 0 1 1.495-1.417h12.54c.807 0 1.456.626 1.496 1.418a1.4 1.4 0 0 0-.007.212l-.008.064a4 4 0 0 1-.11.522 4.65 4.65 0 0 1-.833 1.627c-.918 1.16-2.813 2.453-6.805 2.453zm-9.106-4.729h.009zm18.213 0h-.01z" clip-rule="evenodd"/><path d="M12 20.905h-.002c-3.993-.001-5.888-1.295-6.805-2.454a4.7 4.7 0 0 1-.834-1.627 4 4 0 0 1-.118-.586 1.4 1.4 0 0 0-.006-.213 1.49 1.49 0 0 1 1.495-1.417h12.54c.807 0 1.456.626 1.496 1.418a1.4 1.4 0 0 0-.007.212l-.008.064a4 4 0 0 1-.11.522 4.65 4.65 0 0 1-.833 1.627c-.918 1.16-2.813 2.453-6.805 2.453zM8.18 6.917a3.821 3.821 0 1 1 7.643 0 3.821 3.821 0 0 1-7.642 0"/></svg>