<svg xmlns="http://www.w3.org/2000/svg" width="24" height="24" viewBox="0 0 24 24" fill="currentColor"><path fill-rule="evenodd" d="M7.5 6.88v-.026c0-1.176.49-2.29 1.34-3.1A4.58 4.58 0 0 1 12 2.5a4.58 4.58 0 0 1 3.16 1.253 4.29 4.29 0 0 1 1.34 3.128H20a1.5 1.5 0 0 1 1.5 1.5v2.77a1 1 0 0 1-.677.947l-1.393.474a8 8 0 0 1-2.58.428h-9.7a8 8 0 0 1-2.58-.428l-1.393-.474a1 1 0 0 1-.677-.947v-2.77A1.5 1.5 0 0 1 4 6.88zm2.244-2.093A3.27 3.27 0 0 1 12 3.9c.857 0 1.667.325 2.256.887a2.86 2.86 0 0 1 .904 2.094H8.84v-.027c0-.762.317-1.507.904-2.067" clip-rule="evenodd"/><path d="M18.155 14.186q-.455.104-.923.097l-4.736-.059h-1.012l-4.263.054a7.6 7.6 0 0 1-1.818-.194c-1.107-.259-2.752-.661-2.903-.784v6.222c0 1.09 1.022 1.978 2.272 1.978h14.456c1.25 0 2.272-.888 2.272-1.978V13.3c-.173.14-2.307.647-3.345.886"/></svg>